{"glyphs":{"0":{"ha":681,"x_min":0,"x_max":0,"o":"m 343 114 b 211 463 256 114 211 206 b 343 808 211 717 256 808 b 474 460 431 808 474 715 b 343 114 474 208 431 114 z m 338 -32 b 657 468 536 -32 657 125 b 338 953 657 811 536 953 b 24 465 139 953 24 811 b 338 -32 24 118 139 -32 z "},"1":{"ha":411,"x_min":0,"x_max":0,"o":"m 375 0 l 375 922 l 228 922 b 6 763 217 815 164 763 l 6 638 l 194 638 l 194 0 z "},"2":{"ha":646,"x_min":0,"x_max":0,"o":"m 633 0 l 633 157 l 236 157 b 364 322 240 204 293 271 b 631 683 561 463 631 543 b 318 953 631 865 504 953 b 18 635 129 953 18 833 l 192 635 b 326 799 192 758 244 799 b 454 678 397 799 454 771 b 283 458 454 600 415 553 b 6 0 47 289 7 171 z "},"3":{"ha":665,"x_min":0,"x_max":0,"o":"m 256 414 b 461 269 406 414 461 378 b 329 117 461 172 404 117 b 192 271 239 117 192 164 l 18 271 b 321 -32 18 83 129 -32 b 646 267 514 -32 646 82 b 508 494 646 383 596 458 b 617 701 581 536 617 618 b 331 953 617 850 490 953 b 33 657 156 953 33 833 l 201 657 b 324 808 201 753 254 808 b 443 667 407 808 443 758 b 256 540 443 599 411 540 z "},"4":{"ha":661,"x_min":0,"x_max":0,"o":"m 368 342 l 179 342 l 368 667 z m 544 0 l 544 201 l 649 201 l 649 342 l 544 342 l 544 922 l 342 922 l 6 358 l 6 201 l 364 201 l 364 0 z "},"5":{"ha":681,"x_min":0,"x_max":0,"o":"m 225 363 b 354 442 250 414 289 442 b 481 289 439 442 481 385 b 343 115 481 185 443 115 b 217 238 271 115 224 161 l 36 238 b 343 -32 43 79 175 -32 b 661 297 531 -32 661 99 b 394 588 661 482 544 588 b 211 522 326 588 260 574 l 219 769 l 626 769 l 626 922 l 58 922 l 39 363 z "},"6":{"ha":676,"x_min":0,"x_max":0,"o":"m 342 114 b 201 292 253 114 201 186 b 339 461 201 393 258 461 b 471 289 418 461 471 394 b 342 114 471 190 425 114 z m 632 722 b 364 953 613 871 513 953 b 21 431 135 953 21 800 b 344 -32 21 126 128 -32 b 649 297 526 -32 649 108 b 388 603 649 489 533 603 b 199 517 296 603 242 567 b 356 808 210 714 257 808 b 453 722 415 808 449 779 z "},"7":{"ha":664,"x_min":0,"x_max":0,"o":"m 318 0 b 651 783 332 276 444 554 l 651 922 l 6 922 l 6 763 l 456 763 b 132 0 261 539 153 265 z "},"8":{"ha":688,"x_min":0,"x_max":0,"o":"m 340 117 b 210 269 247 117 210 174 b 340 414 210 357 249 414 b 474 269 432 414 474 354 b 340 117 474 174 433 117 z m 340 557 b 228 681 265 557 228 608 b 340 806 228 756 265 806 b 453 681 415 806 453 756 b 340 557 453 608 415 557 z m 522 504 b 618 704 593 540 618 624 b 342 953 618 844 524 953 b 61 699 181 953 61 844 b 165 496 61 621 89 535 b 21 261 69 450 21 368 b 342 -32 21 99 129 -32 b 660 269 556 -32 660 94 b 522 504 660 372 606 467 z "},"9":{"ha":676,"x_min":0,"x_max":0,"o":"m 331 460 b 199 632 251 460 199 526 b 328 807 199 731 244 807 b 468 629 417 807 468 735 b 331 460 468 528 411 460 z m 38 199 b 306 -32 57 50 157 -32 b 649 490 535 -32 649 121 b 325 953 649 794 542 953 b 21 624 143 953 21 813 b 282 318 21 432 136 318 b 471 404 374 318 428 354 b 314 113 460 207 413 113 b 217 199 254 113 221 142 z "},"\u0017":{"ha":335,"x_min":0,"x_max":0,"o":""}," ":{"ha":335,"x_min":0,"x_max":0,"o":""},"!":{"ha":340,"x_min":0,"x_max":0,"o":"m 260 0 l 260 182 l 72 182 l 72 0 z m 215 256 b 269 819 251 476 269 667 b 264 922 269 857 267 892 l 72 922 b 65 824 65 894 65 861 b 119 256 65 668 83 476 z "},"\"":{"ha":401,"x_min":0,"x_max":0,"o":"m 357 575 l 357 922 l 233 922 l 233 575 z m 156 575 l 156 922 l 32 922 l 32 575 z "},"#":{"ha":696,"x_min":0,"x_max":0,"o":"m 389 381 l 265 381 l 288 542 l 410 542 z m 457 0 l 492 263 l 615 263 l 629 381 l 507 381 l 528 542 l 649 542 l 665 660 l 543 660 l 578 922 l 458 922 l 425 660 l 301 660 l 336 922 l 221 922 l 185 660 l 63 660 l 49 542 l 169 542 l 149 381 l 25 381 l 13 263 l 133 263 l 100 0 l 218 0 l 251 263 l 374 263 l 336 0 z "},"$":{"ha":672,"x_min":0,"x_max":0,"o":"m 368 361 b 483 232 439 343 483 296 b 368 115 483 172 439 119 z m 311 556 b 201 672 240 565 201 617 b 311 776 201 726 243 772 z m 368 -76 l 368 -22 b 653 254 540 -14 653 93 b 368 538 653 390 617 456 l 368 776 b 474 644 431 772 465 744 l 638 644 b 368 914 629 817 538 908 l 368 975 l 311 975 l 311 914 b 36 649 153 911 36 793 b 311 383 36 499 128 432 l 311 115 b 186 276 231 126 201 157 l 19 276 b 311 -22 19 79 106 -4 l 311 -76 z "},"%":{"ha":929,"x_min":0,"x_max":0,"o":"m 190 -28 l 832 950 l 738 950 l 97 -28 z m 749 43 b 683 217 706 43 683 89 b 749 390 683 344 706 390 b 814 215 793 390 814 343 b 749 43 814 90 793 43 z m 746 -31 b 906 219 846 -31 906 49 b 746 463 906 392 846 463 b 589 218 647 463 589 392 b 746 -31 589 44 647 -31 z m 186 533 b 121 707 143 533 121 579 b 186 881 121 835 143 881 b 251 706 231 881 251 833 b 186 533 251 581 231 533 z m 183 460 b 343 710 283 460 343 539 b 183 953 343 882 283 953 b 26 708 85 953 26 882 b 183 460 26 535 85 460 z "},"&":{"ha":701,"x_min":0,"x_max":0,"o":"m 493 281 b 354 117 493 174 447 117 b 201 260 249 117 201 183 b 376 399 201 353 267 399 l 376 529 b 207 643 256 529 207 565 b 376 771 207 733 251 771 l 376 922 b 29 664 171 922 29 818 b 136 471 29 574 64 508 b 25 257 72 443 25 343 b 356 -32 25 93 146 -32 b 667 281 540 -32 667 93 l 667 529 l 493 529 z "},"'":{"ha":201,"x_min":0,"x_max":0,"o":"m 156 575 l 156 922 l 32 922 l 32 575 z "},"(":{"ha":453,"x_min":0,"x_max":0,"o":"m 447 -199 b 278 415 335 -1 278 208 b 447 1011 278 621 335 824 l 315 1011 b 93 418 164 840 93 629 b 315 -199 93 197 171 -25 z "},")":{"ha":453,"x_min":0,"x_max":0,"o":"m 143 -199 b 365 418 288 -25 365 197 b 143 1011 365 629 294 840 l 11 1011 b 181 415 124 824 181 621 b 11 -199 181 208 124 -1 z "},"*":{"ha":749,"x_min":0,"x_max":0,"o":"m 629 361 l 496 550 l 701 614 l 651 754 l 453 690 l 453 922 l 289 922 l 289 690 l 90 754 l 44 614 l 247 550 l 114 361 l 239 274 l 371 453 l 507 274 z "},"+":{"ha":726,"x_min":0,"x_max":0,"o":"m 424 149 l 424 411 l 686 411 l 686 542 l 424 542 l 424 803 l 293 803 l 293 542 l 32 542 l 32 411 l 293 411 l 293 149 z "},",":{"ha":260,"x_min":0,"x_max":0,"o":"m 32 -217 b 224 46 176 -186 224 -111 l 224 188 l 32 188 l 32 0 l 139 0 b 32 -147 138 -87 103 -129 z "},"-":{"ha":389,"x_min":0,"x_max":0,"o":"m 363 357 l 363 497 l 18 497 l 18 357 z "},".":{"ha":260,"x_min":0,"x_max":0,"o":"m 225 0 l 225 188 l 32 188 l 32 0 z "},"/":{"ha":417,"x_min":0,"x_max":0,"o":"m 142 0 l 408 922 l 257 922 l -7 0 z "},":":{"ha":238,"x_min":0,"x_max":0,"o":"m 211 0 l 211 188 l 19 188 l 19 0 z m 211 471 l 211 657 l 19 657 l 19 471 z "},";":{"ha":243,"x_min":0,"x_max":0,"o":"m 14 -217 b 206 46 158 -186 206 -111 l 206 188 l 14 188 l 14 0 l 121 0 b 14 -147 119 -87 85 -129 z m 206 471 l 206 657 l 14 657 l 14 471 z "},"<":{"ha":726,"x_min":0,"x_max":0,"o":"m 686 133 l 686 278 l 179 476 l 686 675 l 686 819 l 32 542 l 32 411 z "},"=":{"ha":726,"x_min":0,"x_max":0,"o":"m 686 550 l 686 681 l 32 681 l 32 550 z m 686 272 l 686 403 l 32 403 l 32 272 z "},">":{"ha":726,"x_min":0,"x_max":0,"o":"m 686 411 l 686 542 l 32 819 l 32 675 l 539 476 l 32 278 l 32 133 z "},"?":{"ha":682,"x_min":0,"x_max":0,"o":"m 436 0 l 436 182 l 249 182 l 249 0 z m 424 268 b 517 456 424 350 435 394 b 657 693 607 524 657 574 b 333 953 657 876 533 953 b 22 654 147 953 22 838 l 201 654 b 338 806 211 747 239 806 b 464 683 406 806 464 774 b 315 492 464 578 372 558 b 254 268 268 436 254 378 z "},"@":{"ha":983,"x_min":0,"x_max":0,"o":"m 467 214 b 363 333 389 214 363 256 b 508 544 363 482 426 544 b 604 426 571 544 604 501 b 467 214 604 303 550 214 z m 854 60 b 514 -11 797 17 675 -11 b 128 369 271 -11 128 124 b 510 775 128 569 261 775 b 860 454 725 775 860 683 b 718 214 860 294 782 214 b 686 240 703 214 686 222 b 694 290 686 249 689 265 l 767 633 l 658 633 l 640 560 b 504 647 621 618 569 647 b 244 333 346 647 244 511 b 446 104 244 217 303 104 b 593 174 511 104 564 124 b 719 100 601 133 642 100 b 963 468 833 100 963 226 b 511 869 963 754 756 869 b 21 363 204 869 21 656 b 506 -115 21 83 189 -115 b 897 -21 719 -115 843 -67 z "},"A":{"ha":893,"x_min":0,"x_max":0,"o":"m 558 349 l 324 349 l 442 715 l 443 715 z m 882 0 l 557 922 l 333 922 l 4 0 l 208 0 l 274 190 l 614 190 l 672 0 z "},"B":{"ha":797,"x_min":0,"x_max":0,"o":"m 218 157 l 218 406 l 465 406 b 604 289 551 406 604 369 b 463 157 604 214 551 157 z m 450 763 b 578 663 540 763 578 733 b 461 563 578 597 538 563 l 218 563 l 218 763 z m 447 0 b 792 275 679 0 792 107 b 651 499 792 407 729 469 b 764 671 715 525 764 592 b 486 922 764 825 667 922 l 32 922 l 32 0 z "},"C":{"ha":851,"x_min":0,"x_max":0,"o":"m 651 317 b 442 136 625 201 556 136 b 217 461 292 136 217 257 b 451 786 217 663 292 786 b 651 619 543 786 625 724 l 844 619 b 450 953 826 806 681 953 b 21 450 186 953 21 763 b 447 -32 21 133 206 -32 b 844 317 661 -32 806 107 z "},"D":{"ha":843,"x_min":0,"x_max":0,"o":"m 219 157 l 219 763 l 363 763 b 619 471 547 763 619 679 b 379 157 619 263 547 157 z m 418 0 b 817 471 657 0 817 190 b 389 922 817 751 639 922 l 32 922 l 32 0 z "},"E":{"ha":739,"x_min":0,"x_max":0,"o":"m 732 0 l 732 164 l 219 164 l 219 401 l 671 401 l 671 564 l 219 564 l 219 761 l 710 761 l 710 922 l 32 922 l 32 0 z "},"F":{"ha":701,"x_min":0,"x_max":0,"o":"m 631 389 l 631 551 l 225 551 l 225 761 l 689 761 l 689 922 l 32 922 l 32 0 l 225 0 l 225 389 z "},"G":{"ha":914,"x_min":0,"x_max":0,"o":"m 879 0 l 879 496 l 494 496 l 494 342 l 699 342 b 474 131 699 226 600 131 b 218 454 294 131 218 303 b 475 793 218 674 321 793 b 683 638 581 793 674 724 l 878 638 b 475 953 864 822 694 953 b 21 463 176 953 21 735 b 439 -32 21 206 183 -32 b 715 92 565 -32 671 14 l 719 0 z "},"H":{"ha":815,"x_min":0,"x_max":0,"o":"m 779 0 l 779 922 l 585 922 l 585 575 l 225 575 l 225 922 l 32 922 l 32 0 l 225 0 l 225 414 l 585 414 l 585 0 z "},"I":{"ha":260,"x_min":0,"x_max":0,"o":"m 225 0 l 225 922 l 32 922 l 32 0 z "},"J":{"ha":631,"x_min":0,"x_max":0,"o":"m 400 267 b 290 125 400 165 379 125 b 181 264 211 125 181 171 l 181 349 l 6 349 l 6 254 b 290 -32 6 65 113 -32 b 593 249 489 -32 593 81 l 593 922 l 400 922 z "},"K":{"ha":839,"x_min":0,"x_max":0,"o":"m 833 0 l 461 558 l 825 922 l 575 922 l 222 547 l 222 922 l 32 922 l 32 0 l 222 0 l 222 314 l 325 415 l 599 0 z "},"L":{"ha":696,"x_min":0,"x_max":0,"o":"m 682 0 l 682 168 l 225 168 l 225 922 l 32 922 l 32 0 z "},"M":{"ha":965,"x_min":0,"x_max":0,"o":"m 926 0 l 926 922 l 649 922 l 482 246 l 315 922 l 32 922 l 32 0 l 211 0 l 211 629 l 382 0 l 574 0 l 746 632 l 746 0 z "},"N":{"ha":821,"x_min":0,"x_max":0,"o":"m 783 0 l 783 922 l 603 922 l 603 329 l 236 922 l 32 922 l 32 0 l 211 0 l 211 619 l 606 0 z "},"O":{"ha":931,"x_min":0,"x_max":0,"o":"m 464 133 b 211 449 304 133 211 231 b 464 782 211 667 301 782 b 714 449 625 782 714 667 b 464 133 714 231 603 133 z m 464 -32 b 904 449 747 -32 904 132 b 464 953 904 765 747 953 b 21 453 181 953 21 765 b 464 -32 21 142 181 -32 z "},"P":{"ha":742,"x_min":0,"x_max":0,"o":"m 225 492 l 225 763 l 408 763 b 565 629 519 763 565 706 b 408 492 565 549 519 492 z m 225 0 l 225 335 l 439 335 b 735 624 619 335 735 456 b 439 922 735 790 619 922 l 32 922 l 32 0 z "},"Q":{"ha":932,"x_min":0,"x_max":0,"o":"m 753 -19 b 658 -156 753 -110 711 -156 b 558 -6 600 -156 558 -110 b 904 449 782 29 904 226 b 464 953 904 765 747 953 b 21 453 181 953 21 765 b 379 -17 21 172 149 15 l 379 -46 b 642 -324 379 -210 489 -324 b 922 -19 804 -324 922 -196 z m 464 133 b 211 449 304 133 211 231 b 464 782 211 667 301 782 b 714 449 625 782 714 667 b 464 133 714 231 603 133 z "},"R":{"ha":803,"x_min":0,"x_max":0,"o":"m 468 763 b 603 639 564 763 603 711 b 461 517 603 568 564 517 l 219 517 l 219 763 z m 758 0 l 758 261 b 646 442 758 369 728 415 b 783 656 735 474 783 557 b 500 922 783 808 671 922 l 32 922 l 32 0 l 219 0 l 219 361 l 425 361 b 569 238 536 361 569 326 l 569 0 z "},"S":{"ha":782,"x_min":0,"x_max":0,"o":"m 738 650 b 367 953 731 826 600 953 b 29 669 142 953 29 835 b 183 442 29 553 85 486 b 436 371 249 413 322 396 b 579 254 551 346 579 308 b 400 124 579 172 514 124 b 194 276 276 124 197 182 l 8 276 b 399 -32 13 69 171 -32 b 767 261 614 -32 767 58 b 622 485 767 392 703 449 b 349 565 554 515 453 540 b 206 682 246 590 206 624 b 371 790 206 751 263 790 b 554 650 488 790 544 744 z "},"T":{"ha":769,"x_min":0,"x_max":0,"o":"m 476 0 l 476 761 l 756 761 l 756 922 l 6 922 l 6 761 l 283 761 l 283 0 z "},"U":{"ha":814,"x_min":0,"x_max":0,"o":"m 578 307 b 393 128 578 186 517 128 b 228 314 289 128 228 200 l 228 922 l 32 922 l 32 296 b 396 -32 32 74 172 -32 b 775 307 638 -32 775 83 l 775 922 l 578 922 z "},"V":{"ha":824,"x_min":0,"x_max":0,"o":"m 499 0 l 811 922 l 611 922 l 411 275 l 210 922 l 4 922 l 317 0 z "},"W":{"ha":1189,"x_min":0,"x_max":0,"o":"m 921 0 l 1179 922 l 982 922 l 832 325 l 692 922 l 489 922 l 361 325 l 210 922 l 4 922 l 265 0 l 446 0 l 592 600 l 735 0 z "},"X":{"ha":840,"x_min":0,"x_max":0,"o":"m 828 0 l 528 479 l 808 922 l 585 922 l 417 624 l 250 922 l 22 922 l 304 471 l 6 0 l 231 0 l 417 317 l 593 0 z "},"Y":{"ha":836,"x_min":0,"x_max":0,"o":"m 517 0 l 517 346 l 825 922 l 603 922 l 424 547 l 229 922 l 4 922 l 324 349 l 324 0 z "},"Z":{"ha":739,"x_min":0,"x_max":0,"o":"m 726 0 l 726 164 l 244 164 l 726 771 l 726 922 l 19 922 l 19 761 l 485 761 l 6 164 l 6 0 z "},"[":{"ha":443,"x_min":0,"x_max":0,"o":"m 417 -181 l 417 -60 l 260 -60 l 260 875 l 417 875 l 417 999 l 100 999 l 100 -181 z "},"\\":{"ha":408,"x_min":0,"x_max":0,"o":"m 408 0 l 144 922 l -7 922 l 260 0 z "},"]":{"ha":439,"x_min":0,"x_max":0,"o":"m 333 -181 l 333 999 l 14 999 l 14 875 l 174 875 l 174 -60 l 14 -60 l 14 -181 z "},"^":{"ha":638,"x_min":0,"x_max":0,"o":"m 611 657 l 379 922 l 250 922 l 21 657 l 213 657 l 317 778 l 418 657 z "},"_":{"ha":664,"x_min":0,"x_max":0,"o":"m 674 -175 l 674 -94 l 0 -94 l 0 -175 z "},"`":{"ha":489,"x_min":0,"x_max":0,"o":"m 379 769 l 422 846 l 135 1014 l 69 900 z "},"a":{"ha":675,"x_min":0,"x_max":0,"o":"m 450 260 b 286 111 449 179 379 111 b 199 188 229 111 199 136 b 335 294 199 246 232 275 b 451 335 401 307 433 317 z m 632 0 l 632 432 b 340 701 632 604 557 701 b 40 461 121 701 43 603 l 208 461 b 332 563 217 522 250 563 b 447 492 403 563 447 536 b 332 414 447 444 422 426 b 18 169 150 389 18 367 b 246 -18 18 58 90 -18 b 453 61 338 -18 410 14 b 464 0 454 40 458 17 z "},"b":{"ha":728,"x_min":0,"x_max":0,"o":"m 360 129 b 207 325 274 129 207 210 b 358 547 207 474 258 547 b 514 336 464 547 514 476 b 360 129 514 214 450 129 z m 210 0 l 211 83 b 401 -18 254 14 318 -18 b 697 349 574 -18 697 118 b 417 701 697 556 593 701 b 214 594 332 701 265 667 l 214 933 l 36 933 l 36 0 z "},"c":{"ha":668,"x_min":0,"x_max":0,"o":"m 469 247 b 336 133 463 174 407 133 b 203 354 265 133 203 206 b 342 551 203 503 265 551 b 471 439 410 551 461 510 l 653 439 b 343 701 642 600 521 701 b 24 350 151 701 24 594 b 338 -18 24 106 151 -18 b 651 247 503 -18 632 89 z "},"d":{"ha":726,"x_min":0,"x_max":0,"o":"m 360 129 b 206 336 269 129 206 214 b 361 547 206 476 256 547 b 513 325 461 547 513 474 b 360 129 513 210 446 129 z m 683 0 l 683 933 l 506 933 l 506 594 b 303 701 454 667 388 701 b 22 349 126 701 22 556 b 318 -18 22 118 146 -18 b 508 83 401 -18 465 14 l 510 0 z "},"e":{"ha":699,"x_min":0,"x_max":0,"o":"m 207 408 b 346 558 214 503 274 558 b 486 408 417 558 483 510 z m 672 294 b 351 701 672 565 561 701 b 21 354 142 701 21 565 b 363 -18 21 107 135 -18 b 663 201 508 -18 621 61 l 476 201 b 354 125 464 154 413 125 b 201 294 265 125 207 192 z "},"f":{"ha":410,"x_min":0,"x_max":0,"o":"m 285 0 l 285 556 l 401 556 l 401 683 l 285 683 b 397 788 285 763 306 788 l 397 933 b 107 683 203 933 107 850 l 6 683 l 6 556 l 107 556 l 107 0 z "},"g":{"ha":736,"x_min":0,"x_max":0,"o":"m 364 136 b 210 336 275 136 210 214 b 364 544 210 476 263 544 b 518 325 467 544 518 474 b 364 136 518 210 451 136 z m 513 -21 b 340 -168 513 -111 436 -168 b 190 -37 250 -168 190 -119 l 22 -37 b 353 -324 22 -214 163 -324 b 693 -7 543 -324 693 -212 l 693 683 l 513 683 l 513 599 b 321 701 469 668 407 701 b 22 346 156 701 22 558 b 325 -6 22 167 100 -6 b 513 92 414 -6 488 31 z "},"h":{"ha":699,"x_min":0,"x_max":0,"o":"m 656 0 l 656 483 b 418 701 656 619 558 701 b 217 594 326 701 243 656 l 217 933 l 36 933 l 36 0 l 217 0 l 217 392 b 357 558 217 483 267 558 b 474 424 439 558 474 526 l 474 0 z "},"i":{"ha":267,"x_min":0,"x_max":0,"o":"m 221 0 l 221 683 l 40 683 l 40 0 z m 221 765 l 221 933 l 40 933 l 40 765 z "},"j":{"ha":271,"x_min":0,"x_max":0,"o":"m 36 -39 b -61 -164 36 -117 11 -164 b -157 -37 -132 -164 -157 -115 l -326 -37 b -51 -324 -326 -214 -239 -324 b 218 -46 101 -324 218 -211 l 218 683 l 36 683 z m 218 765 l 218 933 l 36 933 l 36 765 z "},"k":{"ha":671,"x_min":0,"x_max":0,"o":"m 658 0 l 435 432 l 664 683 l 443 683 l 218 424 l 218 933 l 36 933 l 36 0 l 218 0 l 218 217 l 306 307 l 456 0 z "},"l":{"ha":257,"x_min":0,"x_max":0,"o":"m 217 0 l 217 933 l 36 933 l 36 0 z "},"m":{"ha":1047,"x_min":0,"x_max":0,"o":"m 1014 0 l 1014 474 b 781 701 1014 601 918 701 b 596 593 694 701 633 668 b 406 701 543 672 499 701 b 206 583 315 701 251 674 l 206 683 l 36 683 l 36 0 l 217 0 l 217 415 b 326 549 217 504 254 549 b 435 411 406 549 435 521 l 435 0 l 615 0 l 615 408 b 731 554 615 492 664 554 b 838 414 794 554 838 496 l 838 0 z "},"n":{"ha":699,"x_min":0,"x_max":0,"o":"m 656 0 l 656 474 b 429 701 656 622 560 701 b 208 583 319 701 250 660 l 208 683 l 36 683 l 36 0 l 217 0 l 217 392 b 357 549 217 496 263 549 b 474 414 443 549 474 519 l 474 0 z "},"o":{"ha":749,"x_min":0,"x_max":0,"o":"m 372 133 b 207 342 263 133 207 203 b 372 549 207 481 263 549 b 538 342 482 549 538 481 b 372 133 538 203 482 133 z m 372 -18 b 719 342 585 -18 719 125 b 372 701 719 560 586 701 b 21 342 156 701 21 558 b 372 -18 21 129 151 -18 z "},"p":{"ha":726,"x_min":0,"x_max":0,"o":"m 358 136 b 207 358 258 136 207 210 b 360 554 207 474 274 554 b 514 347 450 554 514 469 b 358 136 514 207 464 136 z m 214 -324 l 214 89 b 417 -18 265 17 332 -18 b 697 335 593 -18 697 128 b 401 701 697 565 574 701 b 211 600 318 701 254 669 l 210 683 l 36 683 l 36 -324 z "},"q":{"ha":713,"x_min":0,"x_max":0,"o":"m 851 -37 b 772 -164 851 -128 825 -164 b 683 -40 715 -164 683 -133 l 683 683 l 510 683 l 508 600 b 318 701 465 669 401 701 b 22 335 146 701 22 565 b 303 -18 22 128 126 -18 b 503 85 386 -18 451 15 l 503 -39 b 761 -324 503 -207 613 -324 b 1021 -37 908 -324 1021 -214 z m 361 136 b 206 347 256 136 206 207 b 360 554 206 469 269 554 b 513 358 446 554 513 474 b 361 136 513 210 461 136 z "},"r":{"ha":446,"x_min":0,"x_max":0,"o":"m 217 0 l 217 356 b 382 521 217 465 271 521 b 432 517 399 521 415 519 l 432 701 l 408 701 b 206 601 335 701 265 693 l 206 683 l 36 683 l 36 0 z "},"s":{"ha":656,"x_min":0,"x_max":0,"o":"m 621 476 b 325 701 611 624 522 701 b 38 499 117 701 38 614 b 124 344 38 438 60 385 b 351 267 172 314 236 294 b 461 189 410 253 461 238 b 340 118 461 138 404 118 b 199 219 253 118 199 156 l 13 219 b 342 -18 15 81 132 -18 b 640 208 536 -18 640 67 b 528 374 640 297 600 344 b 324 432 475 394 401 410 b 213 510 250 453 213 469 b 319 567 213 550 251 567 b 447 476 401 567 438 543 z "},"t":{"ha":629,"x_min":0,"x_max":0,"o":"m 424 272 b 318 139 424 188 390 139 b 214 275 244 139 214 189 l 214 556 l 592 556 l 592 683 l 214 683 l 214 868 l 36 868 l 36 257 b 315 -18 36 110 115 -18 b 592 256 508 -18 592 111 l 592 450 l 424 450 z "},"u":{"ha":694,"x_min":0,"x_max":0,"o":"m 651 0 l 651 683 l 472 683 l 472 289 b 332 133 472 199 424 133 b 217 261 256 133 217 175 l 217 683 l 36 683 l 36 233 b 268 -18 36 83 132 -18 b 481 96 363 -18 433 18 l 481 0 z "},"v":{"ha":696,"x_min":0,"x_max":0,"o":"m 438 0 l 683 683 l 493 683 l 349 232 l 206 683 l 4 683 l 249 0 z "},"w":{"ha":992,"x_min":0,"x_max":0,"o":"m 785 0 l 981 683 l 794 683 l 690 244 l 583 683 l 400 683 l 306 244 l 194 683 l 4 683 l 199 0 l 383 0 l 492 397 l 600 0 z "},"x":{"ha":689,"x_min":0,"x_max":0,"o":"m 678 0 l 444 349 l 671 683 l 461 683 l 344 485 l 229 683 l 11 683 l 233 349 l 4 0 l 221 0 l 338 206 l 457 0 z "},"y":{"ha":697,"x_min":0,"x_max":0,"o":"m 471 -21 b 346 -168 471 -111 411 -168 b 204 -37 251 -168 204 -118 l 36 -37 b 338 -324 36 -214 138 -324 b 651 -18 513 -324 651 -211 l 651 683 l 471 683 l 471 267 b 332 139 471 193 414 139 b 217 267 256 139 217 182 l 217 683 l 36 683 l 36 240 b 286 -7 36 90 143 -7 b 471 90 371 -7 446 29 z "},"z":{"ha":618,"x_min":0,"x_max":0,"o":"m 601 0 l 601 147 l 243 147 l 592 538 l 592 683 l 36 683 l 36 540 l 361 540 l 13 139 l 13 0 z "},"{":{"ha":464,"x_min":0,"x_max":0,"o":"m 436 -182 l 436 -68 l 406 -68 b 301 19 325 -68 301 -46 b 310 268 301 103 310 185 b 161 410 310 346 239 400 b 310 551 239 419 310 474 b 301 799 310 635 301 715 b 406 886 301 864 325 886 l 436 886 l 436 1000 l 385 1000 b 149 781 183 1000 149 929 b 156 615 149 749 156 642 b 42 469 156 508 128 469 l 42 350 b 156 206 128 350 156 313 b 149 38 156 179 149 69 b 385 -182 149 -111 183 -182 z "},"|":{"ha":469,"x_min":0,"x_max":0,"o":"m 303 -174 l 303 1022 l 161 1022 l 161 -174 z "},"}":{"ha":458,"x_min":0,"x_max":0,"o":"m 65 -182 b 301 38 267 -182 301 -111 b 294 206 301 69 294 179 b 408 350 294 313 322 350 l 408 469 b 294 615 322 469 294 508 b 301 781 294 642 301 749 b 65 1000 301 929 267 1000 l 14 1000 l 14 886 l 44 886 b 149 799 125 886 149 864 b 140 551 149 715 140 635 b 289 410 140 474 211 419 b 140 268 211 400 140 346 b 149 19 140 185 149 103 b 44 -68 149 -46 125 -68 l 14 -68 l 14 -182 z "},"~":{"ha":771,"x_min":0,"x_max":0,"o":"m 729 564 b 532 460 672 488 610 460 b 218 539 440 460 351 539 b 35 446 133 539 75 493 l 35 306 b 224 411 90 376 147 411 b 524 331 321 411 413 331 b 729 424 608 331 671 360 z "}," ":{"ha":335,"x_min":0,"x_max":0,"o":""},"¡":{"ha":340,"x_min":0,"x_max":0,"o":"m 81 922 l 81 740 l 268 740 l 268 922 z m 125 667 b 71 103 89 446 71 256 b 76 0 71 65 74 31 l 268 0 b 275 99 275 28 275 61 b 221 667 275 254 257 446 z "},"¢":{"ha":668,"x_min":0,"x_max":0,"o":"m 374 0 l 374 99 b 651 363 521 113 633 217 l 469 363 b 374 251 464 303 425 264 l 374 663 b 471 556 425 653 463 614 l 653 556 b 374 817 642 707 533 806 l 374 922 l 308 922 l 308 817 b 24 465 136 804 24 694 b 308 97 24 232 138 110 l 308 0 z m 308 251 b 203 469 249 268 203 339 b 308 664 203 596 247 651 z "},"£":{"ha":669,"x_min":0,"x_max":0,"o":"m 632 0 l 632 168 l 229 168 l 229 371 l 632 371 l 632 485 l 229 485 l 229 669 b 339 794 229 754 247 794 b 449 668 431 794 449 753 l 449 563 l 631 563 l 631 669 b 339 953 631 890 517 953 b 36 672 139 953 36 840 l 36 0 z "},"¤":{"ha":742,"x_min":0,"x_max":0,"o":"m 615 133 l 714 233 l 621 319 b 667 476 650 364 667 418 b 621 633 667 533 650 588 l 713 718 l 614 817 l 529 725 b 372 771 483 754 429 771 b 214 725 314 771 260 754 l 129 817 l 31 718 l 124 632 b 79 476 96 586 79 533 b 124 321 79 419 96 365 l 29 233 l 129 133 l 217 228 b 372 183 261 200 315 183 b 528 228 429 183 482 200 z m 578 476 b 372 272 578 363 486 272 b 168 476 258 272 168 363 b 372 682 168 590 258 682 b 578 476 486 682 578 590 z "},"¥":{"ha":742,"x_min":0,"x_max":0,"o":"m 644 111 l 644 217 l 443 217 l 443 301 l 644 301 l 644 406 l 443 406 l 443 497 l 710 922 l 549 922 l 367 618 l 186 922 l 24 922 l 293 497 l 293 406 l 92 406 l 92 301 l 293 301 l 293 217 l 92 217 l 92 111 l 293 111 l 293 0 l 443 0 l 443 111 z "},"¦":{"ha":469,"x_min":0,"x_max":0,"o":"m 303 -174 l 303 397 l 161 397 l 161 -174 z m 303 1022 l 161 1022 l 161 471 l 303 471 z "},"§":{"ha":743,"x_min":0,"x_max":0,"o":"m 660 683 b 350 939 654 838 538 939 b 63 708 157 939 63 838 b 117 557 63 639 81 593 b 53 400 74 517 53 461 b 396 140 53 235 154 192 b 515 36 494 119 515 88 b 358 -68 515 -26 461 -68 b 192 61 264 -68 193 -18 l 35 61 b 381 -199 40 -110 156 -199 b 674 35 540 -199 674 -114 b 622 190 674 113 654 160 b 685 343 661 229 685 281 b 563 544 685 467 633 514 b 332 613 501 569 432 589 b 211 707 247 632 211 663 b 350 801 211 771 260 801 b 506 683 449 801 497 764 z m 478 264 b 321 304 433 278 383 289 b 201 399 238 325 201 354 b 267 485 201 443 224 471 b 406 449 307 472 356 458 b 526 344 506 428 526 396 b 478 264 526 310 508 281 z "},"¨":{"ha":585,"x_min":0,"x_max":0,"o":"m 250 804 l 250 976 l 69 976 l 69 804 z m 528 804 l 528 976 l 347 976 l 347 804 z "},"©":{"ha":935,"x_min":0,"x_max":0,"o":"m 463 -12 b 904 463 707 -12 904 201 b 463 936 904 724 707 936 b 21 463 219 936 21 724 b 463 -12 21 201 219 -12 z m 465 61 b 93 461 258 61 93 239 b 465 863 93 681 258 863 b 839 461 669 863 839 681 b 465 61 839 239 669 61 z m 640 513 b 472 649 635 594 568 649 b 297 456 358 649 297 578 b 468 274 297 344 358 274 b 639 414 558 274 629 332 l 539 414 b 472 353 536 375 506 353 b 399 467 422 353 399 392 b 475 568 399 525 429 568 b 542 513 507 568 535 547 z "},"ª":{"ha":456,"x_min":0,"x_max":0,"o":"m 289 560 b 199 478 288 515 251 478 b 151 519 168 478 151 492 b 290 601 151 586 258 565 z m 389 417 l 389 654 b 229 803 389 749 349 803 b 64 671 108 803 65 749 l 156 671 b 224 726 161 704 179 726 b 288 688 263 726 288 711 b 224 644 288 661 274 651 b 51 510 124 631 51 618 b 176 407 51 449 92 407 b 290 450 228 407 267 424 b 297 417 292 439 294 426 z "},"«":{"ha":646,"x_min":0,"x_max":0,"o":"m 539 201 l 626 294 l 496 440 l 626 588 l 539 682 l 340 440 z m 217 201 l 304 294 l 174 440 l 304 588 l 217 682 l 18 440 z "},"¬":{"ha":818,"x_min":0,"x_max":0,"o":"m 775 0 l 775 683 l 35 683 l 35 519 l 611 519 l 611 0 z "},"®":{"ha":631,"x_min":0,"x_max":0,"o":"m 590 686 b 324 953 590 833 471 953 b 58 686 176 953 58 833 b 324 421 58 539 176 421 b 590 686 471 421 590 539 z m 547 686 b 324 463 547 563 447 463 b 100 686 200 463 100 563 b 324 910 100 810 200 910 b 547 686 447 910 547 810 z m 349 778 b 385 744 374 778 385 764 b 347 713 385 726 374 713 l 283 713 l 283 778 z m 425 576 l 425 646 b 396 693 425 674 418 686 b 432 749 419 701 432 724 b 357 819 432 789 403 819 l 233 819 l 233 576 l 283 576 l 283 672 l 338 672 b 375 639 367 672 375 663 l 375 576 z "},"¯":{"ha":664,"x_min":0,"x_max":0,"o":"m 599 836 l 599 963 l 69 963 l 69 836 z "},"°":{"ha":521,"x_min":0,"x_max":0,"o":"m 254 493 b 465 714 404 493 465 592 b 254 933 465 838 404 933 b 44 714 104 933 44 838 b 254 493 44 592 104 493 z m 254 581 b 139 715 171 581 139 642 b 254 849 139 789 171 849 b 369 715 338 849 369 789 b 254 581 369 642 338 581 z "},"±":{"ha":726,"x_min":0,"x_max":0,"o":"m 424 149 l 424 411 l 686 411 l 686 542 l 424 542 l 424 803 l 293 803 l 293 542 l 32 542 l 32 411 l 293 411 l 293 149 z m 686 -36 l 686 94 l 32 94 l 32 -36 z "},"²":{"ha":364,"x_min":0,"x_max":0,"o":"m 338 476 l 338 554 l 139 554 b 203 638 140 578 167 611 b 336 818 301 707 336 747 b 179 953 336 908 272 953 b 29 793 85 953 29 893 l 117 793 b 183 875 117 856 143 875 b 247 815 219 875 247 861 b 163 706 247 776 228 753 b 24 476 44 621 24 561 z "},"³":{"ha":374,"x_min":0,"x_max":0,"o":"m 149 683 b 251 611 224 683 251 665 b 185 535 251 563 222 535 b 117 611 140 535 117 558 l 29 611 b 181 460 29 518 85 460 b 343 610 278 460 343 517 b 275 724 343 668 318 706 b 329 826 311 744 329 785 b 186 953 329 901 265 953 b 38 804 99 953 38 893 l 121 804 b 182 881 121 853 147 881 b 242 810 224 881 242 856 b 149 746 242 775 226 746 z "},"´":{"ha":489,"x_min":0,"x_max":0,"o":"m 422 900 l 357 1014 l 69 846 l 113 769 z "},"¶":{"ha":804,"x_min":0,"x_max":0,"o":"m 717 -139 l 717 826 l 783 953 l 267 953 b 38 794 107 953 38 882 b 190 644 38 726 75 661 l 190 -139 l 342 -139 l 342 828 l 567 828 l 567 -139 z "},"·":{"ha":260,"x_min":0,"x_max":0,"o":"m 225 368 l 225 556 l 32 556 l 32 368 z "},"¸":{"ha":288,"x_min":0,"x_max":0,"o":"m 69 -324 b 229 -135 193 -312 229 -235 l 229 -60 l 69 -60 l 69 -174 l 158 -174 b 69 -264 157 -228 126 -260 z "},"¹":{"ha":247,"x_min":0,"x_max":0,"o":"m 208 476 l 208 938 l 135 938 b 24 857 129 883 103 857 l 24 794 l 118 794 l 118 476 z "},"º":{"ha":494,"x_min":0,"x_max":0,"o":"m 246 490 b 156 604 186 490 156 528 b 246 718 156 681 186 718 b 338 604 307 718 338 681 b 246 490 338 528 307 490 z m 246 407 b 438 604 364 407 438 486 b 246 803 438 725 364 803 b 53 604 128 803 53 724 b 246 407 53 488 125 407 z "},"»":{"ha":646,"x_min":0,"x_max":0,"o":"m 428 201 l 626 440 l 428 682 l 340 588 l 471 440 l 340 294 z m 106 201 l 304 440 l 106 682 l 18 588 l 149 440 l 18 294 z "},"¼":{"ha":854,"x_min":0,"x_max":0,"o":"m 135 -28 l 776 950 l 682 950 l 42 -28 z m 211 476 l 211 938 l 138 938 b 26 857 132 883 106 857 l 26 794 l 121 794 l 121 476 z m 692 157 l 597 157 l 692 319 z m 781 -14 l 781 86 l 832 86 l 832 157 l 781 157 l 781 447 l 679 447 l 511 165 l 511 86 l 690 86 l 690 -14 z "},"½":{"ha":865,"x_min":0,"x_max":0,"o":"m 129 -28 l 771 950 l 676 950 l 36 -28 z m 211 476 l 211 938 l 138 938 b 26 857 132 883 106 857 l 26 794 l 121 794 l 121 476 z m 843 -14 l 843 64 l 644 64 b 708 147 646 88 672 121 b 842 328 807 217 842 257 b 685 463 842 418 778 463 b 535 303 590 463 535 403 l 622 303 b 689 385 622 365 649 385 b 753 325 725 385 753 371 b 668 215 753 286 733 263 b 529 -14 550 131 529 71 z "},"¾":{"ha":879,"x_min":0,"x_max":0,"o":"m 179 -28 l 821 950 l 726 950 l 86 -28 z m 715 157 l 621 157 l 715 319 z m 804 -14 l 804 86 l 856 86 l 856 157 l 804 157 l 804 447 l 703 447 l 535 165 l 535 86 l 714 86 l 714 -14 z m 146 683 b 249 611 221 683 249 665 b 182 535 249 563 219 535 b 114 611 138 535 114 558 l 26 611 b 178 460 26 518 82 460 b 340 610 275 460 340 517 b 272 724 340 668 315 706 b 326 826 308 744 326 785 b 183 953 326 901 263 953 b 35 804 96 953 35 893 l 118 804 b 179 881 118 853 144 881 b 239 810 221 881 239 856 b 146 746 239 775 224 746 z "},"¿":{"ha":682,"x_min":0,"x_max":0,"o":"m 246 922 l 246 740 l 433 740 l 433 922 z m 258 654 b 165 467 258 572 247 528 b 25 229 75 399 25 349 b 349 -31 25 46 149 -31 b 660 268 535 -31 660 85 l 481 268 b 344 117 471 175 443 117 b 218 239 276 117 218 149 b 367 431 218 344 310 364 b 428 654 414 486 428 544 z "},"À":{"ha":893,"x_min":0,"x_max":0,"o":"m 558 349 l 324 349 l 442 715 l 443 715 z m 882 0 l 557 922 l 333 922 l 4 0 l 208 0 l 274 190 l 614 190 l 672 0 z m 540 1008 l 583 1085 l 296 1253 l 231 1139 z "},"Á":{"ha":893,"x_min":0,"x_max":0,"o":"m 558 349 l 324 349 l 442 715 l 443 715 z m 882 0 l 557 922 l 333 922 l 4 0 l 208 0 l 274 190 l 614 190 l 672 0 z m 667 1139 l 601 1253 l 314 1085 l 357 1008 z "},"Â":{"ha":893,"x_min":0,"x_max":0,"o":"m 558 349 l 324 349 l 442 715 l 443 715 z m 882 0 l 557 922 l 333 922 l 4 0 l 208 0 l 274 190 l 614 190 l 672 0 z m 635 1018 l 699 1089 l 521 1275 l 374 1275 l 196 1089 l 260 1018 l 447 1182 z "},"Ã":{"ha":893,"x_min":0,"x_max":0,"o":"m 558 349 l 324 349 l 442 715 l 443 715 z m 882 0 l 557 922 l 333 922 l 4 0 l 208 0 l 274 190 l 614 190 l 672 0 z m 583 1213 b 528 1147 575 1164 544 1147 b 343 1214 475 1147 428 1214 b 208 1092 286 1214 238 1182 l 304 1040 b 358 1101 321 1092 347 1101 b 536 1039 418 1101 465 1039 b 688 1175 596 1039 657 1075 z "},"Ä":{"ha":893,"x_min":0,"x_max":0,"o":"m 558 349 l 324 349 l 442 715 l 443 715 z m 882 0 l 557 922 l 333 922 l 4 0 l 208 0 l 274 190 l 614 190 l 672 0 z m 404 1043 l 404 1215 l 224 1215 l 224 1043 z m 682 1043 l 682 1215 l 501 1215 l 501 1043 z "},"Å":{"ha":893,"x_min":0,"x_max":0,"o":"m 558 349 l 324 349 l 442 715 l 443 715 z m 882 0 l 557 922 l 333 922 l 4 0 l 208 0 l 274 190 l 614 190 l 672 0 z m 592 1142 b 447 1275 592 1226 550 1275 b 303 1142 350 1275 303 1226 b 447 1008 303 1053 351 1008 b 592 1142 550 1008 592 1056 z m 519 1142 b 447 1074 519 1099 496 1074 b 378 1142 400 1074 378 1099 b 447 1213 378 1188 400 1213 b 519 1142 496 1213 519 1188 z "},"Æ":{"ha":1229,"x_min":0,"x_max":0,"o":"m 1224 0 l 1224 164 l 711 164 l 711 401 l 1163 401 l 1163 564 l 711 564 l 711 761 l 1201 761 l 1201 922 l 333 922 l 4 0 l 208 0 l 274 190 l 519 190 l 519 0 z m 519 349 l 324 349 l 458 761 l 519 761 z "},"Ç":{"ha":851,"x_min":0,"x_max":0,"o":"m 651 317 b 442 136 625 201 556 136 b 217 461 292 136 217 257 b 451 786 217 663 292 786 b 651 619 543 786 625 724 l 844 619 b 450 953 826 806 681 953 b 21 450 186 953 21 763 b 447 -32 21 133 206 -32 b 844 317 661 -32 806 107 z m 372 -324 b 532 -135 496 -312 532 -235 l 532 -60 l 372 -60 l 372 -174 l 461 -174 b 372 -264 460 -228 429 -260 z "},"È":{"ha":739,"x_min":0,"x_max":0,"o":"m 732 0 l 732 164 l 219 164 l 219 401 l 671 401 l 671 564 l 219 564 l 219 761 l 710 761 l 710 922 l 32 922 l 32 0 z m 463 1008 l 506 1085 l 218 1253 l 153 1139 z "},"É":{"ha":739,"x_min":0,"x_max":0,"o":"m 732 0 l 732 164 l 219 164 l 219 401 l 671 401 l 671 564 l 219 564 l 219 761 l 710 761 l 710 922 l 32 922 l 32 0 z m 589 1139 l 524 1253 l 236 1085 l 279 1008 z "},"Ê":{"ha":739,"x_min":0,"x_max":0,"o":"m 732 0 l 732 164 l 219 164 l 219 401 l 671 401 l 671 564 l 219 564 l 219 761 l 710 761 l 710 922 l 32 922 l 32 0 z m 572 1018 l 636 1089 l 458 1275 l 311 1275 l 133 1089 l 197 1018 l 385 1182 z "},"Ë":{"ha":739,"x_min":0,"x_max":0,"o":"m 732 0 l 732 164 l 219 164 l 219 401 l 671 401 l 671 564 l 219 564 l 219 761 l 710 761 l 710 922 l 32 922 l 32 0 z m 339 1043 l 339 1215 l 158 1215 l 158 1043 z m 617 1043 l 617 1215 l 436 1215 l 436 1043 z "},"Ì":{"ha":260,"x_min":0,"x_max":0,"o":"m 225 0 l 225 922 l 32 922 l 32 0 z m 224 1008 l 267 1085 l -21 1253 l -86 1139 z "},"Í":{"ha":260,"x_min":0,"x_max":0,"o":"m 225 0 l 225 922 l 32 922 l 32 0 z m 350 1139 l 285 1253 l -3 1085 l 40 1008 z "},"Î":{"ha":260,"x_min":0,"x_max":0,"o":"m 225 0 l 225 922 l 32 922 l 32 0 z m 319 1018 l 383 1089 l 206 1275 l 58 1275 l -119 1089 l -56 1018 l 132 1182 z "},"Ï":{"ha":260,"x_min":0,"x_max":0,"o":"m 225 0 l 225 922 l 32 922 l 32 0 z m 89 1043 l 89 1215 l -92 1215 l -92 1043 z m 367 1043 l 367 1215 l 186 1215 l 186 1043 z "},"Ð":{"ha":843,"x_min":0,"x_max":0,"o":"m 418 0 b 817 471 657 0 817 190 b 389 922 817 751 639 922 l 32 922 l 32 529 l 0 529 l 0 392 l 32 392 l 32 0 z m 219 157 l 219 392 l 368 392 l 368 529 l 219 529 l 219 763 l 363 763 b 619 471 547 763 619 679 b 379 157 619 263 547 157 z "},"Ñ":{"ha":821,"x_min":0,"x_max":0,"o":"m 783 0 l 783 922 l 603 922 l 603 329 l 236 922 l 32 922 l 32 0 l 211 0 l 211 619 l 606 0 z m 547 1213 b 492 1147 539 1164 508 1147 b 307 1214 439 1147 392 1214 b 172 1092 250 1214 201 1182 l 268 1040 b 322 1101 285 1092 311 1101 b 500 1039 382 1101 429 1039 b 651 1175 560 1039 621 1075 z "},"Ò":{"ha":931,"x_min":0,"x_max":0,"o":"m 464 133 b 211 449 304 133 211 231 b 464 782 211 667 301 782 b 714 449 625 782 714 667 b 464 133 714 231 603 133 z m 464 -32 b 904 449 747 -32 904 132 b 464 953 904 765 747 953 b 21 453 181 953 21 765 b 464 -32 21 142 181 -32 z m 558 1008 l 601 1085 l 314 1253 l 249 1139 z "},"Ó":{"ha":931,"x_min":0,"x_max":0,"o":"m 464 133 b 211 449 304 133 211 231 b 464 782 211 667 301 782 b 714 449 625 782 714 667 b 464 133 714 231 603 133 z m 464 -32 b 904 449 747 -32 904 132 b 464 953 904 765 747 953 b 21 453 181 953 21 765 b 464 -32 21 142 181 -32 z m 685 1139 l 619 1253 l 332 1085 l 375 1008 z "},"Ô":{"ha":931,"x_min":0,"x_max":0,"o":"m 464 133 b 211 449 304 133 211 231 b 464 782 211 667 301 782 b 714 449 625 782 714 667 b 464 133 714 231 603 133 z m 464 -32 b 904 449 747 -32 904 132 b 464 953 904 765 747 953 b 21 453 181 953 21 765 b 464 -32 21 142 181 -32 z m 654 1018 l 718 1089 l 540 1275 l 393 1275 l 215 1089 l 279 1018 l 467 1182 z "},"Õ":{"ha":931,"x_min":0,"x_max":0,"o":"m 464 133 b 211 449 304 133 211 231 b 464 782 211 667 301 782 b 714 449 625 782 714 667 b 464 133 714 231 603 133 z m 464 -32 b 904 449 747 -32 904 132 b 464 953 904 765 747 953 b 21 453 181 953 21 765 b 464 -32 21 142 181 -32 z m 599 1210 b 543 1144 590 1161 560 1144 b 358 1211 490 1144 443 1211 b 224 1089 301 1211 253 1179 l 319 1038 b 374 1099 336 1089 363 1099 b 551 1036 433 1099 481 1036 b 703 1172 611 1036 672 1072 z "},"Ö":{"ha":931,"x_min":0,"x_max":0,"o":"m 464 133 b 211 449 304 133 211 231 b 464 782 211 667 301 782 b 714 449 625 782 714 667 b 464 133 714 231 603 133 z m 464 -32 b 904 449 747 -32 904 132 b 464 953 904 765 747 953 b 21 453 181 953 21 765 b 464 -32 21 142 181 -32 z m 424 1043 l 424 1215 l 243 1215 l 243 1043 z m 701 1043 l 701 1215 l 521 1215 l 521 1043 z "},"×":{"ha":726,"x_min":0,"x_max":0,"o":"m 635 290 l 450 476 l 635 661 l 543 754 l 357 568 l 172 753 l 81 661 l 265 476 l 81 292 l 172 199 l 357 383 l 543 199 z "},"Ø":{"ha":931,"x_min":0,"x_max":0,"o":"m 251 -57 l 279 -1 b 464 -32 333 -21 394 -32 b 904 449 747 -32 904 132 b 726 878 904 647 842 796 l 765 956 l 663 993 l 629 926 b 464 953 579 943 525 953 b 21 453 181 953 21 765 b 188 47 21 265 79 128 l 154 -19 z m 640 708 b 714 449 689 653 714 565 b 464 133 714 231 603 133 b 357 151 424 133 388 139 z m 272 217 b 211 449 232 268 211 344 b 464 782 211 667 301 782 b 550 768 494 782 524 776 z "},"Ù":{"ha":814,"x_min":0,"x_max":0,"o":"m 578 307 b 393 128 578 186 517 128 b 228 314 289 128 228 200 l 228 922 l 32 922 l 32 296 b 396 -32 32 74 172 -32 b 775 307 638 -32 775 83 l 775 922 l 578 922 z m 500 1008 l 543 1085 l 256 1253 l 190 1139 z "},"Ú":{"ha":814,"x_min":0,"x_max":0,"o":"m 578 307 b 393 128 578 186 517 128 b 228 314 289 128 228 200 l 228 922 l 32 922 l 32 296 b 396 -32 32 74 172 -32 b 775 307 638 -32 775 83 l 775 922 l 578 922 z m 626 1139 l 561 1253 l 274 1085 l 317 1008 z "},"Û":{"ha":814,"x_min":0,"x_max":0,"o":"m 578 307 b 393 128 578 186 517 128 b 228 314 289 128 228 200 l 228 922 l 32 922 l 32 296 b 396 -32 32 74 172 -32 b 775 307 638 -32 775 83 l 775 922 l 578 922 z m 596 1018 l 660 1089 l 482 1275 l 335 1275 l 157 1089 l 221 1018 l 408 1182 z "},"Ü":{"ha":814,"x_min":0,"x_max":0,"o":"m 578 307 b 393 128 578 186 517 128 b 228 314 289 128 228 200 l 228 922 l 32 922 l 32 296 b 396 -32 32 74 172 -32 b 775 307 638 -32 775 83 l 775 922 l 578 922 z m 364 1043 l 364 1215 l 183 1215 l 183 1043 z m 642 1043 l 642 1215 l 461 1215 l 461 1043 z "},"Ý":{"ha":836,"x_min":0,"x_max":0,"o":"m 517 0 l 517 346 l 825 922 l 603 922 l 424 547 l 229 922 l 4 922 l 324 349 l 324 0 z m 647 1139 l 582 1253 l 294 1085 l 338 1008 z "},"Þ":{"ha":742,"x_min":0,"x_max":0,"o":"m 225 349 l 225 618 l 408 618 b 565 485 504 618 565 561 b 408 349 565 406 499 349 z m 450 190 b 735 481 619 190 735 313 b 457 779 735 646 619 779 l 225 779 l 225 922 l 32 922 l 32 0 l 225 0 l 225 190 z "},"ß":{"ha":708,"x_min":0,"x_max":0,"o":"m 303 -12 b 382 -18 322 -17 344 -18 b 690 296 569 -18 690 101 b 544 529 690 393 663 476 b 638 701 592 560 638 597 b 342 943 638 843 546 943 b 36 692 136 943 36 840 l 36 0 l 214 0 l 214 682 b 335 799 214 763 268 799 b 456 682 400 799 456 768 b 314 565 456 615 428 569 l 314 451 b 513 286 433 447 513 408 b 342 131 513 196 446 131 b 303 133 329 131 315 132 z "},"à":{"ha":675,"x_min":0,"x_max":0,"o":"m 450 260 b 286 111 449 179 379 111 b 199 188 229 111 199 136 b 335 294 199 246 232 275 b 451 335 401 307 433 317 z m 632 0 l 632 432 b 340 701 632 604 557 701 b 40 461 121 701 43 603 l 208 461 b 332 563 217 522 250 563 b 447 492 403 563 447 536 b 332 414 447 444 422 426 b 18 169 150 389 18 367 b 246 -18 18 58 90 -18 b 453 61 338 -18 410 14 b 464 0 454 40 458 17 z m 431 769 l 474 846 l 186 1014 l 121 900 z "},"á":{"ha":675,"x_min":0,"x_max":0,"o":"m 450 260 b 286 111 449 179 379 111 b 199 188 229 111 199 136 b 335 294 199 246 232 275 b 451 335 401 307 433 317 z m 632 0 l 632 432 b 340 701 632 604 557 701 b 40 461 121 701 43 603 l 208 461 b 332 563 217 522 250 563 b 447 492 403 563 447 536 b 332 414 447 444 422 426 b 18 169 150 389 18 367 b 246 -18 18 58 90 -18 b 453 61 338 -18 410 14 b 464 0 454 40 458 17 z m 557 900 l 492 1014 l 204 846 l 247 769 z "},"â":{"ha":675,"x_min":0,"x_max":0,"o":"m 450 260 b 286 111 449 179 379 111 b 199 188 229 111 199 136 b 335 294 199 246 232 275 b 451 335 401 307 433 317 z m 632 0 l 632 432 b 340 701 632 604 557 701 b 40 461 121 701 43 603 l 208 461 b 332 563 217 522 250 563 b 447 492 403 563 447 536 b 332 414 447 444 422 426 b 18 169 150 389 18 367 b 246 -18 18 58 90 -18 b 453 61 338 -18 410 14 b 464 0 454 40 458 17 z m 526 779 l 590 850 l 413 1036 l 265 1036 l 88 850 l 151 779 l 339 943 z "},"ã":{"ha":675,"x_min":0,"x_max":0,"o":"m 450 260 b 286 111 449 179 379 111 b 199 188 229 111 199 136 b 335 294 199 246 232 275 b 451 335 401 307 433 317 z m 632 0 l 632 432 b 340 701 632 604 557 701 b 40 461 121 701 43 603 l 208 461 b 332 563 217 522 250 563 b 447 492 403 563 447 536 b 332 414 447 444 422 426 b 18 169 150 389 18 367 b 246 -18 18 58 90 -18 b 453 61 338 -18 410 14 b 464 0 454 40 458 17 z m 475 974 b 419 908 467 925 436 908 b 235 975 367 908 319 975 b 100 853 178 975 129 943 l 196 801 b 250 863 213 853 239 863 b 428 800 310 863 357 800 b 579 936 488 800 549 836 z "},"ä":{"ha":675,"x_min":0,"x_max":0,"o":"m 450 260 b 286 111 449 179 379 111 b 199 188 229 111 199 136 b 335 294 199 246 232 275 b 451 335 401 307 433 317 z m 632 0 l 632 432 b 340 701 632 604 557 701 b 40 461 121 701 43 603 l 208 461 b 332 563 217 522 250 563 b 447 492 403 563 447 536 b 332 414 447 444 422 426 b 18 169 150 389 18 367 b 246 -18 18 58 90 -18 b 453 61 338 -18 410 14 b 464 0 454 40 458 17 z m 306 804 l 306 976 l 125 976 l 125 804 z m 583 804 l 583 976 l 403 976 l 403 804 z "},"å":{"ha":675,"x_min":0,"x_max":0,"o":"m 450 260 b 286 111 449 179 379 111 b 199 188 229 111 199 136 b 335 294 199 246 232 275 b 451 335 401 307 433 317 z m 632 0 l 632 432 b 340 701 632 604 557 701 b 40 461 121 701 43 603 l 208 461 b 332 563 217 522 250 563 b 447 492 403 563 447 536 b 332 414 447 444 422 426 b 18 169 150 389 18 367 b 246 -18 18 58 90 -18 b 453 61 338 -18 410 14 b 464 0 454 40 458 17 z m 483 903 b 339 1036 483 988 442 1036 b 194 903 242 1036 194 988 b 339 769 194 814 243 769 b 483 903 442 769 483 817 z m 411 903 b 339 835 411 860 388 835 b 269 903 292 835 269 860 b 339 974 269 949 292 974 b 411 903 388 974 411 949 z "},"æ":{"ha":1129,"x_min":0,"x_max":0,"o":"m 1103 294 b 782 701 1103 565 992 701 b 565 632 693 701 621 676 b 340 701 519 678 447 701 b 40 461 121 701 43 603 l 208 461 b 332 563 217 522 250 563 b 447 492 403 563 447 536 b 332 414 447 444 422 426 b 18 169 150 389 18 367 b 246 -18 18 58 90 -18 b 518 97 369 -18 451 21 b 793 -18 586 10 690 -18 b 1093 201 939 -18 1051 61 l 907 201 b 785 125 894 154 843 125 b 632 294 696 125 638 192 z m 450 260 b 286 111 449 179 379 111 b 199 188 229 111 199 136 b 335 294 199 246 232 275 b 451 335 401 307 433 317 z m 638 408 b 776 558 644 503 704 558 b 917 408 847 558 914 510 z "},"ç":{"ha":668,"x_min":0,"x_max":0,"o":"m 469 247 b 336 133 463 174 407 133 b 203 354 265 133 203 206 b 342 551 203 503 265 551 b 471 439 410 551 461 510 l 653 439 b 343 701 642 600 521 701 b 24 350 151 701 24 594 b 338 -18 24 106 151 -18 b 651 247 503 -18 632 89 z m 274 -324 b 433 -135 397 -312 433 -235 l 433 -60 l 274 -60 l 274 -174 l 363 -174 b 274 -264 361 -228 331 -260 z "},"è":{"ha":699,"x_min":0,"x_max":0,"o":"m 207 408 b 346 558 214 503 274 558 b 486 408 417 558 483 510 z m 672 294 b 351 701 672 565 561 701 b 21 354 142 701 21 565 b 363 -18 21 107 135 -18 b 663 201 508 -18 621 61 l 476 201 b 354 125 464 154 413 125 b 201 294 265 125 207 192 z m 442 769 l 485 846 l 197 1014 l 132 900 z "},"é":{"ha":699,"x_min":0,"x_max":0,"o":"m 207 408 b 346 558 214 503 274 558 b 486 408 417 558 483 510 z m 672 294 b 351 701 672 565 561 701 b 21 354 142 701 21 565 b 363 -18 21 107 135 -18 b 663 201 508 -18 621 61 l 476 201 b 354 125 464 154 413 125 b 201 294 265 125 207 192 z m 568 900 l 503 1014 l 215 846 l 258 769 z "},"ê":{"ha":699,"x_min":0,"x_max":0,"o":"m 207 408 b 346 558 214 503 274 558 b 486 408 417 558 483 510 z m 672 294 b 351 701 672 565 561 701 b 21 354 142 701 21 565 b 363 -18 21 107 135 -18 b 663 201 508 -18 621 61 l 476 201 b 354 125 464 154 413 125 b 201 294 265 125 207 192 z m 539 779 l 603 850 l 425 1036 l 278 1036 l 100 850 l 164 779 l 351 943 z "},"ë":{"ha":699,"x_min":0,"x_max":0,"o":"m 207 408 b 346 558 214 503 274 558 b 486 408 417 558 483 510 z m 672 294 b 351 701 672 565 561 701 b 21 354 142 701 21 565 b 363 -18 21 107 135 -18 b 663 201 508 -18 621 61 l 476 201 b 354 125 464 154 413 125 b 201 294 265 125 207 192 z m 307 804 l 307 976 l 126 976 l 126 804 z m 585 804 l 585 976 l 404 976 l 404 804 z "},"ì":{"ha":378,"x_min":0,"x_max":0,"o":"m 282 769 l 325 846 l 38 1014 l -28 900 z m 276 0 l 276 683 l 96 683 l 96 0 z "},"í":{"ha":378,"x_min":0,"x_max":0,"o":"m 408 900 l 343 1014 l 56 846 l 99 769 z m 276 0 l 276 683 l 96 683 l 96 0 z "},"î":{"ha":378,"x_min":0,"x_max":0,"o":"m 276 0 l 276 683 l 96 683 l 96 0 z m 378 779 l 442 850 l 264 1036 l 117 1036 l -61 850 l 3 779 l 190 943 z "},"ï":{"ha":378,"x_min":0,"x_max":0,"o":"m 147 804 l 147 976 l -33 976 l -33 804 z m 425 804 l 425 976 l 244 976 l 244 804 z m 276 0 l 276 683 l 96 683 l 96 0 z "},"ð":{"ha":721,"x_min":0,"x_max":0,"o":"m 644 904 l 619 943 l 525 889 b 467 933 507 906 488 921 l 274 933 b 406 819 318 907 365 868 l 293 754 l 318 715 l 433 782 b 504 594 471 726 497 661 b 321 671 454 667 389 671 b 21 335 129 671 21 532 b 367 -18 21 136 119 -18 b 683 394 517 -18 683 78 b 558 854 683 594 640 753 z m 358 132 b 206 322 267 132 206 200 b 360 517 206 442 257 517 b 513 311 461 517 513 442 b 358 132 513 199 449 132 z "},"ñ":{"ha":699,"x_min":0,"x_max":0,"o":"m 656 0 l 656 474 b 429 701 656 622 560 701 b 208 583 319 701 250 660 l 208 683 l 36 683 l 36 0 l 217 0 l 217 392 b 357 549 217 496 263 549 b 474 414 443 549 474 519 l 474 0 z m 500 974 b 444 908 492 925 461 908 b 260 975 392 908 344 975 b 125 853 203 975 154 943 l 221 801 b 275 863 238 853 264 863 b 453 800 335 863 382 800 b 604 936 513 800 574 836 z "},"ò":{"ha":749,"x_min":0,"x_max":0,"o":"m 372 133 b 207 342 263 133 207 203 b 372 549 207 481 263 549 b 538 342 482 549 538 481 b 372 133 538 203 482 133 z m 372 -18 b 719 342 585 -18 719 125 b 372 701 719 560 586 701 b 21 342 156 701 21 558 b 372 -18 21 129 151 -18 z m 468 769 l 511 846 l 224 1014 l 158 900 z "},"ó":{"ha":749,"x_min":0,"x_max":0,"o":"m 372 133 b 207 342 263 133 207 203 b 372 549 207 481 263 549 b 538 342 482 549 538 481 b 372 133 538 203 482 133 z m 372 -18 b 719 342 585 -18 719 125 b 372 701 719 560 586 701 b 21 342 156 701 21 558 b 372 -18 21 129 151 -18 z m 594 900 l 529 1014 l 242 846 l 285 769 z "},"ô":{"ha":749,"x_min":0,"x_max":0,"o":"m 372 133 b 207 342 263 133 207 203 b 372 549 207 481 263 549 b 538 342 482 549 538 481 b 372 133 538 203 482 133 z m 372 -18 b 719 342 585 -18 719 125 b 372 701 719 560 586 701 b 21 342 156 701 21 558 b 372 -18 21 129 151 -18 z m 563 779 l 626 850 l 449 1036 l 301 1036 l 124 850 l 188 779 l 375 943 z "},"õ":{"ha":749,"x_min":0,"x_max":0,"o":"m 372 133 b 207 342 263 133 207 203 b 372 549 207 481 263 549 b 538 342 482 549 538 481 b 372 133 538 203 482 133 z m 372 -18 b 719 342 585 -18 719 125 b 372 701 719 560 586 701 b 21 342 156 701 21 558 b 372 -18 21 129 151 -18 z m 511 974 b 456 908 503 925 472 908 b 271 975 403 908 356 975 b 136 853 214 975 165 943 l 232 801 b 286 863 249 853 275 863 b 464 800 346 863 393 800 b 615 936 524 800 585 836 z "},"ö":{"ha":749,"x_min":0,"x_max":0,"o":"m 372 133 b 207 342 263 133 207 203 b 372 549 207 481 263 549 b 538 342 482 549 538 481 b 372 133 538 203 482 133 z m 372 -18 b 719 342 585 -18 719 125 b 372 701 719 560 586 701 b 21 342 156 701 21 558 b 372 -18 21 129 151 -18 z m 332 804 l 332 976 l 151 976 l 151 804 z m 610 804 l 610 976 l 429 976 l 429 804 z "},"÷":{"ha":726,"x_min":0,"x_max":0,"o":"m 686 411 l 686 542 l 32 542 l 32 411 z m 456 681 l 456 868 l 263 868 l 263 681 z m 456 88 l 456 275 l 263 275 l 263 88 z "},"ø":{"ha":749,"x_min":0,"x_max":0,"o":"m 229 -79 l 263 -4 b 372 -18 296 -14 333 -18 b 719 342 585 -18 719 125 b 565 651 719 483 663 593 l 597 721 l 510 757 l 478 688 b 372 701 446 696 410 701 b 21 342 156 701 21 558 b 179 29 21 201 78 89 l 147 -43 z m 494 499 b 538 342 522 464 538 413 b 372 133 538 203 482 133 b 328 138 357 133 342 135 z m 250 183 b 207 342 221 218 207 271 b 372 549 207 481 263 549 b 413 544 386 549 400 546 z "},"ù":{"ha":694,"x_min":0,"x_max":0,"o":"m 651 0 l 651 683 l 472 683 l 472 289 b 332 133 472 199 424 133 b 217 261 256 133 217 175 l 217 683 l 36 683 l 36 233 b 268 -18 36 83 132 -18 b 481 96 363 -18 433 18 l 481 0 z m 440 769 l 483 846 l 196 1014 l 131 900 z "},"ú":{"ha":694,"x_min":0,"x_max":0,"o":"m 651 0 l 651 683 l 472 683 l 472 289 b 332 133 472 199 424 133 b 217 261 256 133 217 175 l 217 683 l 36 683 l 36 233 b 268 -18 36 83 132 -18 b 481 96 363 -18 433 18 l 481 0 z m 567 900 l 501 1014 l 214 846 l 257 769 z "},"û":{"ha":694,"x_min":0,"x_max":0,"o":"m 651 0 l 651 683 l 472 683 l 472 289 b 332 133 472 199 424 133 b 217 261 256 133 217 175 l 217 683 l 36 683 l 36 233 b 268 -18 36 83 132 -18 b 481 96 363 -18 433 18 l 481 0 z m 536 779 l 600 850 l 422 1036 l 275 1036 l 97 850 l 161 779 l 349 943 z "},"ü":{"ha":694,"x_min":0,"x_max":0,"o":"m 651 0 l 651 683 l 472 683 l 472 289 b 332 133 472 199 424 133 b 217 261 256 133 217 175 l 217 683 l 36 683 l 36 233 b 268 -18 36 83 132 -18 b 481 96 363 -18 433 18 l 481 0 z m 315 804 l 315 976 l 135 976 l 135 804 z m 593 804 l 593 976 l 413 976 l 413 804 z "},"ý":{"ha":697,"x_min":0,"x_max":0,"o":"m 471 -21 b 346 -168 471 -111 411 -168 b 204 -37 251 -168 204 -118 l 36 -37 b 338 -324 36 -214 138 -324 b 651 -18 513 -324 651 -211 l 651 683 l 471 683 l 471 267 b 332 139 471 193 414 139 b 217 267 256 139 217 182 l 217 683 l 36 683 l 36 240 b 286 -7 36 90 143 -7 b 471 90 371 -7 446 29 z m 568 900 l 503 1014 l 215 846 l 258 769 z "},"þ":{"ha":726,"x_min":0,"x_max":0,"o":"m 358 129 b 206 325 269 129 206 210 b 357 547 206 474 257 547 b 513 336 461 547 513 476 b 358 129 513 214 449 129 z m 214 -324 l 214 86 b 417 -18 254 13 333 -18 b 699 336 596 -18 699 129 b 401 701 699 528 601 701 b 214 599 306 701 250 671 l 214 933 l 36 933 l 36 -324 z "},"ÿ":{"ha":697,"x_min":0,"x_max":0,"o":"m 471 -21 b 346 -168 471 -111 411 -168 b 204 -37 251 -168 204 -118 l 36 -37 b 338 -324 36 -214 138 -324 b 651 -18 513 -324 651 -211 l 651 683 l 471 683 l 471 267 b 332 139 471 193 414 139 b 217 267 256 139 217 182 l 217 683 l 36 683 l 36 240 b 286 -7 36 90 143 -7 b 471 90 371 -7 446 29 z m 306 804 l 306 976 l 125 976 l 125 804 z m 583 804 l 583 976 l 403 976 l 403 804 z "},"Ā":{"ha":893,"x_min":0,"x_max":0,"o":"m 558 349 l 324 349 l 442 715 l 443 715 z m 882 0 l 557 922 l 333 922 l 4 0 l 208 0 l 274 190 l 614 190 l 672 0 z m 713 1075 l 713 1201 l 183 1201 l 183 1075 z "},"ā":{"ha":675,"x_min":0,"x_max":0,"o":"m 450 260 b 286 111 449 179 379 111 b 199 188 229 111 199 136 b 335 294 199 246 232 275 b 451 335 401 307 433 317 z m 632 0 l 632 432 b 340 701 632 604 557 701 b 40 461 121 701 43 603 l 208 461 b 332 563 217 522 250 563 b 447 492 403 563 447 536 b 332 414 447 444 422 426 b 18 169 150 389 18 367 b 246 -18 18 58 90 -18 b 453 61 338 -18 410 14 b 464 0 454 40 458 17 z m 604 836 l 604 963 l 75 963 l 75 836 z "},"Ă":{"ha":893,"x_min":0,"x_max":0,"o":"m 558 349 l 324 349 l 442 715 l 443 715 z m 882 0 l 557 922 l 333 922 l 4 0 l 208 0 l 274 190 l 614 190 l 672 0 z m 560 1275 b 449 1154 557 1199 517 1154 b 338 1275 381 1154 340 1199 l 224 1275 b 449 1044 224 1121 333 1044 b 674 1275 564 1044 674 1121 z "},"ă":{"ha":675,"x_min":0,"x_max":0,"o":"m 450 260 b 286 111 449 179 379 111 b 199 188 229 111 199 136 b 335 294 199 246 232 275 b 451 335 401 307 433 317 z m 632 0 l 632 432 b 340 701 632 604 557 701 b 40 461 121 701 43 603 l 208 461 b 332 563 217 522 250 563 b 447 492 403 563 447 536 b 332 414 447 444 422 426 b 18 169 150 389 18 367 b 246 -18 18 58 90 -18 b 453 61 338 -18 410 14 b 464 0 454 40 458 17 z m 450 1036 b 339 915 447 960 407 915 b 228 1036 271 915 231 960 l 114 1036 b 339 806 114 882 224 806 b 564 1036 454 806 564 882 z "},"Ą":{"ha":893,"x_min":0,"x_max":0,"o":"m 882 -162 b 814 -174 865 -168 840 -174 b 725 -128 760 -174 725 -158 b 882 0 725 -89 740 -64 l 557 922 l 333 922 l 4 0 l 208 0 l 274 190 l 614 190 l 672 0 l 822 0 b 583 -206 678 -44 583 -115 b 736 -324 583 -278 636 -324 b 882 -287 811 -324 856 -308 z m 558 349 l 324 349 l 442 715 l 443 715 z "},"ą":{"ha":675,"x_min":0,"x_max":0,"o":"m 632 -162 b 564 -174 615 -168 590 -174 b 475 -128 510 -174 475 -158 b 632 0 475 -89 490 -64 l 632 432 b 340 701 632 604 557 701 b 40 461 121 701 43 603 l 208 461 b 332 563 217 522 250 563 b 447 492 403 563 447 536 b 332 414 447 444 422 426 b 18 169 150 389 18 367 b 246 -18 18 58 90 -18 b 453 61 338 -18 410 14 b 464 0 454 40 458 17 l 572 0 b 333 -206 428 -44 333 -115 b 486 -324 333 -278 386 -324 b 632 -287 561 -324 606 -308 z m 450 260 b 286 111 449 179 379 111 b 199 188 229 111 199 136 b 335 294 199 246 232 275 b 451 335 401 307 433 317 z "},"Ć":{"ha":851,"x_min":0,"x_max":0,"o":"m 651 317 b 442 136 625 201 556 136 b 217 461 292 136 217 257 b 451 786 217 663 292 786 b 651 619 543 786 625 724 l 844 619 b 450 953 826 806 681 953 b 21 450 186 953 21 763 b 447 -32 21 133 206 -32 b 844 317 661 -32 806 107 z m 644 1139 l 579 1253 l 292 1085 l 335 1008 z "},"ć":{"ha":668,"x_min":0,"x_max":0,"o":"m 469 247 b 336 133 463 174 407 133 b 203 354 265 133 203 206 b 342 551 203 503 265 551 b 471 439 410 551 461 510 l 653 439 b 343 701 642 600 521 701 b 24 350 151 701 24 594 b 338 -18 24 106 151 -18 b 651 247 503 -18 632 89 z m 553 900 l 488 1014 l 200 846 l 243 769 z "},"Ċ":{"ha":851,"x_min":0,"x_max":0,"o":"m 651 317 b 442 136 625 201 556 136 b 217 461 292 136 217 257 b 451 786 217 663 292 786 b 651 619 543 786 625 724 l 844 619 b 450 953 826 806 681 953 b 21 450 186 953 21 763 b 447 -32 21 133 206 -32 b 844 317 661 -32 806 107 z m 543 1043 l 543 1215 l 363 1215 l 363 1043 z "},"ċ":{"ha":668,"x_min":0,"x_max":0,"o":"m 469 247 b 336 133 463 174 407 133 b 203 354 265 133 203 206 b 342 551 203 503 265 551 b 471 439 410 551 461 510 l 653 439 b 343 701 642 600 521 701 b 24 350 151 701 24 594 b 338 -18 24 106 151 -18 b 651 247 503 -18 632 89 z m 440 804 l 440 976 l 260 976 l 260 804 z "},"Č":{"ha":851,"x_min":0,"x_max":0,"o":"m 651 317 b 442 136 625 201 556 136 b 217 461 292 136 217 257 b 451 786 217 663 292 786 b 651 619 543 786 625 724 l 844 619 b 450 953 826 806 681 953 b 21 450 186 953 21 763 b 447 -32 21 133 206 -32 b 844 317 661 -32 806 107 z m 515 1018 l 693 1204 l 629 1275 l 442 1111 l 254 1275 l 190 1204 l 368 1018 z "},"č":{"ha":668,"x_min":0,"x_max":0,"o":"m 469 247 b 336 133 463 174 407 133 b 203 354 265 133 203 206 b 342 551 203 503 265 551 b 471 439 410 551 461 510 l 653 439 b 343 701 642 600 521 701 b 24 350 151 701 24 594 b 338 -18 24 106 151 -18 b 651 247 503 -18 632 89 z m 413 779 l 590 965 l 526 1036 l 339 872 l 151 1036 l 88 965 l 265 779 z "},"Ď":{"ha":843,"x_min":0,"x_max":0,"o":"m 219 157 l 219 763 l 363 763 b 619 471 547 763 619 679 b 379 157 619 263 547 157 z m 418 0 b 817 471 657 0 817 190 b 389 922 817 751 639 922 l 32 922 l 32 0 z m 444 1018 l 622 1204 l 558 1275 l 371 1111 l 183 1275 l 119 1204 l 297 1018 z "},"ď":{"ha":908,"x_min":0,"x_max":0,"o":"m 360 129 b 206 336 269 129 206 214 b 361 547 206 476 256 547 b 513 325 461 547 513 474 b 360 129 513 210 446 129 z m 683 0 l 683 933 l 506 933 l 506 594 b 303 701 454 667 388 701 b 22 349 126 701 22 556 b 318 -18 22 118 146 -18 b 508 83 401 -18 465 14 l 510 0 z m 721 556 b 913 818 865 586 913 661 l 913 960 l 721 960 l 721 772 l 828 772 b 721 625 826 685 792 643 z "},"đ":{"ha":726,"x_min":0,"x_max":0,"o":"m 685 0 l 685 743 l 725 743 l 725 860 l 685 860 l 685 933 l 511 933 l 511 860 l 286 860 l 286 743 l 511 743 l 511 569 b 307 701 476 675 385 701 b 26 349 131 701 26 556 b 322 -18 26 118 150 -18 b 514 113 392 -18 478 15 l 517 0 z m 358 125 b 204 339 265 125 204 190 b 358 550 204 489 264 550 b 518 339 460 550 518 474 b 358 125 518 192 451 125 z "},"Ē":{"ha":739,"x_min":0,"x_max":0,"o":"m 732 0 l 732 164 l 219 164 l 219 401 l 671 401 l 671 564 l 219 564 l 219 761 l 710 761 l 710 922 l 32 922 l 32 0 z m 635 1075 l 635 1201 l 106 1201 l 106 1075 z "},"ē":{"ha":699,"x_min":0,"x_max":0,"o":"m 207 408 b 346 558 214 503 274 558 b 486 408 417 558 483 510 z m 672 294 b 351 701 672 565 561 701 b 21 354 142 701 21 565 b 363 -18 21 107 135 -18 b 663 201 508 -18 621 61 l 476 201 b 354 125 464 154 413 125 b 201 294 265 125 207 192 z m 615 836 l 615 963 l 86 963 l 86 836 z "},"Ĕ":{"ha":739,"x_min":0,"x_max":0,"o":"m 732 0 l 732 164 l 219 164 l 219 401 l 671 401 l 671 564 l 219 564 l 219 761 l 710 761 l 710 922 l 32 922 l 32 0 z m 494 1275 b 383 1154 492 1199 451 1154 b 272 1275 315 1154 275 1199 l 158 1275 b 383 1044 158 1121 268 1044 b 608 1275 499 1044 608 1121 z "},"ĕ":{"ha":699,"x_min":0,"x_max":0,"o":"m 207 408 b 346 558 214 503 274 558 b 486 408 417 558 483 510 z m 672 294 b 351 701 672 565 561 701 b 21 354 142 701 21 565 b 363 -18 21 107 135 -18 b 663 201 508 -18 621 61 l 476 201 b 354 125 464 154 413 125 b 201 294 265 125 207 192 z m 461 1036 b 350 915 458 960 418 915 b 239 1036 282 915 242 960 l 125 1036 b 350 806 125 882 235 806 b 575 1036 465 806 575 882 z "},"Ė":{"ha":739,"x_min":0,"x_max":0,"o":"m 732 0 l 732 164 l 219 164 l 219 401 l 671 401 l 671 564 l 219 564 l 219 761 l 710 761 l 710 922 l 32 922 l 32 0 z m 476 1043 l 476 1215 l 296 1215 l 296 1043 z "},"ė":{"ha":699,"x_min":0,"x_max":0,"o":"m 207 408 b 346 558 214 503 274 558 b 486 408 417 558 483 510 z m 672 294 b 351 701 672 565 561 701 b 21 354 142 701 21 565 b 363 -18 21 107 135 -18 b 663 201 508 -18 621 61 l 476 201 b 354 125 464 154 413 125 b 201 294 265 125 207 192 z m 446 804 l 446 976 l 265 976 l 265 804 z "},"Ę":{"ha":739,"x_min":0,"x_max":0,"o":"m 732 -162 b 664 -174 715 -168 690 -174 b 575 -128 610 -174 575 -158 b 732 0 575 -89 590 -64 l 732 164 l 219 164 l 219 401 l 671 401 l 671 564 l 219 564 l 219 761 l 710 761 l 710 922 l 32 922 l 32 0 l 672 0 b 433 -206 528 -44 433 -115 b 586 -324 433 -278 486 -324 b 732 -287 661 -324 706 -308 z "},"ę":{"ha":699,"x_min":0,"x_max":0,"o":"m 476 -162 b 408 -174 460 -168 435 -174 b 319 -128 354 -174 319 -158 b 476 0 319 -89 335 -64 b 663 201 565 31 632 100 l 476 201 b 354 125 464 154 413 125 b 201 294 265 125 207 192 l 672 294 b 351 701 672 565 561 701 b 21 354 142 701 21 565 b 363 -18 21 107 135 -18 l 364 -18 b 178 -206 249 -62 178 -126 b 331 -324 178 -278 231 -324 b 476 -287 406 -324 450 -308 z m 207 408 b 346 558 214 503 274 558 b 486 408 417 558 483 510 z "},"Ě":{"ha":739,"x_min":0,"x_max":0,"o":"m 732 0 l 732 164 l 219 164 l 219 401 l 671 401 l 671 564 l 219 564 l 219 761 l 710 761 l 710 922 l 32 922 l 32 0 z m 444 1018 l 622 1204 l 558 1275 l 371 1111 l 183 1275 l 119 1204 l 297 1018 z "},"ě":{"ha":699,"x_min":0,"x_max":0,"o":"m 207 408 b 346 558 214 503 274 558 b 486 408 417 558 483 510 z m 672 294 b 351 701 672 565 561 701 b 21 354 142 701 21 565 b 363 -18 21 107 135 -18 b 663 201 508 -18 621 61 l 476 201 b 354 125 464 154 413 125 b 201 294 265 125 207 192 z m 425 779 l 603 965 l 539 1036 l 351 872 l 164 1036 l 100 965 l 278 779 z "},"Ğ":{"ha":914,"x_min":0,"x_max":0,"o":"m 879 0 l 879 496 l 494 496 l 494 342 l 699 342 b 474 131 699 226 600 131 b 218 454 294 131 218 303 b 475 793 218 674 321 793 b 683 638 581 793 674 724 l 878 638 b 475 953 864 822 694 953 b 21 463 176 953 21 735 b 439 -32 21 206 183 -32 b 715 92 565 -32 671 14 l 719 0 z m 581 1275 b 469 1154 578 1199 538 1154 b 358 1275 401 1154 361 1199 l 244 1275 b 469 1044 244 1121 354 1044 b 694 1275 585 1044 694 1121 z "},"ğ":{"ha":736,"x_min":0,"x_max":0,"o":"m 364 136 b 210 336 275 136 210 214 b 364 544 210 476 263 544 b 518 325 467 544 518 474 b 364 136 518 210 451 136 z m 513 -21 b 340 -168 513 -111 436 -168 b 190 -37 250 -168 190 -119 l 22 -37 b 353 -324 22 -214 163 -324 b 693 -7 543 -324 693 -212 l 693 683 l 513 683 l 513 599 b 321 701 469 668 407 701 b 22 346 156 701 22 558 b 325 -6 22 167 100 -6 b 513 92 414 -6 488 31 z m 478 1036 b 367 915 475 960 435 915 b 256 1036 299 915 258 960 l 142 1036 b 367 806 142 882 251 806 b 592 1036 482 806 592 882 z "},"Ġ":{"ha":914,"x_min":0,"x_max":0,"o":"m 879 0 l 879 496 l 494 496 l 494 342 l 699 342 b 474 131 699 226 600 131 b 218 454 294 131 218 303 b 475 793 218 674 321 793 b 683 638 581 793 674 724 l 878 638 b 475 953 864 822 694 953 b 21 463 176 953 21 735 b 439 -32 21 206 183 -32 b 715 92 565 -32 671 14 l 719 0 z m 572 1043 l 572 1215 l 392 1215 l 392 1043 z "},"ġ":{"ha":736,"x_min":0,"x_max":0,"o":"m 364 136 b 210 336 275 136 210 214 b 364 544 210 476 263 544 b 518 325 467 544 518 474 b 364 136 518 210 451 136 z m 513 -21 b 340 -168 513 -111 436 -168 b 190 -37 250 -168 190 -119 l 22 -37 b 353 -324 22 -214 163 -324 b 693 -7 543 -324 693 -212 l 693 683 l 513 683 l 513 599 b 321 701 469 668 407 701 b 22 346 156 701 22 558 b 325 -6 22 167 100 -6 b 513 92 414 -6 488 31 z m 451 804 l 451 976 l 271 976 l 271 804 z "},"Ģ":{"ha":914,"x_min":0,"x_max":0,"o":"m 879 0 l 879 496 l 494 496 l 494 342 l 699 342 b 474 131 699 226 600 131 b 218 454 294 131 218 303 b 475 793 218 674 321 793 b 683 638 581 793 674 724 l 878 638 b 475 953 864 822 694 953 b 21 463 176 953 21 735 b 439 -32 21 206 183 -32 b 715 92 565 -32 671 14 l 719 0 z m 382 -324 b 542 -135 506 -312 542 -235 l 542 -60 l 382 -60 l 382 -174 l 471 -174 b 382 -264 469 -228 439 -260 z "},"ģ":{"ha":736,"x_min":0,"x_max":0,"o":"m 364 136 b 210 336 275 136 210 214 b 364 544 210 476 263 544 b 518 325 467 544 518 474 b 364 136 518 210 451 136 z m 513 -21 b 340 -168 513 -111 436 -168 b 190 -37 250 -168 190 -119 l 22 -37 b 353 -324 22 -214 163 -324 b 693 -7 543 -324 693 -212 l 693 683 l 513 683 l 513 599 b 321 701 469 668 407 701 b 22 346 156 701 22 558 b 325 -6 22 167 100 -6 b 513 92 414 -6 488 31 z m 442 1031 b 282 842 318 1019 282 942 l 282 767 l 442 767 l 442 881 l 353 881 b 442 971 354 935 385 967 z "},"Ħ":{"ha":815,"x_min":0,"x_max":0,"o":"m 779 0 l 779 922 l 585 922 l 585 811 l 225 811 l 225 922 l 32 922 l 32 0 l 225 0 l 225 414 l 585 414 l 585 0 z m 225 575 l 225 685 l 585 685 l 585 575 z "},"ħ":{"ha":699,"x_min":0,"x_max":0,"o":"m 446 747 l 446 874 l 217 874 l 217 933 l 36 933 l 36 874 l 0 874 l 0 747 l 36 747 l 36 0 l 217 0 l 217 392 b 357 558 217 483 267 558 b 474 424 439 558 474 526 l 474 0 l 656 0 l 656 483 b 418 701 656 619 558 701 b 217 594 326 701 243 656 l 217 747 z "},"Ĩ":{"ha":260,"x_min":0,"x_max":0,"o":"m 225 0 l 225 922 l 32 922 l 32 0 z m 267 1213 b 211 1147 258 1164 228 1147 b 26 1214 158 1147 111 1214 b -108 1092 -31 1214 -79 1182 l -12 1040 b 42 1101 4 1092 31 1101 b 219 1039 101 1101 149 1039 b 371 1175 279 1039 340 1075 z "},"ĩ":{"ha":378,"x_min":0,"x_max":0,"o":"m 326 974 b 271 908 318 925 288 908 b 86 975 218 908 171 975 b -49 853 29 975 -19 943 l 47 801 b 101 863 64 853 90 863 b 279 800 161 863 208 800 b 431 936 339 800 400 836 z m 276 0 l 276 683 l 96 683 l 96 0 z "},"Ī":{"ha":260,"x_min":0,"x_max":0,"o":"m 225 0 l 225 922 l 32 922 l 32 0 z m 397 1075 l 397 1201 l -132 1201 l -132 1075 z "},"ī":{"ha":378,"x_min":0,"x_max":0,"o":"m 456 836 l 456 963 l -74 963 l -74 836 z m 276 0 l 276 683 l 96 683 l 96 0 z "},"Ĭ":{"ha":260,"x_min":0,"x_max":0,"o":"m 225 0 l 225 922 l 32 922 l 32 0 z m 243 1275 b 132 1154 240 1199 200 1154 b 21 1275 64 1154 24 1199 l -93 1275 b 132 1044 -93 1121 17 1044 b 357 1275 247 1044 357 1121 z "},"ĭ":{"ha":378,"x_min":0,"x_max":0,"o":"m 301 1036 b 190 915 299 960 258 915 b 79 1036 122 915 82 960 l -35 1036 b 190 806 -35 882 75 806 b 415 1036 306 806 415 882 z m 276 0 l 276 683 l 96 683 l 96 0 z "},"Į":{"ha":260,"x_min":0,"x_max":0,"o":"m 225 -162 b 157 -174 208 -168 183 -174 b 68 -128 103 -174 68 -158 b 225 0 68 -89 83 -64 l 225 922 l 32 922 l 32 0 l 165 0 b -74 -206 21 -44 -74 -115 b 79 -324 -74 -278 -21 -324 b 225 -287 154 -324 199 -308 z "},"į":{"ha":267,"x_min":0,"x_max":0,"o":"m 221 -162 b 153 -174 204 -168 179 -174 b 64 -128 99 -174 64 -158 b 221 0 64 -89 79 -64 l 221 683 l 40 683 l 40 0 l 161 0 b -78 -206 17 -44 -78 -115 b 75 -324 -78 -278 -25 -324 b 221 -287 150 -324 194 -308 z m 221 765 l 221 933 l 40 933 l 40 765 z "},"İ":{"ha":260,"x_min":0,"x_max":0,"o":"m 225 0 l 225 922 l 32 922 l 32 0 z m 228 1043 l 228 1215 l 47 1215 l 47 1043 z "},"ı":{"ha":267,"x_min":0,"x_max":0,"o":"m 221 0 l 221 683 l 40 683 l 40 0 z "},"Ĳ":{"ha":890,"x_min":0,"x_max":0,"o":"m 225 0 l 225 922 l 32 922 l 32 0 z m 660 267 b 550 125 660 165 639 125 b 440 264 471 125 440 171 l 440 349 l 265 349 l 265 254 b 550 -32 265 65 372 -32 b 853 249 749 -32 853 81 l 853 922 l 660 922 z "},"ĳ":{"ha":540,"x_min":0,"x_max":0,"o":"m 221 0 l 221 683 l 40 683 l 40 0 z m 221 765 l 221 933 l 40 933 l 40 765 z m 306 -39 b 208 -164 306 -117 281 -164 b 113 -37 138 -164 113 -115 l -57 -37 b 218 -324 -57 -214 31 -324 b 488 -46 371 -324 488 -211 l 488 683 l 306 683 z m 488 765 l 488 933 l 306 933 l 306 765 z "},"Ķ":{"ha":839,"x_min":0,"x_max":0,"o":"m 833 0 l 461 558 l 825 922 l 575 922 l 222 547 l 222 922 l 32 922 l 32 0 l 222 0 l 222 314 l 325 415 l 599 0 z m 357 -324 b 517 -135 481 -312 517 -235 l 517 -60 l 357 -60 l 357 -174 l 446 -174 b 357 -264 444 -228 414 -260 z "},"ķ":{"ha":671,"x_min":0,"x_max":0,"o":"m 658 0 l 435 432 l 664 683 l 443 683 l 218 424 l 218 933 l 36 933 l 36 0 l 218 0 l 218 217 l 306 307 l 456 0 z m 261 -324 b 421 -135 385 -312 421 -235 l 421 -60 l 261 -60 l 261 -174 l 350 -174 b 261 -264 349 -228 318 -260 z "},"Ĺ":{"ha":696,"x_min":0,"x_max":0,"o":"m 682 0 l 682 168 l 225 168 l 225 922 l 32 922 l 32 0 z m 360 1139 l 294 1253 l 7 1085 l 50 1008 z "},"ĺ":{"ha":257,"x_min":0,"x_max":0,"o":"m 217 0 l 217 933 l 36 933 l 36 0 z m 349 1139 l 283 1253 l -4 1085 l 39 1008 z "},"Ļ":{"ha":696,"x_min":0,"x_max":0,"o":"m 682 0 l 682 168 l 225 168 l 225 922 l 32 922 l 32 0 z m 293 -324 b 453 -135 417 -312 453 -235 l 453 -60 l 293 -60 l 293 -174 l 382 -174 b 293 -264 381 -228 350 -260 z "},"ļ":{"ha":257,"x_min":0,"x_max":0,"o":"m 217 0 l 217 933 l 36 933 l 36 0 z m 54 -324 b 214 -135 178 -312 214 -235 l 214 -60 l 54 -60 l 54 -174 l 143 -174 b 54 -264 142 -228 111 -260 z "},"Ľ":{"ha":696,"x_min":0,"x_max":0,"o":"m 682 0 l 682 168 l 225 168 l 225 922 l 32 922 l 32 0 z m 275 556 b 467 818 419 586 467 661 l 467 960 l 275 960 l 275 772 l 382 772 b 275 625 381 685 346 643 z "},"ľ":{"ha":444,"x_min":0,"x_max":0,"o":"m 217 0 l 217 933 l 36 933 l 36 0 z m 253 553 b 444 815 397 583 444 658 l 444 957 l 253 957 l 253 769 l 360 769 b 253 622 358 682 324 640 z "},"Ł":{"ha":696,"x_min":0,"x_max":0,"o":"m 682 0 l 682 168 l 225 168 l 225 400 l 421 488 l 421 611 l 225 524 l 225 922 l 32 922 l 32 0 z "},"ł":{"ha":363,"x_min":0,"x_max":0,"o":"m 267 0 l 267 449 l 354 488 l 354 611 l 267 571 l 267 933 l 86 933 l 86 492 l 0 454 l 0 332 l 86 369 l 86 0 z "},"Ń":{"ha":821,"x_min":0,"x_max":0,"o":"m 783 0 l 783 922 l 603 922 l 603 329 l 236 922 l 32 922 l 32 0 l 211 0 l 211 619 l 606 0 z m 629 1139 l 564 1253 l 276 1085 l 319 1008 z "},"ń":{"ha":699,"x_min":0,"x_max":0,"o":"m 656 0 l 656 474 b 429 701 656 622 560 701 b 208 583 319 701 250 660 l 208 683 l 36 683 l 36 0 l 217 0 l 217 392 b 357 549 217 496 263 549 b 474 414 443 549 474 519 l 474 0 z m 568 900 l 503 1014 l 215 846 l 258 769 z "},"Ņ":{"ha":821,"x_min":0,"x_max":0,"o":"m 783 0 l 783 922 l 603 922 l 603 329 l 236 922 l 32 922 l 32 0 l 211 0 l 211 619 l 606 0 z m 346 -324 b 506 -135 469 -312 506 -235 l 506 -60 l 346 -60 l 346 -174 l 435 -174 b 346 -264 433 -228 403 -260 z "},"ņ":{"ha":699,"x_min":0,"x_max":0,"o":"m 656 0 l 656 474 b 429 701 656 622 560 701 b 208 583 319 701 250 660 l 208 683 l 36 683 l 36 0 l 217 0 l 217 392 b 357 549 217 496 263 549 b 474 414 443 549 474 519 l 474 0 z m 279 -324 b 439 -135 403 -312 439 -235 l 439 -60 l 279 -60 l 279 -174 l 368 -174 b 279 -264 367 -228 336 -260 z "},"Ň":{"ha":821,"x_min":0,"x_max":0,"o":"m 783 0 l 783 922 l 603 922 l 603 329 l 236 922 l 32 922 l 32 0 l 211 0 l 211 619 l 606 0 z m 496 1018 l 674 1204 l 610 1275 l 422 1111 l 235 1275 l 171 1204 l 349 1018 z "},"ň":{"ha":699,"x_min":0,"x_max":0,"o":"m 656 0 l 656 474 b 429 701 656 622 560 701 b 208 583 319 701 250 660 l 208 683 l 36 683 l 36 0 l 217 0 l 217 392 b 357 549 217 496 263 549 b 474 414 443 549 474 519 l 474 0 z m 450 779 l 628 965 l 564 1036 l 376 872 l 189 1036 l 125 965 l 303 779 z "},"Ŋ":{"ha":821,"x_min":0,"x_max":0,"o":"m 603 -39 b 504 -164 603 -117 576 -164 b 481 -161 496 -164 488 -162 l 481 -322 b 514 -324 492 -322 501 -324 b 783 -46 667 -324 783 -211 l 783 922 l 603 922 l 603 329 l 236 922 l 32 922 l 32 0 l 211 0 l 211 619 l 603 4 z "},"ŋ":{"ha":699,"x_min":0,"x_max":0,"o":"m 474 -39 b 376 -164 474 -117 449 -164 b 356 -162 368 -164 361 -162 l 356 -322 b 386 -324 365 -322 375 -324 b 656 -46 539 -324 656 -211 l 656 474 b 429 701 656 622 560 701 b 208 583 319 701 250 660 l 208 683 l 36 683 l 36 0 l 217 0 l 217 392 b 357 549 217 496 263 549 b 474 429 439 549 471 522 z "},"Ō":{"ha":931,"x_min":0,"x_max":0,"o":"m 464 133 b 211 449 304 133 211 231 b 464 782 211 667 301 782 b 714 449 625 782 714 667 b 464 133 714 231 603 133 z m 464 -32 b 904 449 747 -32 904 132 b 464 953 904 765 747 953 b 21 453 181 953 21 765 b 464 -32 21 142 181 -32 z m 732 1075 l 732 1201 l 203 1201 l 203 1075 z "},"ō":{"ha":749,"x_min":0,"x_max":0,"o":"m 372 133 b 207 342 263 133 207 203 b 372 549 207 481 263 549 b 538 342 482 549 538 481 b 372 133 538 203 482 133 z m 372 -18 b 719 342 585 -18 719 125 b 372 701 719 560 586 701 b 21 342 156 701 21 558 b 372 -18 21 129 151 -18 z m 640 836 l 640 963 l 111 963 l 111 836 z "},"Ŏ":{"ha":931,"x_min":0,"x_max":0,"o":"m 464 133 b 211 449 304 133 211 231 b 464 782 211 667 301 782 b 714 449 625 782 714 667 b 464 133 714 231 603 133 z m 464 -32 b 904 449 747 -32 904 132 b 464 953 904 765 747 953 b 21 453 181 953 21 765 b 464 -32 21 142 181 -32 z m 578 1275 b 467 1154 575 1199 535 1154 b 356 1275 399 1154 358 1199 l 242 1275 b 467 1044 242 1121 351 1044 b 692 1275 582 1044 692 1121 z "},"ŏ":{"ha":749,"x_min":0,"x_max":0,"o":"m 372 133 b 207 342 263 133 207 203 b 372 549 207 481 263 549 b 538 342 482 549 538 481 b 372 133 538 203 482 133 z m 372 -18 b 719 342 585 -18 719 125 b 372 701 719 560 586 701 b 21 342 156 701 21 558 b 372 -18 21 129 151 -18 z m 488 1036 b 376 915 485 960 444 915 b 265 1036 308 915 268 960 l 151 1036 b 376 806 151 882 261 806 b 601 1036 492 806 601 882 z "},"Ő":{"ha":931,"x_min":0,"x_max":0,"o":"m 464 133 b 211 449 304 133 211 231 b 464 782 211 667 301 782 b 714 449 625 782 714 667 b 464 133 714 231 603 133 z m 464 -32 b 904 449 747 -32 904 132 b 464 953 904 765 747 953 b 21 453 181 953 21 765 b 464 -32 21 142 181 -32 z m 363 1029 l 561 1228 l 500 1279 l 311 1075 z m 738 1224 l 675 1275 l 478 1075 l 529 1029 z "},"ő":{"ha":749,"x_min":0,"x_max":0,"o":"m 372 133 b 207 342 263 133 207 203 b 372 549 207 481 263 549 b 538 342 482 549 538 481 b 372 133 538 203 482 133 z m 372 -18 b 719 342 585 -18 719 125 b 372 701 719 560 586 701 b 21 342 156 701 21 558 b 372 -18 21 129 151 -18 z m 261 790 l 460 989 l 399 1040 l 210 836 z m 636 985 l 574 1036 l 376 836 l 428 790 z "},"Œ":{"ha":1339,"x_min":0,"x_max":0,"o":"m 1418 0 l 1418 164 l 904 164 l 904 401 l 1356 401 l 1356 564 l 904 564 l 904 761 l 1394 761 l 1394 922 l 717 922 l 717 876 b 465 953 646 924 561 953 b 21 485 199 953 21 758 b 475 -32 21 164 182 -32 b 717 33 569 -32 651 -8 l 717 0 z m 479 133 b 211 472 319 133 211 283 b 458 782 211 651 307 782 b 714 444 629 782 714 668 b 479 133 714 263 618 133 z "},"œ":{"ha":1204,"x_min":0,"x_max":0,"o":"m 1175 294 b 854 701 1175 565 1064 701 b 615 613 753 701 672 669 b 372 701 556 669 474 701 b 21 342 156 701 21 558 b 372 -18 21 129 151 -18 b 614 69 472 -18 554 13 b 865 -18 671 11 754 -18 b 1165 201 1011 -18 1124 61 l 979 201 b 857 125 967 154 915 125 b 704 294 768 125 710 192 z m 372 133 b 207 342 263 133 207 203 b 372 549 207 481 263 549 b 538 342 482 549 538 481 b 372 133 538 203 482 133 z m 710 408 b 849 558 717 503 776 558 b 989 408 919 558 986 510 z "},"Ŕ":{"ha":803,"x_min":0,"x_max":0,"o":"m 468 763 b 603 639 564 763 603 711 b 461 517 603 568 564 517 l 219 517 l 219 763 z m 758 0 l 758 261 b 646 442 758 369 728 415 b 783 656 735 474 783 557 b 500 922 783 808 671 922 l 32 922 l 32 0 l 219 0 l 219 361 l 425 361 b 569 238 536 361 569 326 l 569 0 z m 621 1139 l 556 1253 l 268 1085 l 311 1008 z "},"ŕ":{"ha":446,"x_min":0,"x_max":0,"o":"m 217 0 l 217 356 b 382 521 217 465 271 521 b 432 517 399 521 415 519 l 432 701 l 408 701 b 206 601 335 701 265 693 l 206 683 l 36 683 l 36 0 z m 457 900 l 392 1014 l 104 846 l 147 769 z "},"Ŗ":{"ha":803,"x_min":0,"x_max":0,"o":"m 468 763 b 603 639 564 763 603 711 b 461 517 603 568 564 517 l 219 517 l 219 763 z m 758 0 l 758 261 b 646 442 758 369 728 415 b 783 656 735 474 783 557 b 500 922 783 808 671 922 l 32 922 l 32 0 l 219 0 l 219 361 l 425 361 b 569 238 536 361 569 326 l 569 0 z m 326 -324 b 486 -135 450 -312 486 -235 l 486 -60 l 326 -60 l 326 -174 l 415 -174 b 326 -264 414 -228 383 -260 z "},"ŗ":{"ha":446,"x_min":0,"x_max":0,"o":"m 217 0 l 217 356 b 382 521 217 465 271 521 b 432 517 399 521 415 519 l 432 701 l 408 701 b 206 601 335 701 265 693 l 206 683 l 36 683 l 36 0 z m 56 -324 b 215 -135 179 -312 215 -235 l 215 -60 l 56 -60 l 56 -174 l 144 -174 b 56 -264 143 -228 113 -260 z "},"Ř":{"ha":803,"x_min":0,"x_max":0,"o":"m 468 763 b 603 639 564 763 603 711 b 461 517 603 568 564 517 l 219 517 l 219 763 z m 758 0 l 758 261 b 646 442 758 369 728 415 b 783 656 735 474 783 557 b 500 922 783 808 671 922 l 32 922 l 32 0 l 219 0 l 219 361 l 425 361 b 569 238 536 361 569 326 l 569 0 z m 451 1018 l 629 1204 l 565 1275 l 378 1111 l 190 1275 l 126 1204 l 304 1018 z "},"ř":{"ha":446,"x_min":0,"x_max":0,"o":"m 217 0 l 217 356 b 382 521 217 465 271 521 b 432 517 399 521 415 519 l 432 701 l 408 701 b 206 601 335 701 265 693 l 206 683 l 36 683 l 36 0 z m 299 779 l 476 965 l 413 1036 l 225 872 l 38 1036 l -26 965 l 151 779 z "},"Ś":{"ha":782,"x_min":0,"x_max":0,"o":"m 738 650 b 367 953 731 826 600 953 b 29 669 142 953 29 835 b 183 442 29 553 85 486 b 436 371 249 413 322 396 b 579 254 551 346 579 308 b 400 124 579 172 514 124 b 194 276 276 124 197 182 l 8 276 b 399 -32 13 69 171 -32 b 767 261 614 -32 767 58 b 622 485 767 392 703 449 b 349 565 554 515 453 540 b 206 682 246 590 206 624 b 371 790 206 751 263 790 b 554 650 488 790 544 744 z m 610 1139 l 544 1253 l 257 1085 l 300 1008 z "},"ś":{"ha":656,"x_min":0,"x_max":0,"o":"m 621 476 b 325 701 611 624 522 701 b 38 499 117 701 38 614 b 124 344 38 438 60 385 b 351 267 172 314 236 294 b 461 189 410 253 461 238 b 340 118 461 138 404 118 b 199 219 253 118 199 156 l 13 219 b 342 -18 15 81 132 -18 b 640 208 536 -18 640 67 b 528 374 640 297 600 344 b 324 432 475 394 401 410 b 213 510 250 453 213 469 b 319 567 213 550 251 567 b 447 476 401 567 438 543 z m 547 900 l 482 1014 l 194 846 l 238 769 z "},"Ş":{"ha":782,"x_min":0,"x_max":0,"o":"m 738 650 b 367 953 731 826 600 953 b 29 669 142 953 29 835 b 183 442 29 553 85 486 b 436 371 249 413 322 396 b 579 254 551 346 579 308 b 400 124 579 172 514 124 b 194 276 276 124 197 182 l 8 276 b 399 -32 13 69 171 -32 b 767 261 614 -32 767 58 b 622 485 767 392 703 449 b 349 565 554 515 453 540 b 206 682 246 590 206 624 b 371 790 206 751 263 790 b 554 650 488 790 544 744 z m 317 -324 b 476 -135 440 -312 476 -235 l 476 -60 l 317 -60 l 317 -174 l 406 -174 b 317 -264 404 -228 374 -260 z "},"ş":{"ha":656,"x_min":0,"x_max":0,"o":"m 621 476 b 325 701 611 624 522 701 b 38 499 117 701 38 614 b 124 344 38 438 60 385 b 351 267 172 314 236 294 b 461 189 410 253 461 238 b 340 118 461 138 404 118 b 199 219 253 118 199 156 l 13 219 b 342 -18 15 81 132 -18 b 640 208 536 -18 640 67 b 528 374 640 297 600 344 b 324 432 475 394 401 410 b 213 510 250 453 213 469 b 319 567 213 550 251 567 b 447 476 401 567 438 543 z m 268 -324 b 428 -135 392 -312 428 -235 l 428 -60 l 268 -60 l 268 -174 l 357 -174 b 268 -264 356 -228 325 -260 z "},"Š":{"ha":782,"x_min":0,"x_max":0,"o":"m 738 650 b 367 953 731 826 600 953 b 29 669 142 953 29 835 b 183 442 29 553 85 486 b 436 371 249 413 322 396 b 579 254 551 346 579 308 b 400 124 579 172 514 124 b 194 276 276 124 197 182 l 8 276 b 399 -32 13 69 171 -32 b 767 261 614 -32 767 58 b 622 485 767 392 703 449 b 349 565 554 515 453 540 b 206 682 246 590 206 624 b 371 790 206 751 263 790 b 554 650 488 790 544 744 z m 457 1018 l 635 1204 l 571 1275 l 383 1111 l 196 1275 l 132 1204 l 310 1018 z "},"š":{"ha":656,"x_min":0,"x_max":0,"o":"m 621 476 b 325 701 611 624 522 701 b 38 499 117 701 38 614 b 124 344 38 438 60 385 b 351 267 172 314 236 294 b 461 189 410 253 461 238 b 340 118 461 138 404 118 b 199 219 253 118 199 156 l 13 219 b 342 -18 15 81 132 -18 b 640 208 536 -18 640 67 b 528 374 640 297 600 344 b 324 432 475 394 401 410 b 213 510 250 453 213 469 b 319 567 213 550 251 567 b 447 476 401 567 438 543 z m 404 779 l 582 965 l 518 1036 l 331 872 l 143 1036 l 79 965 l 257 779 z "},"Ţ":{"ha":769,"x_min":0,"x_max":0,"o":"m 476 0 l 476 761 l 756 761 l 756 922 l 6 922 l 6 761 l 283 761 l 283 0 z m 310 -324 b 469 -135 433 -312 469 -235 l 469 -60 l 310 -60 l 310 -174 l 399 -174 b 310 -264 397 -228 367 -260 z "},"ţ":{"ha":629,"x_min":0,"x_max":0,"o":"m 424 272 b 318 139 424 188 390 139 b 214 275 244 139 214 189 l 214 556 l 592 556 l 592 683 l 214 683 l 214 868 l 36 868 l 36 257 b 315 -18 36 110 115 -18 b 592 256 508 -18 592 111 l 592 450 l 424 450 z m 240 -324 b 400 -135 364 -312 400 -235 l 400 -60 l 240 -60 l 240 -174 l 329 -174 b 240 -264 328 -228 297 -260 z "},"Ť":{"ha":769,"x_min":0,"x_max":0,"o":"m 476 0 l 476 761 l 756 761 l 756 922 l 6 922 l 6 761 l 283 761 l 283 0 z m 460 1018 l 638 1204 l 574 1275 l 386 1111 l 199 1275 l 135 1204 l 313 1018 z "},"ť":{"ha":806,"x_min":0,"x_max":0,"o":"m 424 272 b 318 139 424 188 390 139 b 214 275 244 139 214 189 l 214 556 l 592 556 l 592 683 l 214 683 l 214 868 l 36 868 l 36 257 b 315 -18 36 110 115 -18 b 592 256 508 -18 592 111 l 592 450 l 424 450 z m 615 556 b 807 818 760 586 807 661 l 807 960 l 615 960 l 615 772 l 722 772 b 615 625 721 685 686 643 z "},"Ŧ":{"ha":769,"x_min":0,"x_max":0,"o":"m 476 0 l 476 344 l 608 344 l 608 485 l 476 485 l 476 761 l 756 761 l 756 922 l 6 922 l 6 761 l 283 761 l 283 485 l 153 485 l 153 344 l 283 344 l 283 0 z "},"ŧ":{"ha":629,"x_min":0,"x_max":0,"o":"m 582 363 l 582 483 l 214 483 l 214 556 l 592 556 l 592 683 l 214 683 l 214 868 l 36 868 l 36 257 b 315 -18 36 110 115 -18 b 592 256 508 -18 592 111 l 592 297 l 424 297 l 424 272 b 318 139 424 188 390 139 b 214 275 244 139 214 189 l 214 363 z "},"Ũ":{"ha":814,"x_min":0,"x_max":0,"o":"m 578 307 b 393 128 578 186 517 128 b 228 314 289 128 228 200 l 228 922 l 32 922 l 32 296 b 396 -32 32 74 172 -32 b 775 307 638 -32 775 83 l 775 922 l 578 922 z m 544 1213 b 489 1147 536 1164 506 1147 b 304 1214 436 1147 389 1214 b 169 1092 247 1214 199 1182 l 265 1040 b 319 1101 282 1092 308 1101 b 497 1039 379 1101 426 1039 b 649 1175 557 1039 618 1075 z "},"ũ":{"ha":694,"x_min":0,"x_max":0,"o":"m 651 0 l 651 683 l 472 683 l 472 289 b 332 133 472 199 424 133 b 217 261 256 133 217 175 l 217 683 l 36 683 l 36 233 b 268 -18 36 83 132 -18 b 481 96 363 -18 433 18 l 481 0 z m 496 974 b 440 908 488 925 457 908 b 256 975 388 908 340 975 b 121 853 199 975 150 943 l 217 801 b 271 863 233 853 260 863 b 449 800 331 863 378 800 b 600 936 508 800 569 836 z "},"Ū":{"ha":814,"x_min":0,"x_max":0,"o":"m 578 307 b 393 128 578 186 517 128 b 228 314 289 128 228 200 l 228 922 l 32 922 l 32 296 b 396 -32 32 74 172 -32 b 775 307 638 -32 775 83 l 775 922 l 578 922 z m 674 1075 l 674 1201 l 144 1201 l 144 1075 z "},"ū":{"ha":694,"x_min":0,"x_max":0,"o":"m 651 0 l 651 683 l 472 683 l 472 289 b 332 133 472 199 424 133 b 217 261 256 133 217 175 l 217 683 l 36 683 l 36 233 b 268 -18 36 83 132 -18 b 481 96 363 -18 433 18 l 481 0 z m 614 836 l 614 963 l 85 963 l 85 836 z "},"Ŭ":{"ha":814,"x_min":0,"x_max":0,"o":"m 578 307 b 393 128 578 186 517 128 b 228 314 289 128 228 200 l 228 922 l 32 922 l 32 296 b 396 -32 32 74 172 -32 b 775 307 638 -32 775 83 l 775 922 l 578 922 z m 519 1275 b 408 1154 517 1199 476 1154 b 297 1275 340 1154 300 1199 l 183 1275 b 408 1044 183 1121 293 1044 b 633 1275 524 1044 633 1121 z "},"ŭ":{"ha":694,"x_min":0,"x_max":0,"o":"m 651 0 l 651 683 l 472 683 l 472 289 b 332 133 472 199 424 133 b 217 261 256 133 217 175 l 217 683 l 36 683 l 36 233 b 268 -18 36 83 132 -18 b 481 96 363 -18 433 18 l 481 0 z m 460 1036 b 349 915 457 960 417 915 b 238 1036 281 915 240 960 l 124 1036 b 349 806 124 882 233 806 b 574 1036 464 806 574 882 z "},"Ů":{"ha":814,"x_min":0,"x_max":0,"o":"m 578 307 b 393 128 578 186 517 128 b 228 314 289 128 228 200 l 228 922 l 32 922 l 32 296 b 396 -32 32 74 172 -32 b 775 307 638 -32 775 83 l 775 922 l 578 922 z m 553 1142 b 408 1275 553 1226 511 1275 b 264 1142 311 1275 264 1226 b 408 1008 264 1053 313 1008 b 553 1142 511 1008 553 1056 z m 481 1142 b 408 1074 481 1099 457 1074 b 339 1142 361 1074 339 1099 b 408 1213 339 1188 361 1213 b 481 1142 457 1213 481 1188 z "},"ů":{"ha":694,"x_min":0,"x_max":0,"o":"m 651 0 l 651 683 l 472 683 l 472 289 b 332 133 472 199 424 133 b 217 261 256 133 217 175 l 217 683 l 36 683 l 36 233 b 268 -18 36 83 132 -18 b 481 96 363 -18 433 18 l 481 0 z m 493 903 b 349 1036 493 988 451 1036 b 204 903 251 1036 204 988 b 349 769 204 814 253 769 b 493 903 451 769 493 817 z m 421 903 b 349 835 421 860 397 835 b 279 903 301 835 279 860 b 349 974 279 949 301 974 b 421 903 397 974 421 949 z "},"Ű":{"ha":814,"x_min":0,"x_max":0,"o":"m 578 307 b 393 128 578 186 517 128 b 228 314 289 128 228 200 l 228 922 l 32 922 l 32 296 b 396 -32 32 74 172 -32 b 775 307 638 -32 775 83 l 775 922 l 578 922 z m 293 1029 l 492 1228 l 431 1279 l 242 1075 z m 668 1224 l 606 1275 l 408 1075 l 460 1029 z "},"ű":{"ha":694,"x_min":0,"x_max":0,"o":"m 651 0 l 651 683 l 472 683 l 472 289 b 332 133 472 199 424 133 b 217 261 256 133 217 175 l 217 683 l 36 683 l 36 233 b 268 -18 36 83 132 -18 b 481 96 363 -18 433 18 l 481 0 z m 233 790 l 432 989 l 371 1040 l 182 836 z m 608 985 l 546 1036 l 349 836 l 400 790 z "},"Ų":{"ha":814,"x_min":0,"x_max":0,"o":"m 586 -162 b 518 -174 569 -168 544 -174 b 429 -128 464 -174 429 -158 b 582 -1 429 -89 444 -64 b 775 307 707 46 775 149 l 775 922 l 578 922 l 578 307 b 393 128 578 186 517 128 b 228 314 289 128 228 200 l 228 922 l 32 922 l 32 296 b 396 -32 32 74 172 -32 b 444 -29 413 -32 429 -31 b 288 -206 347 -74 288 -133 b 440 -324 288 -278 340 -324 b 586 -287 515 -324 560 -308 z "},"ų":{"ha":694,"x_min":0,"x_max":0,"o":"m 651 -162 b 583 -174 635 -168 610 -174 b 494 -128 529 -174 494 -158 b 651 0 494 -89 510 -64 l 651 683 l 472 683 l 472 289 b 332 133 472 199 424 133 b 217 261 256 133 217 175 l 217 683 l 36 683 l 36 233 b 268 -18 36 83 132 -18 b 481 96 363 -18 433 18 l 481 0 l 592 0 b 353 -206 447 -44 353 -115 b 506 -324 353 -278 406 -324 b 651 -287 581 -324 625 -308 z "},"Ŵ":{"ha":1189,"x_min":0,"x_max":0,"o":"m 921 0 l 1179 922 l 982 922 l 832 325 l 692 922 l 489 922 l 361 325 l 210 922 l 4 922 l 265 0 l 446 0 l 592 600 l 735 0 z m 783 1018 l 847 1089 l 669 1275 l 522 1275 l 344 1089 l 408 1018 l 596 1182 z "},"ŵ":{"ha":992,"x_min":0,"x_max":0,"o":"m 785 0 l 981 683 l 794 683 l 690 244 l 583 683 l 400 683 l 306 244 l 194 683 l 4 683 l 199 0 l 383 0 l 492 397 l 600 0 z m 685 779 l 749 850 l 571 1036 l 424 1036 l 246 850 l 310 779 l 497 943 z "},"Ŷ":{"ha":836,"x_min":0,"x_max":0,"o":"m 517 0 l 517 346 l 825 922 l 603 922 l 424 547 l 229 922 l 4 922 l 324 349 l 324 0 z m 618 1018 l 682 1089 l 504 1275 l 357 1275 l 179 1089 l 243 1018 l 431 1182 z "},"ŷ":{"ha":697,"x_min":0,"x_max":0,"o":"m 471 -21 b 346 -168 471 -111 411 -168 b 204 -37 251 -168 204 -118 l 36 -37 b 338 -324 36 -214 138 -324 b 651 -18 513 -324 651 -211 l 651 683 l 471 683 l 471 267 b 332 139 471 193 414 139 b 217 267 256 139 217 182 l 217 683 l 36 683 l 36 240 b 286 -7 36 90 143 -7 b 471 90 371 -7 446 29 z m 538 779 l 601 850 l 424 1036 l 276 1036 l 99 850 l 163 779 l 350 943 z "},"Ÿ":{"ha":836,"x_min":0,"x_max":0,"o":"m 517 0 l 517 346 l 825 922 l 603 922 l 424 547 l 229 922 l 4 922 l 324 349 l 324 0 z m 375 1043 l 375 1215 l 194 1215 l 194 1043 z m 653 1043 l 653 1215 l 472 1215 l 472 1043 z "},"Ź":{"ha":739,"x_min":0,"x_max":0,"o":"m 726 0 l 726 164 l 244 164 l 726 771 l 726 922 l 19 922 l 19 761 l 485 761 l 6 164 l 6 0 z m 589 1139 l 524 1253 l 236 1085 l 279 1008 z "},"ź":{"ha":618,"x_min":0,"x_max":0,"o":"m 601 0 l 601 147 l 243 147 l 592 538 l 592 683 l 36 683 l 36 540 l 361 540 l 13 139 l 13 0 z m 529 900 l 464 1014 l 176 846 l 219 769 z "},"Ż":{"ha":739,"x_min":0,"x_max":0,"o":"m 726 0 l 726 164 l 244 164 l 726 771 l 726 922 l 19 922 l 19 761 l 485 761 l 6 164 l 6 0 z m 468 1043 l 468 1215 l 288 1215 l 288 1043 z "},"ż":{"ha":618,"x_min":0,"x_max":0,"o":"m 601 0 l 601 147 l 243 147 l 592 538 l 592 683 l 36 683 l 36 540 l 361 540 l 13 139 l 13 0 z m 407 804 l 407 976 l 226 976 l 226 804 z "},"Ž":{"ha":739,"x_min":0,"x_max":0,"o":"m 726 0 l 726 164 l 244 164 l 726 771 l 726 922 l 19 922 l 19 761 l 485 761 l 6 164 l 6 0 z m 446 1018 l 624 1204 l 560 1275 l 372 1111 l 185 1275 l 121 1204 l 299 1018 z "},"ž":{"ha":618,"x_min":0,"x_max":0,"o":"m 601 0 l 601 147 l 243 147 l 592 538 l 592 683 l 36 683 l 36 540 l 361 540 l 13 139 l 13 0 z m 385 779 l 563 965 l 499 1036 l 311 872 l 124 1036 l 60 965 l 238 779 z "},"Ǝ":{"ha":739,"x_min":0,"x_max":0,"o":"m 701 0 l 701 922 l 26 922 l 26 765 l 519 765 l 519 563 l 65 563 l 65 403 l 519 403 l 519 160 l 4 160 l 4 0 z "},"Ə":{"ha":931,"x_min":0,"x_max":0,"o":"m 469 -32 b 906 450 747 -32 906 131 b 467 953 906 765 750 953 b 50 624 239 953 99 832 l 246 624 b 471 786 282 731 354 786 b 719 525 618 786 706 697 l 36 525 b 35 483 35 511 35 496 b 469 -32 35 183 150 -32 z m 467 129 b 213 389 328 129 231 208 l 719 389 b 467 129 708 208 607 129 z "},"ƒ":{"ha":747,"x_min":0,"x_max":0,"o":"m 108 -240 b 422 14 261 -240 394 -176 l 493 506 l 635 506 l 635 646 l 514 646 l 517 667 b 607 778 528 744 558 778 l 708 778 l 708 933 l 629 933 b 315 679 476 933 343 869 l 310 646 l 193 646 l 193 506 l 290 506 l 221 26 b 131 -85 210 -51 179 -85 l 31 -85 l 31 -240 z "},"Ɣ":{"ha":824,"x_min":0,"x_max":0,"o":"m 411 -324 b 618 -132 553 -324 618 -275 b 496 247 618 -81 610 -19 l 813 922 l 613 922 l 411 447 l 210 922 l 8 922 l 325 246 b 203 -133 213 -19 203 -81 b 411 -324 203 -275 271 -324 z m 411 64 b 481 -151 465 -50 481 -107 b 411 -229 481 -203 461 -229 b 340 -151 361 -229 340 -203 b 411 64 340 -106 357 -51 z "},"Ɲ":{"ha":821,"x_min":0,"x_max":0,"o":"m 786 0 l 786 922 l 610 922 l 610 321 l 236 922 l 36 922 l 36 -39 b -65 -167 36 -117 6 -167 b -112 -154 -87 -167 -101 -162 l -112 -319 b -60 -324 -96 -322 -78 -324 b 211 -46 94 -324 211 -211 l 211 628 l 611 0 z "},"Ơ":{"ha":1068,"x_min":0,"x_max":0,"o":"m 947 975 b 960 897 954 958 960 928 b 893 810 960 853 947 810 b 750 858 843 810 794 821 b 464 953 678 919 582 953 b 21 453 181 953 21 765 b 464 -32 21 142 181 -32 b 904 449 747 -32 904 132 b 843 739 904 563 883 661 b 946 718 879 725 914 718 b 1074 867 1021 718 1074 761 b 1044 975 1074 911 1063 954 z m 464 133 b 211 449 304 133 211 231 b 464 782 211 667 301 782 b 714 449 625 782 714 667 b 464 133 714 231 603 133 z "},"ơ":{"ha":904,"x_min":0,"x_max":0,"o":"m 783 754 b 796 676 790 738 796 707 b 729 589 796 632 783 589 b 586 638 685 589 642 597 b 372 701 529 679 457 701 b 21 342 156 701 21 558 b 372 -18 21 129 151 -18 b 719 342 585 -18 719 125 b 683 517 719 407 707 467 b 799 497 714 504 751 497 b 910 646 881 497 910 574 b 881 754 910 690 899 733 z m 372 133 b 207 342 263 133 207 203 b 372 549 207 481 263 549 b 538 342 482 549 538 481 b 372 133 538 203 482 133 z "},"Ư":{"ha":1039,"x_min":0,"x_max":0,"o":"m 578 307 b 403 128 578 186 511 128 b 228 314 283 128 228 200 l 228 922 l 32 922 l 32 296 b 399 -32 32 74 171 -32 b 775 307 636 -32 775 83 l 775 753 b 901 717 818 729 863 717 b 1032 865 976 717 1032 763 b 1003 975 1032 911 1021 954 l 906 975 b 918 897 913 958 918 928 b 844 810 918 833 894 810 b 775 821 828 810 800 813 l 775 922 l 578 922 z "},"ư":{"ha":886,"x_min":0,"x_max":0,"o":"m 651 0 l 651 522 b 761 497 690 506 728 497 b 890 644 836 497 890 542 b 861 754 890 690 879 733 l 764 754 b 776 675 771 738 776 707 b 704 589 776 628 764 589 b 651 594 693 589 671 590 l 651 683 l 472 683 l 472 289 b 331 133 472 197 424 133 b 217 261 256 133 217 175 l 217 683 l 36 683 l 36 233 b 272 -18 36 83 129 -18 b 481 96 357 -18 433 17 l 481 0 z "},"ǝ":{"ha":699,"x_min":0,"x_max":0,"o":"m 492 275 b 353 125 485 181 425 125 b 213 275 282 125 215 174 z m 26 389 b 347 -18 26 118 138 -18 b 678 329 557 -18 678 118 b 336 701 678 576 564 701 b 36 482 190 701 78 622 l 222 482 b 344 558 235 529 286 558 b 497 389 433 558 492 492 z "},"Ǧ":{"ha":914,"x_min":0,"x_max":0,"o":"m 879 0 l 879 496 l 494 496 l 494 342 l 699 342 b 474 131 699 226 600 131 b 218 454 294 131 218 303 b 475 793 218 674 321 793 b 683 638 581 793 674 724 l 878 638 b 475 953 864 822 694 953 b 21 463 176 953 21 735 b 439 -32 21 206 183 -32 b 715 92 565 -32 671 14 l 719 0 z m 532 1018 l 710 1204 l 646 1275 l 458 1111 l 271 1275 l 207 1204 l 385 1018 z "},"ǧ":{"ha":736,"x_min":0,"x_max":0,"o":"m 364 136 b 210 336 275 136 210 214 b 364 544 210 476 263 544 b 518 325 467 544 518 474 b 364 136 518 210 451 136 z m 513 -21 b 340 -168 513 -111 436 -168 b 190 -37 250 -168 190 -119 l 22 -37 b 353 -324 22 -214 163 -324 b 693 -7 543 -324 693 -212 l 693 683 l 513 683 l 513 599 b 321 701 469 668 407 701 b 22 346 156 701 22 558 b 325 -6 22 167 100 -6 b 513 92 414 -6 488 31 z m 433 779 l 611 965 l 547 1036 l 360 872 l 172 1036 l 108 965 l 286 779 z "},"Ǵ":{"ha":914,"x_min":0,"x_max":0,"o":"m 879 0 l 879 496 l 494 496 l 494 342 l 699 342 b 474 131 699 226 600 131 b 218 454 294 131 218 303 b 475 793 218 674 321 793 b 683 638 581 793 674 724 l 878 638 b 475 953 864 822 694 953 b 21 463 176 953 21 735 b 439 -32 21 206 183 -32 b 715 92 565 -32 671 14 l 719 0 z m 676 1139 l 611 1253 l 324 1085 l 367 1008 z "},"ǵ":{"ha":736,"x_min":0,"x_max":0,"o":"m 364 136 b 210 336 275 136 210 214 b 364 544 210 476 263 544 b 518 325 467 544 518 474 b 364 136 518 210 451 136 z m 513 -21 b 340 -168 513 -111 436 -168 b 190 -37 250 -168 190 -119 l 22 -37 b 353 -324 22 -214 163 -324 b 693 -7 543 -324 693 -212 l 693 683 l 513 683 l 513 599 b 321 701 469 668 407 701 b 22 346 156 701 22 558 b 325 -6 22 167 100 -6 b 513 92 414 -6 488 31 z m 576 900 l 511 1014 l 224 846 l 267 769 z "},"Ǹ":{"ha":821,"x_min":0,"x_max":0,"o":"m 783 0 l 783 922 l 603 922 l 603 329 l 236 922 l 32 922 l 32 0 l 211 0 l 211 619 l 606 0 z m 503 1008 l 546 1085 l 258 1253 l 193 1139 z "},"ǹ":{"ha":699,"x_min":0,"x_max":0,"o":"m 656 0 l 656 474 b 429 701 656 622 560 701 b 208 583 319 701 250 660 l 208 683 l 36 683 l 36 0 l 217 0 l 217 392 b 357 549 217 496 263 549 b 474 414 443 549 474 519 l 474 0 z m 442 769 l 485 846 l 197 1014 l 132 900 z "},"ȷ":{"ha":271,"x_min":0,"x_max":0,"o":"m 50 -39 b -47 -164 50 -117 25 -164 b -143 -37 -118 -164 -143 -115 l -312 -37 b -37 -324 -312 -214 -225 -324 b 232 -46 115 -324 232 -211 l 232 683 l 50 683 z "},"Ɂ":{"ha":682,"x_min":0,"x_max":0,"o":"m 435 0 l 435 274 b 531 472 435 379 453 413 b 660 688 611 533 660 572 b 349 953 660 863 546 953 b 26 654 125 953 26 838 l 197 654 b 342 808 201 744 239 808 b 481 686 414 808 481 776 b 360 525 481 588 403 556 b 246 274 267 461 246 374 l 246 0 z "},"ɂ":{"ha":682,"x_min":0,"x_max":0,"o":"m 429 0 l 429 108 b 526 281 429 207 453 229 b 654 467 611 339 654 369 b 347 701 654 624 543 701 b 29 442 126 701 29 601 l 207 442 b 353 554 207 496 242 554 b 475 461 426 554 475 528 b 363 328 475 408 443 385 b 253 108 290 276 253 219 l 253 0 z "},"Ɍ":{"ha":972,"x_min":0,"x_max":0,"o":"m 928 0 l 928 261 b 815 442 928 369 897 415 b 953 656 904 474 953 557 b 669 922 953 808 840 922 l 201 922 l 201 517 l 0 517 l 0 361 l 201 361 l 201 0 l 389 0 l 389 361 l 594 361 b 739 238 706 361 739 326 l 739 0 z m 638 763 b 772 639 733 763 772 711 b 631 517 772 568 733 517 l 389 517 l 389 763 z "},"ɍ":{"ha":542,"x_min":0,"x_max":0,"o":"m 314 0 l 314 240 l 529 240 l 529 367 l 314 367 b 479 521 317 468 371 521 b 529 517 496 521 513 519 l 529 701 l 506 701 b 303 601 432 701 363 693 l 303 683 l 133 683 l 133 367 l 0 367 l 0 240 l 133 240 l 133 0 z "},"ɣ":{"ha":696,"x_min":0,"x_max":0,"o":"m 347 -324 b 554 -151 474 -324 554 -285 b 428 181 554 -112 547 -78 l 686 683 l 493 683 l 346 361 l 200 683 l 8 683 l 264 182 b 139 -151 146 -78 139 -112 b 347 -324 139 -285 221 -324 z m 347 18 b 407 -160 371 -12 407 -115 b 346 -215 407 -190 389 -215 b 288 -153 304 -215 288 -193 b 346 19 288 -115 301 -71 z "},"ɲ":{"ha":699,"x_min":0,"x_max":0,"o":"m 217 392 b 363 549 217 499 263 549 b 474 414 443 549 474 517 l 474 0 l 656 0 l 656 474 b 424 701 656 622 563 701 b 208 583 325 701 250 661 l 208 683 l 36 683 l 36 32 b -58 -167 36 -82 36 -167 b -93 -160 -75 -167 -85 -164 l -93 -321 b -50 -324 -81 -322 -67 -324 b 217 -46 100 -324 217 -211 z "},"ˆ":{"ha":639,"x_min":0,"x_max":0,"o":"m 508 779 l 572 850 l 394 1036 l 247 1036 l 69 850 l 133 779 l 321 943 z "},"ˇ":{"ha":638,"x_min":0,"x_max":0,"o":"m 394 779 l 572 965 l 508 1036 l 321 872 l 133 1036 l 69 965 l 247 779 z "},"ˉ":{"ha":664,"x_min":0,"x_max":0,"o":"m 599 836 l 599 963 l 69 963 l 69 836 z "},"˘":{"ha":586,"x_min":0,"x_max":0,"o":"m 406 1036 b 294 915 403 960 363 915 b 183 1036 226 915 186 960 l 69 1036 b 294 806 69 882 179 806 b 519 1036 410 806 519 882 z "},"˙":{"ha":306,"x_min":0,"x_max":0,"o":"m 250 804 l 250 976 l 69 976 l 69 804 z "},"˚":{"ha":425,"x_min":0,"x_max":0,"o":"m 358 903 b 214 1036 358 988 317 1036 b 69 903 117 1036 69 988 b 214 769 69 814 118 769 b 358 903 317 769 358 817 z m 286 903 b 214 835 286 860 263 835 b 144 903 167 835 144 860 b 214 974 144 949 167 974 b 286 903 263 974 286 949 z "},"˛":{"ha":435,"x_min":0,"x_max":0,"o":"m 368 -162 b 300 -174 351 -168 326 -174 b 211 -128 246 -174 211 -158 b 368 0 211 -89 226 -64 l 308 0 b 69 -206 164 -44 69 -115 b 222 -324 69 -278 122 -324 b 368 -287 297 -324 342 -308 z "},"˜":{"ha":615,"x_min":0,"x_max":0,"o":"m 444 974 b 389 908 436 925 406 908 b 204 975 336 908 289 975 b 69 853 147 975 99 943 l 165 801 b 219 863 182 853 208 863 b 397 800 279 863 326 800 b 549 936 457 800 518 836 z "},"˝":{"ha":551,"x_min":0,"x_max":0,"o":"m 121 790 l 319 989 l 258 1040 l 69 836 z m 496 985 l 433 1036 l 236 836 l 288 790 z "},"̀":{"ha":0,"x_min":0,"x_max":0,"o":"m -254 769 l -211 846 l -499 1014 l -564 900 z "},"́":{"ha":0,"x_min":0,"x_max":0,"o":"m -128 900 l -193 1014 l -481 846 l -437 769 z "},"̂":{"ha":0,"x_min":0,"x_max":0,"o":"m -158 779 l -94 850 l -272 1036 l -419 1036 l -597 850 l -533 779 l -346 943 z "},"̃":{"ha":514,"x_min":0,"x_max":0,"o":"m 367 1036 b 328 999 361 1007 347 999 b 181 1031 282 999 246 1031 b 83 943 138 1031 100 1006 l 151 915 b 190 960 163 944 176 960 b 329 932 224 960 283 932 b 438 1017 374 932 421 950 z m 447 811 l 314 922 l 203 922 l 69 811 l 118 769 l 258 867 l 400 769 z "},"̄":{"ha":0,"x_min":0,"x_max":0,"o":"m -82 836 l -82 963 l -611 963 l -611 836 z "},"̆":{"ha":0,"x_min":0,"x_max":0,"o":"m -236 1036 b -347 915 -239 960 -279 915 b -458 1036 -415 915 -456 960 l -572 1036 b -347 806 -572 882 -462 806 b -122 1036 -232 806 -122 882 z "},"̇":{"ha":0,"x_min":0,"x_max":0,"o":"m -251 804 l -251 976 l -432 976 l -432 804 z "},"̈":{"ha":0,"x_min":0,"x_max":0,"o":"m -390 804 l -390 976 l -571 976 l -571 804 z m -112 804 l -112 976 l -293 976 l -293 804 z "},"̉":{"ha":338,"x_min":0,"x_max":0,"o":"m 188 807 b 269 951 188 872 269 874 b 167 1036 269 1003 231 1036 b 69 1001 140 1036 97 1025 l 94 925 b 151 946 118 942 136 946 b 185 922 175 946 185 936 b 153 881 185 900 172 892 b 118 807 125 864 118 839 z "},"̊":{"ha":0,"x_min":0,"x_max":0,"o":"m -203 903 b -347 1036 -203 988 -244 1036 b -492 903 -444 1036 -492 988 b -347 769 -492 814 -443 769 b -203 903 -244 769 -203 817 z m -275 903 b -347 835 -275 860 -299 835 b -417 903 -394 835 -417 860 b -347 974 -417 949 -394 974 b -275 903 -299 974 -275 949 z "},"̋":{"ha":0,"x_min":0,"x_max":0,"o":"m -469 790 l -271 989 l -332 1040 l -521 836 z m -94 985 l -157 1036 l -354 836 l -303 790 z "},"̌":{"ha":0,"x_min":0,"x_max":0,"o":"m -272 779 l -94 965 l -158 1036 l -346 872 l -533 1036 l -597 965 l -419 779 z "},"̓":{"ha":0,"x_min":0,"x_max":0,"o":"m -275 1031 b -435 842 -399 1019 -435 942 l -435 767 l -275 767 l -275 881 l -364 881 b -275 971 -362 935 -332 967 z "},"̛":{"ha":210,"x_min":0,"x_max":0,"o":"m -43 529 b 78 496 -1 507 40 496 b 210 644 153 496 210 542 b 179 754 210 690 199 733 l 85 754 b 99 671 90 738 99 707 b 24 586 99 628 86 586 b -43 597 7 586 -19 589 z "},"̣":{"ha":306,"x_min":0,"x_max":0,"o":"m 250 -286 l 250 -114 l 69 -114 l 69 -286 z "},"̦":{"ha":0,"x_min":0,"x_max":0,"o":"m -422 -324 b -262 -135 -299 -312 -262 -235 l -262 -60 l -422 -60 l -422 -174 l -333 -174 b -422 -264 -335 -228 -365 -260 z "},"̨":{"ha":0,"x_min":0,"x_max":0,"o":"m -199 -162 b -267 -174 -215 -168 -240 -174 b -356 -128 -321 -174 -356 -158 b -199 0 -356 -89 -340 -64 l -258 0 b -497 -206 -403 -44 -497 -115 b -344 -324 -497 -278 -444 -324 b -199 -287 -269 -324 -225 -308 z "},"̭":{"ha":0,"x_min":0,"x_max":0,"o":"m -160 -315 l -96 -244 l -274 -58 l -421 -58 l -599 -244 l -535 -315 l -347 -151 z "},"΄":{"ha":208,"x_min":0,"x_max":0,"o":"m 144 575 l 200 922 l 38 922 b 32 575 35 807 33 690 z "},"΅":{"ha":0,"x_min":0,"x_max":0,"o":"m -293 756 l -237 1103 l -400 1103 b -406 756 -403 988 -404 871 z m -42 804 l -42 976 l -222 976 l -222 804 z m -436 804 l -436 976 l -617 976 l -617 804 z "},"Ά":{"ha":933,"x_min":0,"x_max":0,"o":"m 599 349 l 364 349 l 482 715 l 483 715 z m 922 0 l 597 922 l 374 922 l 44 0 l 249 0 l 314 190 l 654 190 l 713 0 z m 144 575 l 200 922 l 38 922 b 32 575 35 807 33 690 z "},"·":{"ha":260,"x_min":0,"x_max":0,"o":"m 225 496 l 225 683 l 32 683 l 32 496 z "},"Έ":{"ha":946,"x_min":0,"x_max":0,"o":"m 940 0 l 940 164 l 428 164 l 428 401 l 879 401 l 879 564 l 428 564 l 428 761 l 918 761 l 918 922 l 240 922 l 240 0 z m 144 575 l 200 922 l 38 922 b 32 575 35 807 33 690 z "},"Ή":{"ha":1024,"x_min":0,"x_max":0,"o":"m 988 0 l 988 922 l 793 922 l 793 575 l 433 575 l 433 922 l 240 922 l 240 0 l 433 0 l 433 414 l 793 414 l 793 0 z m 144 575 l 200 922 l 38 922 b 32 575 35 807 33 690 z "},"Ί":{"ha":468,"x_min":0,"x_max":0,"o":"m 433 0 l 433 922 l 240 922 l 240 0 z m 144 575 l 200 922 l 38 922 b 32 575 35 807 33 690 z "},"Ό":{"ha":1078,"x_min":0,"x_max":0,"o":"m 611 133 b 358 449 451 133 358 231 b 611 782 358 667 449 782 b 861 449 772 782 861 667 b 611 133 861 231 750 133 z m 611 -32 b 1051 449 894 -32 1051 132 b 611 953 1051 765 894 953 b 168 453 328 953 168 765 b 611 -32 168 142 328 -32 z m 144 575 l 200 922 l 38 922 b 32 575 35 807 33 690 z "},"Ύ":{"ha":1042,"x_min":0,"x_max":0,"o":"m 722 0 l 722 346 l 1031 922 l 808 922 l 629 547 l 435 922 l 210 922 l 529 349 l 529 0 z m 144 575 l 200 922 l 38 922 b 32 575 35 807 33 690 z "},"Ώ":{"ha":1065,"x_min":0,"x_max":0,"o":"m 1025 0 l 1025 153 l 888 153 b 1042 547 971 217 1042 365 b 610 953 1042 799 907 953 b 178 547 314 953 178 799 b 332 153 178 365 249 217 l 194 153 l 194 0 l 526 0 l 526 139 b 388 546 450 222 388 349 b 610 799 388 719 464 799 b 833 546 756 799 833 719 b 693 139 833 349 782 224 l 693 0 z m 144 575 l 200 922 l 38 922 b 32 575 35 807 33 690 z "},"ΐ":{"ha":551,"x_min":0,"x_max":0,"o":"m 172 199 b 371 0 172 65 239 0 l 460 0 l 460 142 l 419 142 b 344 221 372 142 344 168 l 344 683 l 172 683 z m 308 756 l 364 1103 l 201 1103 b 196 756 199 988 197 871 z m 561 804 l 561 976 l 381 976 l 381 804 z m 167 804 l 167 976 l -14 976 l -14 804 z "},"Γ":{"ha":696,"x_min":0,"x_max":0,"o":"m 31 922 l 31 0 l 219 0 l 219 765 l 679 765 l 679 922 z "},"Δ":{"ha":893,"x_min":0,"x_max":0,"o":"m 882 0 l 557 922 l 333 922 l 4 0 z m 442 715 l 443 715 l 621 158 l 260 158 z "},"Θ":{"ha":931,"x_min":0,"x_max":0,"o":"m 461 131 b 199 451 300 131 199 229 b 467 786 199 668 296 786 b 732 456 638 786 732 667 b 461 131 732 221 615 131 z m 469 -32 b 906 449 749 -32 906 132 b 467 953 906 765 750 953 b 25 453 183 953 25 765 b 469 -32 25 142 182 -32 z m 278 403 l 654 403 l 654 543 l 278 543 z "},"Λ":{"ha":824,"x_min":0,"x_max":0,"o":"m 324 922 l 11 0 l 211 0 l 411 647 l 613 0 l 818 0 l 506 922 z "},"Ξ":{"ha":739,"x_min":0,"x_max":0,"o":"m 674 403 l 674 563 l 65 563 l 65 403 z m 713 765 l 713 922 l 26 922 l 26 765 z m 733 0 l 733 160 l 4 160 l 4 0 z "},"Π":{"ha":815,"x_min":0,"x_max":0,"o":"m 782 0 l 782 922 l 36 922 l 36 0 l 225 0 l 225 765 l 592 765 l 592 0 z "},"Σ":{"ha":739,"x_min":0,"x_max":0,"o":"m 263 465 l 10 160 l 10 0 l 731 0 l 731 160 l 235 160 l 483 468 l 236 765 l 711 765 l 711 922 l 8 922 l 8 775 z "},"Φ":{"ha":989,"x_min":0,"x_max":0,"o":"m 586 0 l 586 129 b 969 460 833 150 969 263 b 586 800 969 657 832 776 l 586 922 l 404 922 l 404 800 b 18 460 156 778 18 657 b 404 131 18 264 154 151 l 404 0 z m 197 461 b 404 678 197 588 278 657 l 404 249 b 197 461 282 268 197 331 z m 790 460 b 586 249 790 329 706 268 l 586 678 b 790 460 711 656 790 586 z "},"Ψ":{"ha":914,"x_min":0,"x_max":0,"o":"m 546 0 l 546 229 b 886 544 796 249 886 354 l 886 922 l 697 922 l 697 561 b 546 381 697 463 657 400 l 546 922 l 367 922 l 367 381 b 214 560 256 400 214 461 l 214 922 l 28 922 l 28 542 b 367 229 28 351 111 247 l 367 0 z "},"Ω":{"ha":904,"x_min":0,"x_max":0,"o":"m 864 0 l 864 153 l 726 153 b 881 547 810 217 881 365 b 449 953 881 799 746 953 b 17 547 153 953 17 799 b 171 153 17 365 88 217 l 33 153 l 33 0 l 365 0 l 365 139 b 226 546 289 222 226 349 b 449 799 226 719 303 799 b 672 546 594 799 672 719 b 532 139 672 349 621 224 l 532 0 z "},"ά":{"ha":810,"x_min":0,"x_max":0,"o":"m 526 113 b 711 0 550 38 611 0 l 800 0 l 800 142 l 758 142 b 685 218 711 142 685 165 l 685 683 l 514 683 l 514 569 b 315 701 476 664 400 701 b 26 333 153 701 26 564 b 310 -18 26 126 128 -18 b 526 113 426 -18 485 40 z m 357 132 b 204 343 265 132 204 192 b 358 557 204 493 265 557 b 518 343 451 557 518 492 b 357 132 518 207 461 132 z m 438 756 l 493 1103 l 331 1103 b 325 756 328 988 326 871 z "},"έ":{"ha":651,"x_min":0,"x_max":0,"o":"m 379 301 l 379 418 l 321 418 b 206 501 254 418 206 442 b 325 581 206 556 246 581 b 456 471 419 581 456 546 l 633 471 b 319 701 621 599 539 701 b 36 515 129 701 36 624 b 158 367 36 439 83 386 b 14 199 81 351 14 297 b 319 -18 14 65 132 -18 b 639 228 540 -18 629 97 l 461 228 b 321 108 457 151 421 108 b 190 210 244 108 190 133 b 317 301 190 276 231 301 z m 381 756 l 436 1103 l 274 1103 b 268 756 271 988 269 871 z "},"ή":{"ha":699,"x_min":0,"x_max":0,"o":"m 656 -324 l 656 474 b 429 701 656 622 560 701 b 208 583 319 701 250 660 l 208 683 l 36 683 l 36 0 l 217 0 l 217 392 b 357 549 217 496 263 549 b 474 414 443 549 474 519 l 474 -324 z m 408 756 l 464 1103 l 301 1103 b 296 756 299 988 297 871 z "},"ί":{"ha":338,"x_min":0,"x_max":0,"o":"m 40 199 b 239 0 40 65 107 0 l 328 0 l 328 142 l 288 142 b 213 221 240 142 213 168 l 213 683 l 40 683 z m 172 756 l 228 1103 l 65 1103 b 60 756 63 988 61 871 z "},"ΰ":{"ha":690,"x_min":0,"x_max":0,"o":"m 388 756 l 443 1103 l 281 1103 b 275 756 278 988 276 871 z m 346 -18 b 651 226 543 -18 651 47 l 651 683 l 479 683 l 479 254 b 347 126 479 164 443 126 b 217 254 253 126 217 164 l 217 683 l 40 683 l 40 226 b 346 -18 40 47 147 -18 z m 639 804 l 639 976 l 458 976 l 458 804 z m 244 804 l 244 976 l 64 976 l 64 804 z "},"α":{"ha":810,"x_min":0,"x_max":0,"o":"m 526 113 b 711 0 550 38 611 0 l 800 0 l 800 142 l 758 142 b 685 218 711 142 685 165 l 685 683 l 514 683 l 514 569 b 315 701 476 664 400 701 b 26 333 153 701 26 564 b 310 -18 26 126 128 -18 b 526 113 426 -18 485 40 z m 357 132 b 204 343 265 132 204 192 b 358 557 204 493 265 557 b 518 343 451 557 518 492 b 357 132 518 207 461 132 z "},"β":{"ha":708,"x_min":0,"x_max":0,"o":"m 390 -17 b 693 279 571 -17 693 96 b 522 529 693 397 643 493 b 640 713 579 550 640 596 b 343 943 640 843 564 943 b 40 692 118 943 40 839 l 40 -324 l 214 -324 l 214 25 b 390 -17 260 0 319 -17 z m 214 683 b 340 803 214 765 267 803 b 463 681 410 803 463 768 b 329 565 463 618 435 565 l 318 565 l 318 454 l 331 454 b 519 288 440 454 519 408 b 358 128 519 194 472 128 b 214 172 299 128 250 146 z "},"δ":{"ha":749,"x_min":0,"x_max":0,"o":"m 25 333 b 375 -18 25 129 156 -18 b 721 339 589 -18 721 122 b 564 614 721 489 658 564 b 335 690 500 647 453 660 b 251 760 296 700 251 718 b 400 818 251 801 297 818 b 601 788 478 818 554 808 l 601 921 b 392 943 557 933 471 943 b 97 761 158 943 97 857 b 179 614 97 689 131 646 b 25 333 89 564 25 476 z m 483 474 b 543 328 528 438 543 392 b 375 129 543 201 485 129 b 200 338 268 129 200 199 b 317 551 200 451 244 518 b 483 474 379 529 442 507 z "},"ε":{"ha":651,"x_min":0,"x_max":0,"o":"m 379 301 l 379 418 l 321 418 b 206 501 254 418 206 442 b 325 581 206 556 246 581 b 456 471 419 581 456 546 l 633 471 b 319 701 621 599 539 701 b 36 515 129 701 36 624 b 158 367 36 439 83 386 b 14 199 81 351 14 297 b 319 -18 14 65 132 -18 b 639 228 540 -18 629 97 l 461 228 b 321 108 457 151 421 108 b 190 210 244 108 190 133 b 317 301 190 276 231 301 z "},"ζ":{"ha":668,"x_min":0,"x_max":0,"o":"m 615 790 l 615 933 l 81 933 l 81 794 l 404 794 l 228 642 b 28 285 93 525 28 417 b 296 0 28 122 126 0 l 338 0 b 400 -64 388 0 400 -18 l 400 -324 l 576 -324 l 576 -17 b 400 144 576 97 522 144 l 365 144 b 203 313 263 144 203 186 b 346 554 203 383 221 444 z "},"η":{"ha":699,"x_min":0,"x_max":0,"o":"m 656 -324 l 656 474 b 429 701 656 622 560 701 b 208 583 319 701 250 660 l 208 683 l 36 683 l 36 0 l 217 0 l 217 392 b 357 549 217 496 263 549 b 474 414 443 549 474 519 l 474 -324 z "},"θ":{"ha":761,"x_min":0,"x_max":0,"o":"m 382 -21 b 728 465 633 -21 728 135 b 382 949 728 794 635 949 b 32 464 128 949 32 794 b 382 -21 32 133 129 -21 z m 382 128 b 211 393 265 128 219 200 l 554 393 b 382 128 544 201 494 128 z m 382 799 b 554 538 494 799 544 728 l 211 538 b 382 799 219 732 265 799 z "},"ι":{"ha":338,"x_min":0,"x_max":0,"o":"m 40 199 b 239 0 40 65 107 0 l 328 0 l 328 142 l 288 142 b 213 221 240 142 213 168 l 213 683 l 40 683 z "},"κ":{"ha":671,"x_min":0,"x_max":0,"o":"m 658 0 l 435 432 l 664 683 l 443 683 l 218 424 l 218 683 l 36 683 l 36 0 l 218 0 l 218 217 l 306 307 l 456 0 z "},"λ":{"ha":742,"x_min":0,"x_max":0,"o":"m 111 933 l 111 792 l 149 792 b 260 715 218 792 240 774 l 278 660 l 8 0 l 194 0 l 349 442 l 440 161 b 633 0 476 51 532 0 l 731 0 l 731 142 l 714 142 b 614 218 657 142 633 163 l 417 772 b 168 933 378 883 319 933 z "},"μ":{"ha":694,"x_min":0,"x_max":0,"o":"m 651 0 l 651 683 l 472 683 l 472 289 b 332 133 472 199 424 133 b 217 261 256 133 217 175 l 217 683 l 36 683 l 36 -324 l 217 -324 l 217 -12 b 268 -18 232 -15 250 -18 b 481 96 363 -18 433 18 l 481 0 z "},"ξ":{"ha":668,"x_min":0,"x_max":0,"o":"m 392 583 l 335 583 b 222 704 253 583 222 635 b 347 819 222 783 261 819 b 474 710 433 819 474 783 l 650 710 b 339 940 639 838 556 940 b 54 717 142 940 54 856 b 172 533 54 621 96 564 b 28 299 96 514 28 447 b 294 0 28 114 132 0 l 338 0 b 400 -64 386 0 400 -17 l 400 -324 l 576 -324 l 576 -15 b 400 143 576 99 522 143 l 361 143 b 201 318 269 143 201 183 b 331 467 201 418 239 467 l 392 467 z "},"π":{"ha":800,"x_min":0,"x_max":0,"o":"m 494 199 b 694 0 494 65 561 0 l 783 0 l 783 142 l 742 142 b 668 221 692 142 668 167 l 668 543 l 789 543 l 789 683 l 10 683 l 10 543 l 111 543 l 111 0 l 286 0 l 286 543 l 494 543 z "},"ρ":{"ha":726,"x_min":0,"x_max":0,"o":"m 40 -324 l 213 -324 l 213 110 b 419 -18 250 13 338 -18 b 699 338 597 -18 699 126 b 372 701 699 565 581 701 b 40 343 189 701 40 597 z m 207 344 b 367 557 207 485 269 557 b 519 343 460 557 519 492 b 368 132 519 193 460 132 b 207 344 265 132 207 208 z "},"ς":{"ha":668,"x_min":0,"x_max":0,"o":"m 338 0 b 400 -64 386 0 400 -17 l 400 -324 l 576 -324 l 576 -15 b 394 143 576 97 522 143 l 374 143 b 201 344 249 143 201 203 b 342 554 201 504 261 554 b 476 439 417 554 467 511 l 654 439 b 342 701 644 600 525 701 b 28 344 156 701 28 594 b 294 0 28 111 139 0 z "},"σ":{"ha":806,"x_min":0,"x_max":0,"o":"m 794 558 l 794 683 l 375 683 b 25 335 158 683 25 546 b 369 -18 25 126 156 -18 b 710 324 582 -18 710 125 b 607 558 710 425 675 510 z m 375 126 b 207 333 263 126 207 197 b 378 542 207 472 267 542 b 543 333 488 542 543 471 b 375 126 543 197 488 126 z "},"τ":{"ha":665,"x_min":0,"x_max":0,"o":"m 654 558 l 654 683 l 10 683 l 10 558 l 240 558 l 240 199 b 440 0 240 67 307 0 l 529 0 l 529 142 l 488 142 b 414 222 438 142 414 168 l 414 558 z "},"υ":{"ha":690,"x_min":0,"x_max":0,"o":"m 346 -18 b 651 226 543 -18 651 47 l 651 683 l 479 683 l 479 254 b 347 126 479 164 443 126 b 217 254 253 126 217 164 l 217 683 l 40 683 l 40 226 b 346 -18 40 47 147 -18 z "},"φ":{"ha":999,"x_min":0,"x_max":0,"o":"m 585 -324 l 585 -12 b 975 342 849 7 975 143 b 585 696 975 540 849 675 l 585 933 l 413 933 l 413 696 b 22 342 149 675 22 540 b 413 -12 22 144 147 7 l 413 -324 z m 200 343 b 413 553 200 468 263 539 l 413 128 b 200 343 261 143 200 218 z m 799 343 b 585 128 799 218 735 143 l 585 553 b 799 343 735 539 799 468 z "},"χ":{"ha":689,"x_min":0,"x_max":0,"o":"m 681 -324 l 446 190 l 674 683 l 483 683 l 347 344 l 214 683 l 15 683 l 239 190 l 8 -324 l 203 -324 l 340 26 l 481 -324 z "},"ψ":{"ha":914,"x_min":0,"x_max":0,"o":"m 371 122 b 213 247 271 122 213 163 l 213 683 l 40 683 l 40 233 b 371 -15 40 71 124 -15 l 371 -324 l 542 -324 l 542 -15 b 872 233 789 -15 872 71 l 872 683 l 700 683 l 700 247 b 542 122 700 163 658 125 l 542 933 l 371 933 z "},"ω":{"ha":978,"x_min":0,"x_max":0,"o":"m 553 478 l 424 478 l 424 353 b 317 129 424 194 390 129 b 206 354 242 129 206 196 b 285 683 206 503 238 583 l 107 683 b 25 358 57 610 25 501 b 289 -18 25 122 113 -18 b 488 113 389 -18 450 28 b 688 -18 521 35 581 -18 b 951 360 864 -18 951 125 b 869 683 951 500 919 610 l 692 683 b 771 356 739 583 771 503 b 660 129 771 196 733 129 b 553 353 586 129 553 196 z "},"ϊ":{"ha":418,"x_min":0,"x_max":0,"o":"m 100 199 b 299 0 100 65 167 0 l 388 0 l 388 142 l 347 142 b 272 221 300 142 272 168 l 272 683 l 100 683 z m 419 804 l 419 976 l 239 976 l 239 804 z m 171 804 l 171 976 l -10 976 l -10 804 z "},"ϋ":{"ha":690,"x_min":0,"x_max":0,"o":"m 346 -18 b 651 226 543 -18 651 47 l 651 683 l 479 683 l 479 254 b 347 126 479 164 443 126 b 217 254 253 126 217 164 l 217 683 l 40 683 l 40 226 b 346 -18 40 47 147 -18 z m 303 804 l 303 976 l 122 976 l 122 804 z m 581 804 l 581 976 l 400 976 l 400 804 z "},"ό":{"ha":749,"x_min":0,"x_max":0,"o":"m 372 133 b 207 342 263 133 207 203 b 372 549 207 481 263 549 b 538 342 482 549 538 481 b 372 133 538 203 482 133 z m 372 -18 b 719 342 585 -18 719 125 b 372 701 719 560 586 701 b 21 342 156 701 21 558 b 372 -18 21 129 151 -18 z m 426 756 l 482 1103 l 319 1103 b 314 756 317 988 315 871 z "},"ύ":{"ha":690,"x_min":0,"x_max":0,"o":"m 397 756 l 453 1103 l 290 1103 b 285 756 288 988 286 871 z m 346 -18 b 651 226 543 -18 651 47 l 651 683 l 479 683 l 479 254 b 347 126 479 164 443 126 b 217 254 253 126 217 164 l 217 683 l 40 683 l 40 226 b 346 -18 40 47 147 -18 z "},"ώ":{"ha":978,"x_min":0,"x_max":0,"o":"m 553 478 l 424 478 l 424 353 b 317 129 424 194 390 129 b 206 354 242 129 206 196 b 285 683 206 503 238 583 l 107 683 b 25 358 57 610 25 501 b 289 -18 25 122 113 -18 b 488 113 389 -18 450 28 b 688 -18 521 35 581 -18 b 951 360 864 -18 951 125 b 869 683 951 500 919 610 l 692 683 b 771 356 739 583 771 503 b 660 129 771 196 733 129 b 553 353 586 129 553 196 z m 540 756 l 596 1103 l 433 1103 b 428 756 431 988 429 871 z "},"Ђ":{"ha":1047,"x_min":0,"x_max":0,"o":"m 826 18 b 646 -169 826 -107 758 -169 b 479 -60 565 -169 492 -137 l 301 -60 b 644 -324 326 -243 451 -324 b 1017 18 878 -324 1017 -204 l 1017 300 b 728 599 1017 542 903 599 b 479 556 633 599 544 582 l 479 765 l 782 765 l 782 922 l 11 922 l 11 765 l 290 765 l 290 14 l 479 14 l 479 406 b 665 442 529 429 596 442 b 826 222 794 442 826 399 z "},"Ѓ":{"ha":696,"x_min":0,"x_max":0,"o":"m 581 1139 l 515 1253 l 228 1085 l 271 1008 z m 31 922 l 31 0 l 219 0 l 219 765 l 679 765 l 679 922 z "},"Є":{"ha":851,"x_min":0,"x_max":0,"o":"m 651 317 b 442 136 625 201 556 136 b 218 403 306 136 232 233 l 528 403 l 528 561 l 224 561 b 451 786 246 703 319 786 b 651 619 543 786 625 724 l 844 619 b 450 953 826 806 681 953 b 21 450 186 953 21 763 b 447 -32 21 133 206 -32 b 844 317 661 -32 806 107 z "},"Љ":{"ha":1353,"x_min":0,"x_max":0,"o":"m 836 582 l 836 922 l 239 922 l 219 563 b 33 164 200 207 154 164 l 11 164 l 11 0 l 44 0 b 385 547 282 0 358 78 l 397 765 l 647 765 l 647 0 l 1050 0 b 1349 293 1235 0 1349 106 b 1024 582 1349 492 1221 582 z m 1036 432 b 1182 294 1128 432 1182 375 b 1036 156 1182 213 1125 156 l 836 156 l 836 432 z "},"Њ":{"ha":1185,"x_min":0,"x_max":0,"o":"m 701 582 l 701 922 l 513 922 l 513 588 l 224 588 l 224 922 l 36 922 l 36 0 l 224 0 l 224 431 l 513 431 l 513 0 l 881 0 b 1179 292 1065 0 1179 106 b 881 582 1179 478 1065 582 z m 868 432 b 1014 294 958 432 1014 375 b 868 156 1014 213 956 156 l 701 156 l 701 432 z "},"Ћ":{"ha":1047,"x_min":0,"x_max":0,"o":"m 11 765 l 290 765 l 290 0 l 479 0 l 479 406 b 664 442 529 429 597 442 b 826 296 763 442 826 414 l 826 0 l 1017 0 l 1017 300 b 728 599 1017 542 903 599 b 479 556 633 599 544 582 l 479 765 l 782 765 l 782 922 l 11 922 z "},"Ќ":{"ha":839,"x_min":0,"x_max":0,"o":"m 833 0 l 461 558 l 825 922 l 575 922 l 222 547 l 222 922 l 32 922 l 32 0 l 222 0 l 222 314 l 325 415 l 599 0 z m 639 1139 l 574 1253 l 286 1085 l 329 1008 z "},"Ѝ":{"ha":815,"x_min":0,"x_max":0,"o":"m 500 1008 l 543 1085 l 256 1253 l 190 1139 z m 217 0 l 600 628 l 600 0 l 782 0 l 782 922 l 581 922 l 219 321 l 219 922 l 36 922 l 36 0 z "},"Ў":{"ha":799,"x_min":0,"x_max":0,"o":"m 511 1275 b 400 1154 508 1199 468 1154 b 289 1275 332 1154 292 1199 l 175 1275 b 400 1044 175 1121 285 1044 b 625 1275 515 1044 625 1121 z m 761 304 l 761 922 l 574 922 l 574 683 b 393 503 574 574 501 503 b 226 685 299 503 226 557 l 226 922 l 36 922 l 36 683 b 324 344 36 447 151 344 b 574 464 436 344 532 388 l 574 304 b 394 121 574 178 504 121 b 218 297 288 121 219 176 l 47 297 b 390 -32 49 63 174 -32 b 761 304 625 -32 761 81 z "},"Џ":{"ha":801,"x_min":0,"x_max":0,"o":"m 476 -235 l 476 0 l 782 0 l 782 922 l 592 922 l 592 164 l 225 164 l 225 922 l 36 922 l 36 0 l 339 0 l 339 -235 z "},"Б":{"ha":742,"x_min":0,"x_max":0,"o":"m 224 582 l 224 757 l 574 757 l 574 922 l 36 922 l 36 0 l 438 0 b 736 292 622 0 736 106 b 438 582 736 478 622 582 z m 425 432 b 571 294 517 432 571 375 b 425 156 571 213 514 156 l 224 156 l 224 432 z "},"Д":{"ha":990,"x_min":0,"x_max":0,"o":"m 154 -235 l 154 0 l 836 0 l 836 -235 l 975 -235 l 975 164 l 863 164 l 863 922 l 265 922 l 246 563 b 75 164 228 219 181 164 l 15 164 l 15 -235 z m 674 765 l 674 164 l 339 164 b 414 563 378 239 404 368 l 424 765 z "},"Ж":{"ha":1233,"x_min":0,"x_max":0,"o":"m 1222 0 l 835 469 l 1206 922 l 982 922 l 707 581 l 707 922 l 526 922 l 526 581 l 251 922 l 28 922 l 397 469 l 10 0 l 240 0 l 526 379 l 526 0 l 707 0 l 707 379 l 993 0 z "},"З":{"ha":783,"x_min":0,"x_max":0,"o":"m 406 404 b 589 275 522 404 589 375 b 397 128 589 174 518 128 b 194 299 257 128 201 188 l 8 299 b 392 -32 8 111 119 -32 b 779 264 635 -32 779 82 b 597 496 779 396 703 476 b 750 700 696 522 750 597 b 394 953 750 847 636 953 b 25 642 125 953 25 821 l 207 642 b 393 796 207 750 264 796 b 564 688 511 796 564 757 b 399 564 564 614 504 564 l 313 564 l 313 404 z "},"И":{"ha":815,"x_min":0,"x_max":0,"o":"m 217 0 l 600 628 l 600 0 l 782 0 l 782 922 l 581 922 l 219 321 l 219 922 l 36 922 l 36 0 z "},"Й":{"ha":815,"x_min":0,"x_max":0,"o":"m 519 1275 b 408 1154 517 1199 476 1154 b 297 1275 340 1154 300 1199 l 183 1275 b 408 1044 183 1121 293 1044 b 633 1275 524 1044 633 1121 z m 217 0 l 600 628 l 600 0 l 782 0 l 782 922 l 581 922 l 219 321 l 219 922 l 36 922 l 36 0 z "},"Л":{"ha":872,"x_min":0,"x_max":0,"o":"m 838 0 l 838 922 l 240 922 l 219 563 b 33 164 199 210 160 164 l 11 164 l 11 0 l 46 0 b 388 563 279 0 361 76 l 399 765 l 647 765 l 647 0 z "},"У":{"ha":799,"x_min":0,"x_max":0,"o":"m 761 304 l 761 922 l 574 922 l 574 683 b 393 503 574 574 501 503 b 226 685 299 503 226 557 l 226 922 l 36 922 l 36 683 b 324 344 36 447 151 344 b 574 464 436 344 532 388 l 574 304 b 394 121 574 178 504 121 b 218 297 288 121 219 176 l 47 297 b 390 -32 49 63 174 -32 b 761 304 625 -32 761 81 z "},"Ц":{"ha":908,"x_min":0,"x_max":0,"o":"m 893 -235 l 893 164 l 782 164 l 782 922 l 592 922 l 592 164 l 225 164 l 225 922 l 36 922 l 36 0 l 756 0 l 756 -235 z "},"Ч":{"ha":792,"x_min":0,"x_max":0,"o":"m 756 0 l 756 922 l 568 922 l 568 517 b 382 479 518 492 449 479 b 221 625 281 479 221 508 l 221 922 l 31 922 l 31 621 b 319 322 31 381 144 322 b 568 367 414 322 503 339 l 568 0 z "},"Ш":{"ha":1139,"x_min":0,"x_max":0,"o":"m 1101 0 l 1101 922 l 914 922 l 914 164 l 664 164 l 664 922 l 475 922 l 475 164 l 225 164 l 225 922 l 36 922 l 36 0 z "},"Щ":{"ha":1229,"x_min":0,"x_max":0,"o":"m 1215 -235 l 1215 164 l 1101 164 l 1101 922 l 914 922 l 914 164 l 664 164 l 664 922 l 475 922 l 475 164 l 225 164 l 225 922 l 36 922 l 36 0 l 1076 0 l 1076 -235 z "},"Ъ":{"ha":997,"x_min":0,"x_max":0,"o":"m 479 582 l 479 922 l 11 922 l 11 765 l 292 765 l 292 0 l 693 0 b 992 293 876 0 992 104 b 667 582 992 492 865 582 z m 681 432 b 826 294 772 432 826 375 b 681 156 826 213 769 156 l 479 156 l 479 432 z "},"Ы":{"ha":1001,"x_min":0,"x_max":0,"o":"m 967 0 l 967 922 l 774 922 l 774 0 z m 425 432 b 571 294 517 432 571 375 b 425 156 571 213 514 156 l 224 156 l 224 432 z m 224 582 l 224 922 l 36 922 l 36 0 l 438 0 b 736 292 622 0 736 106 b 438 582 736 478 622 582 z "},"Ь":{"ha":742,"x_min":0,"x_max":0,"o":"m 425 432 b 571 294 517 432 571 375 b 425 156 571 213 514 156 l 224 156 l 224 432 z m 224 582 l 224 922 l 36 922 l 36 0 l 438 0 b 736 292 622 0 736 106 b 438 582 736 478 622 582 z "},"Э":{"ha":851,"x_min":0,"x_max":0,"o":"m 7 317 b 404 -32 46 107 190 -32 b 831 450 646 -32 831 133 b 401 953 831 763 665 953 b 7 619 171 953 25 806 l 200 619 b 400 786 226 724 308 786 b 628 561 532 786 606 703 l 324 561 l 324 403 l 633 403 b 410 136 619 233 546 136 b 200 317 296 136 226 201 z "},"Ю":{"ha":1192,"x_min":0,"x_max":0,"o":"m 225 0 l 225 394 l 282 394 b 724 -32 301 119 458 -32 b 1164 449 1007 -32 1164 132 b 724 953 1164 765 1007 953 b 286 546 469 953 315 801 l 225 546 l 225 922 l 32 922 l 32 0 z m 724 133 b 471 449 564 133 471 231 b 724 782 471 667 561 782 b 974 449 885 782 974 667 b 724 133 974 231 863 133 z "},"Я":{"ha":803,"x_min":0,"x_max":0,"o":"m 578 361 l 578 0 l 765 0 l 765 922 l 321 922 b 22 642 136 922 22 822 b 244 368 22 488 104 392 l 10 0 l 229 0 l 442 361 z m 339 507 b 194 638 249 507 194 558 b 339 765 194 717 249 765 l 578 765 l 578 507 z "},"б":{"ha":749,"x_min":0,"x_max":0,"o":"m 374 -18 b 721 339 588 -18 721 117 b 413 676 721 544 607 676 b 181 574 331 676 235 653 b 328 786 181 699 226 786 l 417 786 b 649 1029 551 786 633 888 l 542 1029 b 426 931 529 943 489 931 l 349 931 b 25 476 115 931 25 810 l 25 361 b 374 -18 25 125 154 -18 z m 371 129 b 200 340 257 129 200 201 b 372 551 200 482 258 551 b 543 342 485 551 543 482 b 371 129 543 201 486 129 z "},"в":{"ha":700,"x_min":0,"x_max":0,"o":"m 417 0 b 688 196 611 0 688 81 b 556 369 688 303 622 354 b 667 518 621 388 667 438 b 447 683 667 608 610 683 l 40 683 l 40 0 z m 213 128 l 213 313 l 401 313 b 508 221 471 313 508 281 b 390 128 508 161 471 128 z m 213 407 l 213 561 l 390 561 b 489 483 457 561 489 533 b 394 407 489 432 454 407 z "},"г":{"ha":486,"x_min":0,"x_max":0,"o":"m 218 0 l 218 539 l 476 539 l 476 683 l 42 683 l 42 0 z "},"д":{"ha":817,"x_min":0,"x_max":0,"o":"m 146 -207 l 146 0 l 671 0 l 671 -207 l 801 -207 l 801 144 l 696 144 l 696 683 l 203 683 l 188 426 b 44 144 174 183 136 144 l 15 144 l 15 -207 z m 519 539 l 519 144 l 271 144 b 325 417 301 199 319 324 l 332 539 z "},"ж":{"ha":951,"x_min":0,"x_max":0,"o":"m 558 683 l 392 683 l 392 422 l 224 683 l 18 683 l 265 349 l 8 0 l 221 0 l 392 256 l 392 0 l 558 0 l 558 256 l 729 0 l 942 0 l 685 349 l 932 683 l 726 683 l 558 422 z "},"з":{"ha":651,"x_min":0,"x_max":0,"o":"m 335 301 b 461 210 421 301 461 276 b 331 108 461 133 407 108 b 190 228 231 108 194 151 l 13 228 b 332 -18 22 97 111 -18 b 638 199 519 -18 638 65 b 493 367 638 297 571 351 b 615 515 568 386 615 439 b 332 701 615 624 522 701 b 18 471 113 701 31 599 l 196 471 b 326 581 196 546 232 581 b 446 501 406 581 446 556 b 331 418 446 442 397 418 l 272 418 l 272 301 z "},"и":{"ha":708,"x_min":0,"x_max":0,"o":"m 214 0 l 490 464 l 490 0 l 667 0 l 667 683 l 479 683 l 218 239 l 218 683 l 40 683 l 40 0 z "},"й":{"ha":708,"x_min":0,"x_max":0,"o":"m 467 1036 b 356 915 464 960 424 915 b 244 1036 288 915 247 960 l 131 1036 b 356 806 131 882 240 806 b 581 1036 471 806 581 882 z m 214 0 l 490 464 l 490 0 l 667 0 l 667 683 l 479 683 l 218 239 l 218 683 l 40 683 l 40 0 z "},"л":{"ha":736,"x_min":0,"x_max":0,"o":"m 696 0 l 696 683 l 203 683 l 188 426 b 33 144 172 175 133 144 l 15 144 l 15 0 l 43 0 b 325 417 238 0 304 60 l 332 539 l 519 539 l 519 0 z "},"м":{"ha":869,"x_min":0,"x_max":0,"o":"m 829 0 l 829 683 l 583 683 l 438 197 l 292 683 l 40 683 l 40 0 l 201 0 l 201 471 l 347 0 l 521 0 l 668 474 l 668 0 z "},"н":{"ha":708,"x_min":0,"x_max":0,"o":"m 217 0 l 217 279 l 492 279 l 492 0 l 668 0 l 668 683 l 492 683 l 492 422 l 217 422 l 217 683 l 40 683 l 40 0 z "},"п":{"ha":708,"x_min":0,"x_max":0,"o":"m 217 0 l 217 539 l 492 539 l 492 0 l 668 0 l 668 683 l 40 683 l 40 0 z "},"т":{"ha":665,"x_min":0,"x_max":0,"o":"m 421 0 l 421 539 l 654 539 l 654 683 l 10 683 l 10 539 l 244 539 l 244 0 z "},"ц":{"ha":789,"x_min":0,"x_max":0,"o":"m 40 0 l 643 0 l 643 -207 l 774 -207 l 774 143 l 667 143 l 667 683 l 490 683 l 490 143 l 217 143 l 217 683 l 40 683 z "},"ч":{"ha":697,"x_min":0,"x_max":0,"o":"m 656 0 l 656 683 l 479 683 l 479 396 b 331 368 440 378 386 368 b 206 476 251 368 206 390 l 206 683 l 29 683 l 29 474 b 271 235 29 281 124 235 b 479 269 350 235 425 249 l 479 0 z "},"ш":{"ha":1038,"x_min":0,"x_max":0,"o":"m 997 0 l 997 683 l 821 683 l 821 144 l 604 144 l 604 683 l 433 683 l 433 144 l 217 144 l 217 683 l 40 683 l 40 0 z "},"щ":{"ha":1118,"x_min":0,"x_max":0,"o":"m 1103 -207 l 1103 144 l 997 144 l 997 683 l 821 683 l 821 144 l 604 144 l 604 683 l 433 683 l 433 144 l 217 144 l 217 683 l 40 683 l 40 0 l 972 0 l 972 -207 z "},"ъ":{"ha":940,"x_min":0,"x_max":0,"o":"m 443 683 l 10 683 l 10 539 l 267 539 l 267 0 l 650 0 b 921 235 815 0 921 69 b 644 465 921 399 814 465 l 443 465 z m 660 336 b 765 235 725 336 765 301 b 660 135 765 169 725 135 l 443 135 l 443 336 z "},"ы":{"ha":979,"x_min":0,"x_max":0,"o":"m 40 683 l 40 0 l 444 0 b 694 235 600 0 694 83 b 444 465 694 383 600 465 l 217 465 l 217 683 z m 433 336 b 539 235 500 336 539 301 b 433 135 539 169 500 135 l 217 135 l 217 336 z m 933 0 l 933 683 l 753 683 l 753 0 z "},"ь":{"ha":713,"x_min":0,"x_max":0,"o":"m 40 683 l 40 0 l 444 0 b 694 235 600 0 694 83 b 444 465 694 383 600 465 l 217 465 l 217 683 z m 433 336 b 539 235 500 336 539 301 b 433 135 539 169 500 135 l 217 135 l 217 336 z "},"э":{"ha":678,"x_min":0,"x_max":0,"o":"m 475 299 b 329 121 467 165 401 121 b 192 222 258 121 192 164 l 14 222 b 329 -18 40 51 185 -18 b 650 344 525 -18 650 108 b 331 701 650 597 508 701 b 15 461 199 701 43 643 l 194 461 b 328 561 203 526 251 561 b 474 401 429 561 461 500 l 267 401 l 267 299 z "},"ю":{"ha":1015,"x_min":0,"x_max":0,"o":"m 221 0 l 221 276 l 292 276 b 638 -18 317 99 443 -18 b 986 343 853 -18 986 125 b 638 701 986 560 853 701 b 293 413 446 701 319 589 l 221 413 l 221 683 l 40 683 l 40 0 z m 639 133 b 474 342 529 133 474 203 b 639 549 474 481 529 549 b 804 342 749 549 804 481 b 639 133 804 203 749 133 z "},"я":{"ha":685,"x_min":0,"x_max":0,"o":"m 644 0 l 644 683 l 272 683 b 24 454 118 683 24 603 b 179 244 24 339 81 271 l 8 0 l 194 0 l 343 231 l 468 231 l 468 0 z m 285 364 b 178 457 218 364 178 396 b 285 549 178 517 218 549 l 468 549 l 468 364 z "},"ђ":{"ha":699,"x_min":0,"x_max":0,"o":"m 656 483 b 422 701 656 619 556 701 b 217 594 325 701 244 657 l 217 747 l 446 747 l 446 874 l 217 874 l 217 933 l 36 933 l 36 874 l 0 874 l 0 747 l 36 747 l 36 0 l 217 0 l 217 392 b 367 558 217 485 263 558 b 474 424 439 558 474 522 l 474 -37 b 381 -167 474 -112 457 -167 b 346 -160 363 -167 354 -164 l 346 -321 b 389 -324 358 -322 372 -324 b 656 -46 540 -324 656 -211 z "},"ѓ":{"ha":486,"x_min":0,"x_max":0,"o":"m 476 900 l 411 1014 l 124 846 l 167 769 z m 218 0 l 218 539 l 476 539 l 476 683 l 42 683 l 42 0 z "},"є":{"ha":678,"x_min":0,"x_max":0,"o":"m 411 299 l 411 401 l 204 401 b 350 561 217 500 249 561 b 483 461 426 561 475 526 l 663 461 b 347 701 635 643 479 701 b 28 344 169 701 28 597 b 349 -18 28 108 153 -18 b 664 222 493 -18 638 51 l 486 222 b 349 121 486 164 419 121 b 203 299 276 121 211 165 z "},"љ":{"ha":1192,"x_min":0,"x_max":0,"o":"m 924 0 b 1172 235 1078 0 1172 83 b 903 465 1172 396 1067 465 l 694 465 l 694 683 l 203 683 l 188 444 b 33 143 171 190 126 143 l 14 143 l 14 0 l 43 0 b 325 439 246 0 304 60 l 331 539 l 518 539 l 518 0 z m 911 336 b 1018 235 978 336 1018 301 b 911 135 1018 169 978 135 l 694 135 l 694 336 z "},"њ":{"ha":1071,"x_min":0,"x_max":0,"o":"m 217 0 l 217 336 l 446 336 l 446 0 l 785 0 b 1053 233 951 0 1053 72 b 785 465 1053 396 949 465 l 622 465 l 622 683 l 446 683 l 446 465 l 217 465 l 217 683 l 40 683 l 40 0 z m 792 336 b 897 235 857 336 897 301 b 792 135 897 169 857 135 l 622 135 l 622 336 z "},"ќ":{"ha":671,"x_min":0,"x_max":0,"o":"m 554 900 l 489 1014 l 201 846 l 244 769 z m 658 0 l 435 432 l 664 683 l 443 683 l 218 424 l 218 683 l 36 683 l 36 0 l 218 0 l 218 217 l 306 307 l 456 0 z "},"ѝ":{"ha":708,"x_min":0,"x_max":0,"o":"m 447 769 l 490 846 l 203 1014 l 138 900 z m 214 0 l 490 464 l 490 0 l 667 0 l 667 683 l 479 683 l 218 239 l 218 683 l 40 683 l 40 0 z "},"ў":{"ha":697,"x_min":0,"x_max":0,"o":"m 471 -21 b 346 -168 471 -111 411 -168 b 204 -37 251 -168 204 -118 l 36 -37 b 338 -324 36 -214 138 -324 b 651 -18 513 -324 651 -211 l 651 683 l 471 683 l 471 267 b 332 139 471 193 414 139 b 217 267 256 139 217 182 l 217 683 l 36 683 l 36 240 b 286 -7 36 90 143 -7 b 471 90 371 -7 446 29 z m 461 1036 b 350 915 458 960 418 915 b 239 1036 282 915 242 960 l 125 1036 b 350 806 125 882 235 806 b 575 1036 465 806 575 882 z "},"џ":{"ha":708,"x_min":0,"x_max":0,"o":"m 40 0 l 288 0 l 288 -207 l 418 -207 l 418 0 l 667 0 l 667 683 l 490 683 l 490 143 l 217 143 l 217 683 l 40 683 z "},"Ґ":{"ha":696,"x_min":0,"x_max":0,"o":"m 31 922 l 31 0 l 219 0 l 219 765 l 679 765 l 679 1157 l 540 1157 l 540 922 z "},"ґ":{"ha":486,"x_min":0,"x_max":0,"o":"m 475 539 l 475 890 l 344 890 l 344 683 l 40 683 l 40 0 l 217 0 l 217 539 z "},"Ғ":{"ha":772,"x_min":0,"x_max":0,"o":"m 529 386 l 529 503 l 296 503 l 296 765 l 756 765 l 756 922 l 108 922 l 108 503 l 4 503 l 4 386 l 108 386 l 108 0 l 296 0 l 296 386 z "},"ғ":{"ha":549,"x_min":0,"x_max":0,"o":"m 281 0 l 281 243 l 525 243 l 525 360 l 281 360 l 281 539 l 539 539 l 539 683 l 104 683 l 104 360 l 0 360 l 0 243 l 104 243 l 104 0 z "},"Җ":{"ha":1321,"x_min":0,"x_max":0,"o":"m 1306 -235 l 1306 164 l 1086 164 l 835 469 l 1206 922 l 982 922 l 707 581 l 707 922 l 526 922 l 526 581 l 251 922 l 28 922 l 397 469 l 10 0 l 240 0 l 526 379 l 526 0 l 707 0 l 707 379 l 993 0 l 1168 0 l 1168 -235 z "},"җ":{"ha":1038,"x_min":0,"x_max":0,"o":"m 558 683 l 392 683 l 392 422 l 224 683 l 18 683 l 265 349 l 8 0 l 221 0 l 392 256 l 392 0 l 558 0 l 558 256 l 729 0 l 892 0 l 892 -207 l 1022 -207 l 1022 144 l 835 144 l 685 349 l 932 683 l 726 683 l 558 422 z "},"Ҙ":{"ha":783,"x_min":0,"x_max":0,"o":"m 406 404 b 589 275 522 404 589 375 b 397 128 589 174 518 128 b 194 299 257 128 201 188 l 8 299 b 311 -26 8 131 97 -1 b 417 -133 401 -71 417 -97 b 344 -178 417 -160 388 -175 b 324 -185 340 -182 333 -185 b 250 -171 294 -185 269 -178 l 250 -287 b 396 -324 278 -308 321 -324 b 547 -206 494 -324 547 -278 b 394 -32 547 -135 489 -75 b 779 264 636 -31 779 82 b 597 496 779 396 703 476 b 750 700 696 522 750 597 b 394 953 750 847 636 953 b 25 642 125 953 25 821 l 207 642 b 393 796 207 750 264 796 b 564 688 511 796 564 757 b 399 564 564 614 504 564 l 313 564 l 313 404 z "},"ҙ":{"ha":651,"x_min":0,"x_max":0,"o":"m 335 301 b 461 210 421 301 461 276 b 331 108 461 133 407 108 b 190 228 231 108 194 151 l 13 228 b 251 -11 21 114 89 13 b 389 -135 371 -65 389 -94 b 297 -185 389 -168 353 -185 b 224 -171 268 -185 242 -179 l 224 -287 b 368 -324 250 -308 293 -324 b 519 -206 467 -324 519 -278 b 332 -18 519 -126 447 -62 b 638 199 519 -18 638 65 b 493 367 638 297 571 351 b 615 515 568 386 615 439 b 332 701 615 624 522 701 b 18 471 113 701 31 599 l 196 471 b 326 581 196 546 232 581 b 446 501 406 581 446 556 b 331 418 446 442 397 418 l 272 418 l 272 301 z "},"Қ":{"ha":933,"x_min":0,"x_max":0,"o":"m 918 -235 l 918 164 l 724 164 l 461 558 l 825 922 l 575 922 l 222 547 l 222 922 l 32 922 l 32 0 l 222 0 l 222 314 l 325 415 l 599 0 l 781 0 l 781 -235 z "},"қ":{"ha":754,"x_min":0,"x_max":0,"o":"m 740 -207 l 740 144 l 583 144 l 435 432 l 664 683 l 443 683 l 218 424 l 218 683 l 36 683 l 36 0 l 218 0 l 218 217 l 306 307 l 456 0 l 610 0 l 610 -207 z "},"Ҡ":{"ha":1094,"x_min":0,"x_max":0,"o":"m 1090 0 l 717 558 l 1081 922 l 838 922 l 476 542 l 476 922 l 11 922 l 11 765 l 292 765 l 292 0 l 476 0 l 476 313 l 585 418 l 861 0 z "},"ҡ":{"ha":897,"x_min":0,"x_max":0,"o":"m 888 0 l 661 432 l 893 683 l 676 683 l 444 419 l 444 683 l 10 683 l 10 539 l 267 539 l 267 0 l 444 0 l 444 217 l 536 310 l 689 0 z "},"Ң":{"ha":908,"x_min":0,"x_max":0,"o":"m 893 -235 l 893 164 l 782 164 l 782 922 l 592 922 l 592 574 l 225 574 l 225 922 l 36 922 l 36 0 l 225 0 l 225 417 l 592 417 l 592 0 l 756 0 l 756 -235 z "},"ң":{"ha":789,"x_min":0,"x_max":0,"o":"m 774 -207 l 774 144 l 668 144 l 668 683 l 492 683 l 492 422 l 217 422 l 217 683 l 40 683 l 40 0 l 217 0 l 217 279 l 492 279 l 492 0 l 643 0 l 643 -207 z "},"Ҫ":{"ha":851,"x_min":0,"x_max":0,"o":"m 651 317 b 443 136 625 200 553 136 b 217 458 292 136 217 257 b 443 786 217 663 294 786 b 651 619 553 786 625 719 l 844 619 b 450 953 826 806 681 953 b 21 454 186 953 21 761 b 349 -22 21 178 154 18 b 465 -129 443 -67 465 -96 b 376 -185 465 -168 435 -185 b 300 -171 343 -185 318 -179 l 300 -287 b 438 -324 325 -308 376 -324 b 596 -208 544 -324 596 -278 b 442 -32 596 -133 536 -75 b 844 317 661 -32 806 107 z "},"ҫ":{"ha":668,"x_min":0,"x_max":0,"o":"m 469 247 b 336 133 463 174 407 133 b 203 354 265 133 203 206 b 342 551 203 503 265 551 b 471 439 410 551 461 510 l 653 439 b 343 701 642 600 521 701 b 24 350 151 701 24 594 b 272 -12 24 135 122 13 b 408 -129 383 -64 408 -94 b 319 -185 408 -168 378 -185 b 243 -171 286 -185 263 -179 l 243 -287 b 381 -324 268 -308 319 -324 b 540 -208 488 -324 540 -278 b 351 -18 540 -125 467 -62 b 651 247 510 -11 632 93 z "},"γ":{"ha":696,"x_min":0,"x_max":0,"o":"m 433 -324 l 433 -7 l 686 683 l 500 683 l 351 226 l 206 683 l 8 683 l 261 -7 l 261 -324 z "},"Ҳ":{"ha":929,"x_min":0,"x_max":0,"o":"m 914 -235 l 914 164 l 725 164 l 528 479 l 808 922 l 585 922 l 417 624 l 250 922 l 22 922 l 304 471 l 6 0 l 231 0 l 417 317 l 593 0 l 776 0 l 776 -235 z "},"ҳ":{"ha":772,"x_min":0,"x_max":0,"o":"m 758 -207 l 758 144 l 581 144 l 444 349 l 671 683 l 461 683 l 344 485 l 229 683 l 11 683 l 233 349 l 4 0 l 221 0 l 338 206 l 457 0 l 628 0 l 628 -207 z "},"Ҷ":{"ha":883,"x_min":0,"x_max":0,"o":"m 868 -235 l 868 164 l 756 164 l 756 922 l 568 922 l 568 517 b 382 479 518 492 449 479 b 221 625 281 479 221 508 l 221 922 l 31 922 l 31 621 b 319 322 31 381 144 322 b 568 367 414 322 503 339 l 568 0 l 731 0 l 731 -235 z "},"ҷ":{"ha":778,"x_min":0,"x_max":0,"o":"m 763 -207 l 763 144 l 656 144 l 656 683 l 479 683 l 479 396 b 331 368 440 378 386 368 b 206 476 251 368 206 390 l 206 683 l 29 683 l 29 474 b 271 235 29 281 124 235 b 479 269 350 235 425 249 l 479 0 l 632 0 l 632 -207 z "},"Һ":{"ha":792,"x_min":0,"x_max":0,"o":"m 36 922 l 36 0 l 224 0 l 224 406 b 410 443 274 431 343 443 b 571 297 511 443 571 414 l 571 0 l 761 0 l 761 301 b 472 600 761 542 647 600 b 224 556 378 600 289 583 l 224 922 z "},"Ӄ":{"ha":839,"x_min":0,"x_max":0,"o":"m 810 -68 b 711 192 810 17 778 93 l 461 558 b 825 922 582 679 704 800 l 581 922 l 221 540 l 221 922 l 36 922 l 36 0 l 221 0 l 221 313 l 328 418 l 554 113 b 642 -72 615 29 642 -18 b 549 -167 642 -133 607 -167 b 450 -37 475 -167 451 -114 l 285 -37 b 549 -324 285 -214 381 -324 b 810 -68 718 -324 810 -212 z "},"ӄ":{"ha":671,"x_min":0,"x_max":0,"o":"m 435 432 l 667 683 l 451 683 l 218 419 l 218 683 l 40 683 l 40 0 l 218 0 l 218 217 l 310 310 l 424 72 b 468 -72 457 3 468 -36 b 381 -172 468 -132 438 -172 b 293 -58 319 -172 296 -128 l 142 -58 b 394 -324 146 -222 235 -324 b 646 -79 540 -324 646 -237 b 590 132 646 -8 625 65 z "},"Ӈ":{"ha":815,"x_min":0,"x_max":0,"o":"m 592 -39 b 492 -167 592 -118 565 -167 b 392 -37 418 -167 393 -119 l 226 -37 b 493 -324 226 -215 325 -324 b 782 -46 664 -324 782 -211 l 782 922 l 592 922 l 592 574 l 225 574 l 225 922 l 36 922 l 36 0 l 225 0 l 225 417 l 592 417 z "},"ӈ":{"ha":708,"x_min":0,"x_max":0,"o":"m 217 0 l 217 278 l 490 278 l 490 -47 b 397 -167 490 -122 467 -167 b 306 -47 328 -167 307 -121 l 140 -47 b 394 -324 140 -217 232 -324 b 667 -54 560 -324 667 -214 l 667 683 l 490 683 l 490 422 l 217 422 l 217 683 l 40 683 l 40 0 z "},"Ө":{"ha":931,"x_min":0,"x_max":0,"o":"m 464 -32 b 904 449 747 -32 904 132 b 464 953 904 765 747 953 b 21 453 181 953 21 765 b 464 -32 21 142 181 -32 z m 464 133 b 214 388 319 133 231 213 l 710 388 b 464 133 692 213 589 133 z m 464 782 b 706 547 599 782 682 701 l 218 547 b 464 782 243 701 328 782 z "},"ө":{"ha":749,"x_min":0,"x_max":0,"o":"m 372 -18 b 719 342 585 -18 719 125 b 372 701 719 560 586 701 b 21 342 156 701 21 558 b 372 -18 21 129 151 -18 z m 372 133 b 211 281 279 133 225 182 l 533 281 b 372 133 518 182 464 133 z m 372 549 b 532 407 463 549 517 501 l 211 407 b 372 549 228 501 281 549 z "},"Ӯ":{"ha":799,"x_min":0,"x_max":0,"o":"m 665 1075 l 665 1201 l 136 1201 l 136 1075 z m 761 304 l 761 922 l 574 922 l 574 683 b 393 503 574 574 501 503 b 226 685 299 503 226 557 l 226 922 l 36 922 l 36 683 b 324 344 36 447 151 344 b 574 464 436 344 532 388 l 574 304 b 394 121 574 178 504 121 b 218 297 288 121 219 176 l 47 297 b 390 -32 49 63 174 -32 b 761 304 625 -32 761 81 z "},"ӯ":{"ha":697,"x_min":0,"x_max":0,"o":"m 471 -21 b 346 -168 471 -111 411 -168 b 204 -37 251 -168 204 -118 l 36 -37 b 338 -324 36 -214 138 -324 b 651 -18 513 -324 651 -211 l 651 683 l 471 683 l 471 267 b 332 139 471 193 414 139 b 217 267 256 139 217 182 l 217 683 l 36 683 l 36 240 b 286 -7 36 90 143 -7 b 471 90 371 -7 446 29 z m 615 836 l 615 963 l 86 963 l 86 836 z "},"Ԓ":{"ha":872,"x_min":0,"x_max":0,"o":"m 647 -39 b 547 -167 647 -118 621 -167 b 447 -37 472 -167 449 -117 l 282 -37 b 543 -324 282 -214 375 -324 b 838 -46 714 -324 838 -211 l 838 922 l 240 922 l 219 563 b 33 164 199 210 160 164 l 11 164 l 11 0 l 46 0 b 388 563 279 0 361 76 l 399 765 l 647 765 z "},"ԓ":{"ha":736,"x_min":0,"x_max":0,"o":"m 519 -47 b 425 -167 519 -121 494 -167 b 335 -47 357 -167 335 -122 l 169 -47 b 424 -324 169 -218 260 -324 b 696 -56 589 -324 696 -215 l 696 683 l 203 683 l 188 426 b 33 144 172 175 133 144 l 15 144 l 15 0 l 43 0 b 325 417 238 0 304 60 l 332 539 l 519 539 z "},"֏":{"ha":678,"x_min":0,"x_max":0,"o":"m 671 175 l 671 292 l 596 292 l 596 392 l 671 392 l 671 508 l 596 508 l 596 674 b 296 954 596 850 492 954 b 10 668 117 954 10 867 l 10 574 l 181 574 l 181 667 b 293 800 181 754 215 800 b 407 667 372 800 407 753 l 407 508 l 146 508 l 146 392 l 407 392 l 407 292 l 146 292 l 146 175 l 407 175 l 407 0 l 596 0 l 596 175 z "},"Ḍ":{"ha":843,"x_min":0,"x_max":0,"o":"m 219 157 l 219 763 l 363 763 b 619 471 547 763 619 679 b 379 157 619 263 547 157 z m 418 0 b 817 471 657 0 817 190 b 389 922 817 751 639 922 l 32 922 l 32 0 z m 488 -286 l 488 -114 l 307 -114 l 307 -286 z "},"ḍ":{"ha":726,"x_min":0,"x_max":0,"o":"m 360 129 b 206 336 269 129 206 214 b 361 547 206 476 256 547 b 513 325 461 547 513 474 b 360 129 513 210 446 129 z m 683 0 l 683 933 l 506 933 l 506 594 b 303 701 454 667 388 701 b 22 349 126 701 22 556 b 318 -18 22 118 146 -18 b 508 83 401 -18 465 14 l 510 0 z m 446 -286 l 446 -114 l 265 -114 l 265 -286 z "},"Ḓ":{"ha":843,"x_min":0,"x_max":0,"o":"m 219 157 l 219 763 l 363 763 b 619 471 547 763 619 679 b 379 157 619 263 547 157 z m 418 0 b 817 471 657 0 817 190 b 389 922 817 751 639 922 l 32 922 l 32 0 z m 579 -315 l 643 -244 l 465 -58 l 318 -58 l 140 -244 l 204 -315 l 392 -151 z "},"ḓ":{"ha":726,"x_min":0,"x_max":0,"o":"m 360 129 b 206 336 269 129 206 214 b 361 547 206 476 256 547 b 513 325 461 547 513 474 b 360 129 513 210 446 129 z m 683 0 l 683 933 l 506 933 l 506 594 b 303 701 454 667 388 701 b 22 349 126 701 22 556 b 318 -18 22 118 146 -18 b 508 83 401 -18 465 14 l 510 0 z m 539 -315 l 603 -244 l 425 -58 l 278 -58 l 100 -244 l 164 -315 l 351 -151 z "},"Ḥ":{"ha":815,"x_min":0,"x_max":0,"o":"m 779 0 l 779 922 l 585 922 l 585 575 l 225 575 l 225 922 l 32 922 l 32 0 l 225 0 l 225 414 l 585 414 l 585 0 z m 504 -286 l 504 -114 l 324 -114 l 324 -286 z "},"ḥ":{"ha":699,"x_min":0,"x_max":0,"o":"m 656 0 l 656 483 b 418 701 656 619 558 701 b 217 594 326 701 243 656 l 217 933 l 36 933 l 36 0 l 217 0 l 217 392 b 357 558 217 483 267 558 b 474 424 439 558 474 526 l 474 0 z m 446 -286 l 446 -114 l 265 -114 l 265 -286 z "},"Ḽ":{"ha":696,"x_min":0,"x_max":0,"o":"m 682 0 l 682 168 l 225 168 l 225 922 l 32 922 l 32 0 z m 551 -315 l 615 -244 l 438 -58 l 290 -58 l 113 -244 l 176 -315 l 364 -151 z "},"ḽ":{"ha":329,"x_min":0,"x_max":0,"o":"m 253 0 l 253 933 l 72 933 l 72 0 z m 354 -315 l 418 -244 l 240 -58 l 93 -58 l -85 -244 l -21 -315 l 167 -151 z "},"Ṅ":{"ha":821,"x_min":0,"x_max":0,"o":"m 783 0 l 783 922 l 603 922 l 603 329 l 236 922 l 32 922 l 32 0 l 211 0 l 211 619 l 606 0 z m 507 1043 l 507 1215 l 326 1215 l 326 1043 z "},"ṅ":{"ha":699,"x_min":0,"x_max":0,"o":"m 656 0 l 656 474 b 429 701 656 622 560 701 b 208 583 319 701 250 660 l 208 683 l 36 683 l 36 0 l 217 0 l 217 392 b 357 549 217 496 263 549 b 474 414 443 549 474 519 l 474 0 z m 447 804 l 447 976 l 267 976 l 267 804 z "},"Ṋ":{"ha":821,"x_min":0,"x_max":0,"o":"m 783 0 l 783 922 l 603 922 l 603 329 l 236 922 l 32 922 l 32 0 l 211 0 l 211 619 l 606 0 z m 600 -315 l 664 -244 l 486 -58 l 339 -58 l 161 -244 l 225 -315 l 413 -151 z "},"ṋ":{"ha":699,"x_min":0,"x_max":0,"o":"m 656 0 l 656 474 b 429 701 656 622 560 701 b 208 583 319 701 250 660 l 208 683 l 36 683 l 36 0 l 217 0 l 217 392 b 357 549 217 496 263 549 b 474 414 443 549 474 519 l 474 0 z m 539 -315 l 603 -244 l 425 -58 l 278 -58 l 100 -244 l 164 -315 l 351 -151 z "},"Ṛ":{"ha":803,"x_min":0,"x_max":0,"o":"m 468 763 b 603 639 564 763 603 711 b 461 517 603 568 564 517 l 219 517 l 219 763 z m 758 0 l 758 261 b 646 442 758 369 728 415 b 783 656 735 474 783 557 b 500 922 783 808 671 922 l 32 922 l 32 0 l 219 0 l 219 361 l 425 361 b 569 238 536 361 569 326 l 569 0 z m 499 -286 l 499 -114 l 318 -114 l 318 -286 z "},"ṛ":{"ha":446,"x_min":0,"x_max":0,"o":"m 217 0 l 217 356 b 382 521 217 465 271 521 b 432 517 399 521 415 519 l 432 701 l 408 701 b 206 601 335 701 265 693 l 206 683 l 36 683 l 36 0 z m 226 -286 l 226 -114 l 46 -114 l 46 -286 z "},"Ṣ":{"ha":782,"x_min":0,"x_max":0,"o":"m 738 650 b 367 953 731 826 600 953 b 29 669 142 953 29 835 b 183 442 29 553 85 486 b 436 371 249 413 322 396 b 579 254 551 346 579 308 b 400 124 579 172 514 124 b 194 276 276 124 197 182 l 8 276 b 399 -32 13 69 171 -32 b 767 261 614 -32 767 58 b 622 485 767 392 703 449 b 349 565 554 515 453 540 b 206 682 246 590 206 624 b 371 790 206 751 263 790 b 554 650 488 790 544 744 z m 488 -286 l 488 -114 l 307 -114 l 307 -286 z "},"ṣ":{"ha":656,"x_min":0,"x_max":0,"o":"m 621 476 b 325 701 611 624 522 701 b 38 499 117 701 38 614 b 124 344 38 438 60 385 b 351 267 172 314 236 294 b 461 189 410 253 461 238 b 340 118 461 138 404 118 b 199 219 253 118 199 156 l 13 219 b 342 -18 15 81 132 -18 b 640 208 536 -18 640 67 b 528 374 640 297 600 344 b 324 432 475 394 401 410 b 213 510 250 453 213 469 b 319 567 213 550 251 567 b 447 476 401 567 438 543 z m 425 -286 l 425 -114 l 244 -114 l 244 -286 z "},"Ṭ":{"ha":769,"x_min":0,"x_max":0,"o":"m 476 0 l 476 761 l 756 761 l 756 922 l 6 922 l 6 761 l 283 761 l 283 0 z m 482 -286 l 482 -114 l 301 -114 l 301 -286 z "},"ṭ":{"ha":629,"x_min":0,"x_max":0,"o":"m 424 272 b 318 139 424 188 390 139 b 214 275 244 139 214 189 l 214 556 l 592 556 l 592 683 l 214 683 l 214 868 l 36 868 l 36 257 b 315 -18 36 110 115 -18 b 592 256 508 -18 592 111 l 592 450 l 424 450 z m 411 -286 l 411 -114 l 231 -114 l 231 -286 z "},"Ẁ":{"ha":1189,"x_min":0,"x_max":0,"o":"m 921 0 l 1179 922 l 982 922 l 832 325 l 692 922 l 489 922 l 361 325 l 210 922 l 4 922 l 265 0 l 446 0 l 592 600 l 735 0 z m 688 1008 l 731 1085 l 443 1253 l 378 1139 z "},"ẁ":{"ha":992,"x_min":0,"x_max":0,"o":"m 785 0 l 981 683 l 794 683 l 690 244 l 583 683 l 400 683 l 306 244 l 194 683 l 4 683 l 199 0 l 383 0 l 492 397 l 600 0 z m 589 769 l 632 846 l 344 1014 l 279 900 z "},"Ẃ":{"ha":1189,"x_min":0,"x_max":0,"o":"m 921 0 l 1179 922 l 982 922 l 832 325 l 692 922 l 489 922 l 361 325 l 210 922 l 4 922 l 265 0 l 446 0 l 592 600 l 735 0 z m 814 1139 l 749 1253 l 461 1085 l 504 1008 z "},"ẃ":{"ha":992,"x_min":0,"x_max":0,"o":"m 785 0 l 981 683 l 794 683 l 690 244 l 583 683 l 400 683 l 306 244 l 194 683 l 4 683 l 199 0 l 383 0 l 492 397 l 600 0 z m 715 900 l 650 1014 l 363 846 l 406 769 z "},"Ẅ":{"ha":1189,"x_min":0,"x_max":0,"o":"m 921 0 l 1179 922 l 982 922 l 832 325 l 692 922 l 489 922 l 361 325 l 210 922 l 4 922 l 265 0 l 446 0 l 592 600 l 735 0 z m 551 1043 l 551 1215 l 371 1215 l 371 1043 z m 829 1043 l 829 1215 l 649 1215 l 649 1043 z "},"ẅ":{"ha":992,"x_min":0,"x_max":0,"o":"m 785 0 l 981 683 l 794 683 l 690 244 l 583 683 l 400 683 l 306 244 l 194 683 l 4 683 l 199 0 l 383 0 l 492 397 l 600 0 z m 453 804 l 453 976 l 272 976 l 272 804 z m 731 804 l 731 976 l 550 976 l 550 804 z "},"Ẓ":{"ha":739,"x_min":0,"x_max":0,"o":"m 726 0 l 726 164 l 244 164 l 726 771 l 726 922 l 19 922 l 19 761 l 485 761 l 6 164 l 6 0 z m 467 -286 l 467 -114 l 286 -114 l 286 -286 z "},"ẓ":{"ha":618,"x_min":0,"x_max":0,"o":"m 601 0 l 601 147 l 243 147 l 592 538 l 592 683 l 36 683 l 36 540 l 361 540 l 13 139 l 13 0 z m 406 -286 l 406 -114 l 225 -114 l 225 -286 z "},"ẞ":{"ha":838,"x_min":0,"x_max":0,"o":"m 413 922 b 36 597 169 922 36 807 l 36 0 l 229 0 l 229 526 b 413 778 229 690 257 778 l 560 778 l 374 572 l 374 440 b 474 464 407 457 439 464 b 647 297 568 464 647 408 b 464 131 647 190 574 131 b 335 156 419 131 368 140 l 335 8 b 499 -18 371 -6 436 -18 b 831 297 694 -18 831 100 b 575 589 831 457 740 565 l 754 775 l 754 922 z "},"Ạ":{"ha":893,"x_min":0,"x_max":0,"o":"m 558 349 l 324 349 l 442 715 l 443 715 z m 882 0 l 557 922 l 333 922 l 4 0 l 208 0 l 274 190 l 614 190 l 672 0 z m 543 -286 l 543 -114 l 363 -114 l 363 -286 z "},"ạ":{"ha":675,"x_min":0,"x_max":0,"o":"m 450 260 b 286 111 449 179 379 111 b 199 188 229 111 199 136 b 335 294 199 246 232 275 b 451 335 401 307 433 317 z m 632 0 l 632 432 b 340 701 632 604 557 701 b 40 461 121 701 43 603 l 208 461 b 332 563 217 522 250 563 b 447 492 403 563 447 536 b 332 414 447 444 422 426 b 18 169 150 389 18 367 b 246 -18 18 58 90 -18 b 453 61 338 -18 410 14 b 464 0 454 40 458 17 z m 433 -286 l 433 -114 l 253 -114 l 253 -286 z "},"Ả":{"ha":893,"x_min":0,"x_max":0,"o":"m 558 349 l 324 349 l 442 715 l 443 715 z m 882 0 l 557 922 l 333 922 l 4 0 l 208 0 l 274 190 l 614 190 l 672 0 z m 478 1046 b 560 1190 478 1111 560 1113 b 457 1275 560 1242 521 1275 b 360 1240 431 1275 388 1264 l 385 1164 b 442 1185 408 1181 426 1185 b 475 1161 465 1185 475 1175 b 443 1119 475 1139 463 1131 b 408 1046 415 1103 408 1078 z "},"ả":{"ha":675,"x_min":0,"x_max":0,"o":"m 450 260 b 286 111 449 179 379 111 b 199 188 229 111 199 136 b 335 294 199 246 232 275 b 451 335 401 307 433 317 z m 632 0 l 632 432 b 340 701 632 604 557 701 b 40 461 121 701 43 603 l 208 461 b 332 563 217 522 250 563 b 447 492 403 563 447 536 b 332 414 447 444 422 426 b 18 169 150 389 18 367 b 246 -18 18 58 90 -18 b 453 61 338 -18 410 14 b 464 0 454 40 458 17 z m 376 807 b 458 951 376 872 458 874 b 356 1036 458 1003 419 1036 b 258 1001 329 1036 286 1025 l 283 925 b 340 946 307 942 325 946 b 374 922 364 946 374 936 b 342 881 374 900 361 892 b 307 807 314 864 307 839 z "},"Ấ":{"ha":893,"x_min":0,"x_max":0,"o":"m 558 349 l 324 349 l 442 715 l 443 715 z m 882 0 l 557 922 l 333 922 l 4 0 l 208 0 l 274 190 l 614 190 l 672 0 z m 607 1032 l 663 1093 l 510 1253 l 383 1253 l 231 1093 l 285 1032 l 446 1172 z m 958 1158 l 904 1253 l 667 1114 l 701 1050 z "},"ấ":{"ha":675,"x_min":0,"x_max":0,"o":"m 450 260 b 286 111 449 179 379 111 b 199 188 229 111 199 136 b 335 294 199 246 232 275 b 451 335 401 307 433 317 z m 632 0 l 632 432 b 340 701 632 604 557 701 b 40 461 121 701 43 603 l 208 461 b 332 563 217 522 250 563 b 447 492 403 563 447 536 b 332 414 447 444 422 426 b 18 169 150 389 18 367 b 246 -18 18 58 90 -18 b 453 61 338 -18 410 14 b 464 0 454 40 458 17 z m 504 793 l 560 854 l 407 1014 l 281 1014 l 128 854 l 182 793 l 343 933 z m 856 919 l 801 1014 l 564 875 l 599 811 z "},"Ầ":{"ha":893,"x_min":0,"x_max":0,"o":"m 558 349 l 324 349 l 442 715 l 443 715 z m 882 0 l 557 922 l 333 922 l 4 0 l 208 0 l 274 190 l 614 190 l 672 0 z m 622 1032 l 676 1093 l 524 1253 l 397 1253 l 244 1093 l 300 1032 l 461 1172 z m 906 1050 l 940 1114 l 703 1253 l 649 1158 z "},"ầ":{"ha":675,"x_min":0,"x_max":0,"o":"m 450 260 b 286 111 449 179 379 111 b 199 188 229 111 199 136 b 335 294 199 246 232 275 b 451 335 401 307 433 317 z m 632 0 l 632 432 b 340 701 632 604 557 701 b 40 461 121 701 43 603 l 208 461 b 332 563 217 522 250 563 b 447 492 403 563 447 536 b 332 414 447 444 422 426 b 18 169 150 389 18 367 b 246 -18 18 58 90 -18 b 453 61 338 -18 410 14 b 464 0 454 40 458 17 z m 503 793 l 557 854 l 404 1014 l 278 1014 l 125 854 l 181 793 l 342 933 z m 786 811 l 821 875 l 583 1014 l 529 919 z "},"Ẩ":{"ha":893,"x_min":0,"x_max":0,"o":"m 558 349 l 324 349 l 442 715 l 443 715 z m 882 0 l 557 922 l 333 922 l 4 0 l 208 0 l 274 190 l 614 190 l 672 0 z m 769 1046 b 851 1190 769 1111 851 1113 b 749 1275 851 1242 813 1275 b 651 1240 722 1275 679 1264 l 676 1164 b 733 1185 700 1181 718 1185 b 767 1161 757 1185 767 1175 b 735 1119 767 1139 754 1131 b 700 1046 707 1103 700 1078 z m 617 1032 l 671 1093 l 518 1253 l 392 1253 l 239 1093 l 294 1032 l 456 1172 z "},"ẩ":{"ha":675,"x_min":0,"x_max":0,"o":"m 450 260 b 286 111 449 179 379 111 b 199 188 229 111 199 136 b 335 294 199 246 232 275 b 451 335 401 307 433 317 z m 632 0 l 632 432 b 340 701 632 604 557 701 b 40 461 121 701 43 603 l 208 461 b 332 563 217 522 250 563 b 447 492 403 563 447 536 b 332 414 447 444 422 426 b 18 169 150 389 18 367 b 246 -18 18 58 90 -18 b 453 61 338 -18 410 14 b 464 0 454 40 458 17 z m 654 807 b 736 951 654 872 736 874 b 633 1036 736 1003 697 1036 b 536 1001 607 1036 564 1025 l 561 925 b 618 946 585 942 603 946 b 651 922 642 946 651 936 b 619 881 651 900 639 892 b 585 807 592 864 585 839 z m 501 793 l 556 854 l 403 1014 l 276 1014 l 124 854 l 179 793 l 340 933 z "},"Ẫ":{"ha":893,"x_min":0,"x_max":0,"o":"m 558 349 l 324 349 l 442 715 l 443 715 z m 882 0 l 557 922 l 333 922 l 4 0 l 208 0 l 274 190 l 614 190 l 672 0 z m 556 1275 b 517 1238 550 1246 536 1238 b 369 1269 471 1238 435 1269 b 272 1182 326 1269 289 1244 l 340 1154 b 379 1199 351 1183 365 1199 b 518 1171 413 1199 472 1171 b 626 1256 563 1171 610 1189 z m 636 1050 l 503 1161 l 392 1161 l 258 1050 l 307 1008 l 447 1106 l 589 1008 z "},"ẫ":{"ha":675,"x_min":0,"x_max":0,"o":"m 450 260 b 286 111 449 179 379 111 b 199 188 229 111 199 136 b 335 294 199 246 232 275 b 451 335 401 307 433 317 z m 632 0 l 632 432 b 340 701 632 604 557 701 b 40 461 121 701 43 603 l 208 461 b 332 563 217 522 250 563 b 447 492 403 563 447 536 b 332 414 447 444 422 426 b 18 169 150 389 18 367 b 246 -18 18 58 90 -18 b 453 61 338 -18 410 14 b 464 0 454 40 458 17 z m 454 1036 b 415 999 449 1007 435 999 b 268 1031 369 999 333 1031 b 171 943 225 1031 188 1006 l 239 915 b 278 960 250 944 264 960 b 417 932 311 960 371 932 b 525 1017 461 932 508 950 z m 535 811 l 401 922 l 290 922 l 157 811 l 206 769 l 346 867 l 488 769 z "},"Ậ":{"ha":893,"x_min":0,"x_max":0,"o":"m 558 349 l 324 349 l 442 715 l 443 715 z m 882 0 l 557 922 l 333 922 l 4 0 l 208 0 l 274 190 l 614 190 l 672 0 z m 635 1018 l 699 1089 l 521 1275 l 374 1275 l 196 1089 l 260 1018 l 447 1182 z m 543 -286 l 543 -114 l 363 -114 l 363 -286 z "},"ậ":{"ha":675,"x_min":0,"x_max":0,"o":"m 450 260 b 286 111 449 179 379 111 b 199 188 229 111 199 136 b 335 294 199 246 232 275 b 451 335 401 307 433 317 z m 632 0 l 632 432 b 340 701 632 604 557 701 b 40 461 121 701 43 603 l 208 461 b 332 563 217 522 250 563 b 447 492 403 563 447 536 b 332 414 447 444 422 426 b 18 169 150 389 18 367 b 246 -18 18 58 90 -18 b 453 61 338 -18 410 14 b 464 0 454 40 458 17 z m 526 779 l 590 850 l 413 1036 l 265 1036 l 88 850 l 151 779 l 339 943 z m 421 -286 l 421 -114 l 240 -114 l 240 -286 z "},"Ắ":{"ha":893,"x_min":0,"x_max":0,"o":"m 558 349 l 324 349 l 442 715 l 443 715 z m 882 0 l 557 922 l 333 922 l 4 0 l 208 0 l 274 190 l 614 190 l 672 0 z m 522 1167 b 446 1083 521 1114 493 1083 b 371 1167 400 1083 371 1114 l 292 1167 b 446 1008 292 1061 367 1008 b 601 1167 525 1008 601 1061 z m 585 1210 l 547 1275 l 382 1179 l 407 1133 z "},"ắ":{"ha":675,"x_min":0,"x_max":0,"o":"m 450 260 b 286 111 449 179 379 111 b 199 188 229 111 199 136 b 335 294 199 246 232 275 b 451 335 401 307 433 317 z m 632 0 l 632 432 b 340 701 632 604 557 701 b 40 461 121 701 43 603 l 208 461 b 332 563 217 522 250 563 b 447 492 403 563 447 536 b 332 414 447 444 422 426 b 18 169 150 389 18 367 b 246 -18 18 58 90 -18 b 453 61 338 -18 410 14 b 464 0 454 40 458 17 z m 414 928 b 338 844 413 875 385 844 b 263 928 292 844 263 875 l 183 928 b 338 769 183 822 258 769 b 493 928 417 769 493 822 z m 476 971 l 439 1036 l 274 940 l 299 894 z "},"Ằ":{"ha":893,"x_min":0,"x_max":0,"o":"m 558 349 l 324 349 l 442 715 l 443 715 z m 882 0 l 557 922 l 333 922 l 4 0 l 208 0 l 274 190 l 614 190 l 672 0 z m 522 1167 b 447 1083 522 1114 493 1083 b 371 1167 400 1083 372 1114 l 292 1167 b 447 1008 292 1061 368 1008 b 601 1167 526 1008 601 1061 z m 486 1133 l 511 1179 l 346 1275 l 308 1210 z "},"ằ":{"ha":675,"x_min":0,"x_max":0,"o":"m 450 260 b 286 111 449 179 379 111 b 199 188 229 111 199 136 b 335 294 199 246 232 275 b 451 335 401 307 433 317 z m 632 0 l 632 432 b 340 701 632 604 557 701 b 40 461 121 701 43 603 l 208 461 b 332 563 217 522 250 563 b 447 492 403 563 447 536 b 332 414 447 444 422 426 b 18 169 150 389 18 367 b 246 -18 18 58 90 -18 b 453 61 338 -18 410 14 b 464 0 454 40 458 17 z m 419 928 b 344 844 419 875 390 844 b 268 928 297 844 269 875 l 189 928 b 344 769 189 822 265 769 b 499 928 424 769 499 822 z m 383 894 l 408 940 l 243 1036 l 206 971 z "},"Ẳ":{"ha":893,"x_min":0,"x_max":0,"o":"m 558 349 l 324 349 l 442 715 l 443 715 z m 882 0 l 557 922 l 333 922 l 4 0 l 208 0 l 274 190 l 614 190 l 672 0 z m 522 1167 b 447 1083 522 1114 493 1083 b 371 1167 400 1083 372 1114 l 292 1167 b 447 1008 292 1061 368 1008 b 601 1167 526 1008 601 1061 z m 463 1104 b 524 1213 463 1154 524 1154 b 447 1275 524 1250 494 1275 b 375 1249 428 1275 396 1267 l 393 1193 b 436 1208 411 1204 425 1208 b 461 1190 453 1208 461 1200 b 438 1160 461 1174 451 1168 b 411 1104 417 1147 411 1128 z "},"ẳ":{"ha":675,"x_min":0,"x_max":0,"o":"m 450 260 b 286 111 449 179 379 111 b 199 188 229 111 199 136 b 335 294 199 246 232 275 b 451 335 401 307 433 317 z m 632 0 l 632 432 b 340 701 632 604 557 701 b 40 461 121 701 43 603 l 208 461 b 332 563 217 522 250 563 b 447 492 403 563 447 536 b 332 414 447 444 422 426 b 18 169 150 389 18 367 b 246 -18 18 58 90 -18 b 453 61 338 -18 410 14 b 464 0 454 40 458 17 z m 417 928 b 342 844 417 875 388 844 b 265 928 294 844 267 875 l 186 928 b 342 769 186 822 263 769 b 496 928 421 769 496 822 z m 357 865 b 418 974 357 915 418 915 b 342 1036 418 1011 389 1036 b 269 1010 322 1036 290 1028 l 288 954 b 331 969 306 965 319 969 b 356 951 347 969 356 961 b 332 921 356 935 346 929 b 306 865 311 908 306 889 z "},"Ẵ":{"ha":893,"x_min":0,"x_max":0,"o":"m 558 349 l 324 349 l 442 715 l 443 715 z m 882 0 l 557 922 l 333 922 l 4 0 l 208 0 l 274 190 l 614 190 l 672 0 z m 519 1275 b 499 1240 517 1253 508 1240 b 400 1272 461 1240 438 1272 b 329 1210 369 1272 343 1256 l 381 1185 b 404 1217 389 1210 396 1217 b 500 1186 439 1217 464 1186 b 574 1261 532 1186 563 1210 z m 522 1167 b 447 1083 522 1114 493 1083 b 371 1167 400 1083 372 1114 l 292 1167 b 447 1008 292 1061 368 1008 b 601 1167 526 1008 601 1061 z "},"ẵ":{"ha":675,"x_min":0,"x_max":0,"o":"m 450 260 b 286 111 449 179 379 111 b 199 188 229 111 199 136 b 335 294 199 246 232 275 b 451 335 401 307 433 317 z m 632 0 l 632 432 b 340 701 632 604 557 701 b 40 461 121 701 43 603 l 208 461 b 332 563 217 522 250 563 b 447 492 403 563 447 536 b 332 414 447 444 422 426 b 18 169 150 389 18 367 b 246 -18 18 58 90 -18 b 453 61 338 -18 410 14 b 464 0 454 40 458 17 z m 411 1036 b 390 1001 408 1014 400 1001 b 292 1033 353 1001 329 1033 b 221 971 261 1033 235 1017 l 272 946 b 296 978 281 971 288 978 b 392 947 331 978 356 947 b 465 1022 424 947 454 971 z m 414 928 b 339 844 414 875 385 844 b 263 928 292 844 264 875 l 183 928 b 339 769 183 822 260 769 b 493 928 418 769 493 822 z "},"Ặ":{"ha":893,"x_min":0,"x_max":0,"o":"m 558 349 l 324 349 l 442 715 l 443 715 z m 882 0 l 557 922 l 333 922 l 4 0 l 208 0 l 274 190 l 614 190 l 672 0 z m 560 1275 b 449 1154 557 1199 517 1154 b 338 1275 381 1154 340 1199 l 224 1275 b 449 1044 224 1121 333 1044 b 674 1275 564 1044 674 1121 z m 543 -286 l 543 -114 l 363 -114 l 363 -286 z "},"ặ":{"ha":675,"x_min":0,"x_max":0,"o":"m 450 260 b 286 111 449 179 379 111 b 199 188 229 111 199 136 b 335 294 199 246 232 275 b 451 335 401 307 433 317 z m 632 0 l 632 432 b 340 701 632 604 557 701 b 40 461 121 701 43 603 l 208 461 b 332 563 217 522 250 563 b 447 492 403 563 447 536 b 332 414 447 444 422 426 b 18 169 150 389 18 367 b 246 -18 18 58 90 -18 b 453 61 338 -18 410 14 b 464 0 454 40 458 17 z m 450 1036 b 339 915 447 960 407 915 b 228 1036 271 915 231 960 l 114 1036 b 339 806 114 882 224 806 b 564 1036 454 806 564 882 z m 421 -286 l 421 -114 l 240 -114 l 240 -286 z "},"Ẹ":{"ha":739,"x_min":0,"x_max":0,"o":"m 732 0 l 732 164 l 219 164 l 219 401 l 671 401 l 671 564 l 219 564 l 219 761 l 710 761 l 710 922 l 32 922 l 32 0 z m 474 -286 l 474 -114 l 293 -114 l 293 -286 z "},"ẹ":{"ha":699,"x_min":0,"x_max":0,"o":"m 207 408 b 346 558 214 503 274 558 b 486 408 417 558 483 510 z m 672 294 b 351 701 672 565 561 701 b 21 354 142 701 21 565 b 363 -18 21 107 135 -18 b 663 201 508 -18 621 61 l 476 201 b 354 125 464 154 413 125 b 201 294 265 125 207 192 z m 449 -286 l 449 -114 l 268 -114 l 268 -286 z "},"Ẻ":{"ha":739,"x_min":0,"x_max":0,"o":"m 732 0 l 732 164 l 219 164 l 219 401 l 671 401 l 671 564 l 219 564 l 219 761 l 710 761 l 710 922 l 32 922 l 32 0 z m 411 1046 b 493 1190 411 1111 493 1113 b 390 1275 493 1242 454 1275 b 293 1240 364 1275 321 1264 l 318 1164 b 375 1185 342 1181 360 1185 b 408 1161 399 1185 408 1175 b 376 1119 408 1139 396 1131 b 342 1046 349 1103 342 1078 z "},"ẻ":{"ha":699,"x_min":0,"x_max":0,"o":"m 207 408 b 346 558 214 503 274 558 b 486 408 417 558 483 510 z m 672 294 b 351 701 672 565 561 701 b 21 354 142 701 21 565 b 363 -18 21 107 135 -18 b 663 201 508 -18 621 61 l 476 201 b 354 125 464 154 413 125 b 201 294 265 125 207 192 z m 381 807 b 463 951 381 872 463 874 b 360 1036 463 1003 424 1036 b 263 1001 333 1036 290 1025 l 288 925 b 344 946 311 942 329 946 b 378 922 368 946 378 936 b 346 881 378 900 365 892 b 311 807 318 864 311 839 z "},"Ẽ":{"ha":739,"x_min":0,"x_max":0,"o":"m 732 0 l 732 164 l 219 164 l 219 401 l 671 401 l 671 564 l 219 564 l 219 761 l 710 761 l 710 922 l 32 922 l 32 0 z m 514 1213 b 458 1147 506 1164 475 1147 b 274 1214 406 1147 358 1214 b 139 1092 217 1214 168 1182 l 235 1040 b 289 1101 251 1092 278 1101 b 467 1039 349 1101 396 1039 b 618 1175 526 1039 588 1075 z "},"ẽ":{"ha":699,"x_min":0,"x_max":0,"o":"m 207 408 b 346 558 214 503 274 558 b 486 408 417 558 483 510 z m 672 294 b 351 701 672 565 561 701 b 21 354 142 701 21 565 b 363 -18 21 107 135 -18 b 663 201 508 -18 621 61 l 476 201 b 354 125 464 154 413 125 b 201 294 265 125 207 192 z m 486 974 b 431 908 478 925 447 908 b 246 975 378 908 331 975 b 111 853 189 975 140 943 l 207 801 b 261 863 224 853 250 863 b 439 800 321 863 368 800 b 590 936 499 800 560 836 z "},"Ế":{"ha":739,"x_min":0,"x_max":0,"o":"m 732 0 l 732 164 l 219 164 l 219 401 l 671 401 l 671 564 l 219 564 l 219 761 l 710 761 l 710 922 l 32 922 l 32 0 z m 547 1032 l 603 1093 l 450 1253 l 324 1253 l 171 1093 l 225 1032 l 386 1172 z m 899 1158 l 844 1253 l 607 1114 l 642 1050 z "},"ế":{"ha":699,"x_min":0,"x_max":0,"o":"m 207 408 b 346 558 214 503 274 558 b 486 408 417 558 483 510 z m 672 294 b 351 701 672 565 561 701 b 21 354 142 701 21 565 b 363 -18 21 107 135 -18 b 663 201 508 -18 621 61 l 476 201 b 354 125 464 154 413 125 b 201 294 265 125 207 192 z m 517 793 l 572 854 l 419 1014 l 293 1014 l 140 854 l 194 793 l 356 933 z m 868 919 l 814 1014 l 576 875 l 611 811 z "},"Ề":{"ha":739,"x_min":0,"x_max":0,"o":"m 732 0 l 732 164 l 219 164 l 219 401 l 671 401 l 671 564 l 219 564 l 219 761 l 710 761 l 710 922 l 32 922 l 32 0 z m 550 1032 l 604 1093 l 451 1253 l 325 1253 l 172 1093 l 228 1032 l 389 1172 z m 833 1050 l 868 1114 l 631 1253 l 576 1158 z "},"ề":{"ha":699,"x_min":0,"x_max":0,"o":"m 207 408 b 346 558 214 503 274 558 b 486 408 417 558 483 510 z m 672 294 b 351 701 672 565 561 701 b 21 354 142 701 21 565 b 363 -18 21 107 135 -18 b 663 201 508 -18 621 61 l 476 201 b 354 125 464 154 413 125 b 201 294 265 125 207 192 z m 518 793 l 572 854 l 419 1014 l 293 1014 l 140 854 l 196 793 l 357 933 z m 801 811 l 836 875 l 599 1014 l 544 919 z "},"Ể":{"ha":739,"x_min":0,"x_max":0,"o":"m 732 0 l 732 164 l 219 164 l 219 401 l 671 401 l 671 564 l 219 564 l 219 761 l 710 761 l 710 922 l 32 922 l 32 0 z m 700 1046 b 782 1190 700 1111 782 1113 b 679 1275 782 1242 743 1275 b 582 1240 653 1275 610 1264 l 607 1164 b 664 1185 631 1181 649 1185 b 697 1161 688 1185 697 1175 b 665 1119 697 1139 685 1131 b 631 1046 638 1103 631 1078 z m 547 1032 l 601 1093 l 449 1253 l 322 1253 l 169 1093 l 225 1032 l 386 1172 z "},"ể":{"ha":699,"x_min":0,"x_max":0,"o":"m 207 408 b 346 558 214 503 274 558 b 486 408 417 558 483 510 z m 672 294 b 351 701 672 565 561 701 b 21 354 142 701 21 565 b 363 -18 21 107 135 -18 b 663 201 508 -18 621 61 l 476 201 b 354 125 464 154 413 125 b 201 294 265 125 207 192 z m 665 807 b 747 951 665 872 747 874 b 644 1036 747 1003 708 1036 b 547 1001 618 1036 575 1025 l 572 925 b 629 946 596 942 614 946 b 663 922 653 946 663 936 b 631 881 663 900 650 892 b 596 807 603 864 596 839 z m 513 793 l 567 854 l 414 1014 l 288 1014 l 135 854 l 190 793 l 351 933 z "},"Ễ":{"ha":739,"x_min":0,"x_max":0,"o":"m 732 0 l 732 164 l 219 164 l 219 401 l 671 401 l 671 564 l 219 564 l 219 761 l 710 761 l 710 922 l 32 922 l 32 0 z m 489 1275 b 450 1238 483 1246 469 1238 b 303 1269 404 1238 368 1269 b 206 1182 260 1269 222 1244 l 274 1154 b 313 1199 285 1183 299 1199 b 451 1171 346 1199 406 1171 b 560 1256 496 1171 543 1189 z m 569 1050 l 436 1161 l 325 1161 l 192 1050 l 240 1008 l 381 1106 l 522 1008 z "},"ễ":{"ha":699,"x_min":0,"x_max":0,"o":"m 207 408 b 346 558 214 503 274 558 b 486 408 417 558 483 510 z m 672 294 b 351 701 672 565 561 701 b 21 354 142 701 21 565 b 363 -18 21 107 135 -18 b 663 201 508 -18 621 61 l 476 201 b 354 125 464 154 413 125 b 201 294 265 125 207 192 z m 458 1036 b 419 999 453 1007 439 999 b 272 1031 374 999 338 1031 b 175 943 229 1031 192 1006 l 243 915 b 282 960 254 944 268 960 b 421 932 315 960 375 932 b 529 1017 465 932 513 950 z m 539 811 l 406 922 l 294 922 l 161 811 l 210 769 l 350 867 l 492 769 z "},"Ệ":{"ha":739,"x_min":0,"x_max":0,"o":"m 732 0 l 732 164 l 219 164 l 219 401 l 671 401 l 671 564 l 219 564 l 219 761 l 710 761 l 710 922 l 32 922 l 32 0 z m 561 1018 l 625 1089 l 447 1275 l 300 1275 l 122 1089 l 186 1018 l 374 1182 z m 467 -286 l 467 -114 l 286 -114 l 286 -286 z "},"ệ":{"ha":699,"x_min":0,"x_max":0,"o":"m 207 408 b 346 558 214 503 274 558 b 486 408 417 558 483 510 z m 672 294 b 351 701 672 565 561 701 b 21 354 142 701 21 565 b 363 -18 21 107 135 -18 b 663 201 508 -18 621 61 l 476 201 b 354 125 464 154 413 125 b 201 294 265 125 207 192 z m 539 779 l 603 850 l 425 1036 l 278 1036 l 100 850 l 164 779 l 351 943 z m 446 -286 l 446 -114 l 265 -114 l 265 -286 z "},"Ỉ":{"ha":260,"x_min":0,"x_max":0,"o":"m 225 0 l 225 922 l 32 922 l 32 0 z m 156 1046 b 238 1190 156 1111 238 1113 b 135 1275 238 1242 199 1275 b 38 1240 108 1275 65 1264 l 63 1164 b 119 1185 86 1181 104 1185 b 153 1161 143 1185 153 1175 b 121 1119 153 1139 140 1131 b 86 1046 93 1103 86 1078 z "},"ỉ":{"ha":267,"x_min":0,"x_max":0,"o":"m 221 0 l 221 683 l 40 683 l 40 0 z m 161 807 b 243 951 161 872 243 874 b 140 1036 243 1003 204 1036 b 43 1001 114 1036 71 1025 l 68 925 b 125 946 92 942 110 946 b 158 922 149 946 158 936 b 126 881 158 900 146 892 b 92 807 99 864 92 839 z "},"Ị":{"ha":260,"x_min":0,"x_max":0,"o":"m 225 0 l 225 922 l 32 922 l 32 0 z m 228 -286 l 228 -114 l 47 -114 l 47 -286 z "},"ị":{"ha":267,"x_min":0,"x_max":0,"o":"m 221 0 l 221 683 l 40 683 l 40 0 z m 221 765 l 221 933 l 40 933 l 40 765 z m 231 -286 l 231 -114 l 50 -114 l 50 -286 z "},"Ọ":{"ha":931,"x_min":0,"x_max":0,"o":"m 464 133 b 211 449 304 133 211 231 b 464 782 211 667 301 782 b 714 449 625 782 714 667 b 464 133 714 231 603 133 z m 464 -32 b 904 449 747 -32 904 132 b 464 953 904 765 747 953 b 21 453 181 953 21 765 b 464 -32 21 142 181 -32 z m 563 -286 l 563 -114 l 382 -114 l 382 -286 z "},"ọ":{"ha":749,"x_min":0,"x_max":0,"o":"m 372 133 b 207 342 263 133 207 203 b 372 549 207 481 263 549 b 538 342 482 549 538 481 b 372 133 538 203 482 133 z m 372 -18 b 719 342 585 -18 719 125 b 372 701 719 560 586 701 b 21 342 156 701 21 558 b 372 -18 21 129 151 -18 z m 471 -286 l 471 -114 l 290 -114 l 290 -286 z "},"Ỏ":{"ha":931,"x_min":0,"x_max":0,"o":"m 464 133 b 211 449 304 133 211 231 b 464 782 211 667 301 782 b 714 449 625 782 714 667 b 464 133 714 231 603 133 z m 464 -32 b 904 449 747 -32 904 132 b 464 953 904 765 747 953 b 21 453 181 953 21 765 b 464 -32 21 142 181 -32 z m 494 1046 b 576 1190 494 1111 576 1113 b 474 1275 576 1242 538 1275 b 376 1240 447 1275 404 1264 l 401 1164 b 458 1185 425 1181 443 1185 b 492 1161 482 1185 492 1175 b 460 1119 492 1139 479 1131 b 425 1046 432 1103 425 1078 z "},"ỏ":{"ha":749,"x_min":0,"x_max":0,"o":"m 372 133 b 207 342 263 133 207 203 b 372 549 207 481 263 549 b 538 342 482 549 538 481 b 372 133 538 203 482 133 z m 372 -18 b 719 342 585 -18 719 125 b 372 701 719 560 586 701 b 21 342 156 701 21 558 b 372 -18 21 129 151 -18 z m 403 807 b 485 951 403 872 485 874 b 382 1036 485 1003 446 1036 b 285 1001 356 1036 313 1025 l 310 925 b 367 946 333 942 351 946 b 400 922 390 946 400 936 b 368 881 400 900 388 892 b 333 807 340 864 333 839 z "},"Ố":{"ha":931,"x_min":0,"x_max":0,"o":"m 464 133 b 211 449 304 133 211 231 b 464 782 211 667 301 782 b 714 449 625 782 714 667 b 464 133 714 231 603 133 z m 464 -32 b 904 449 747 -32 904 132 b 464 953 904 765 747 953 b 21 453 181 953 21 765 b 464 -32 21 142 181 -32 z m 633 1032 l 689 1093 l 536 1253 l 410 1253 l 257 1093 l 311 1032 l 472 1172 z m 985 1158 l 931 1253 l 693 1114 l 728 1050 z "},"ố":{"ha":749,"x_min":0,"x_max":0,"o":"m 372 133 b 207 342 263 133 207 203 b 372 549 207 481 263 549 b 538 342 482 549 538 481 b 372 133 538 203 482 133 z m 372 -18 b 719 342 585 -18 719 125 b 372 701 719 560 586 701 b 21 342 156 701 21 558 b 372 -18 21 129 151 -18 z m 542 793 l 597 854 l 444 1014 l 318 1014 l 165 854 l 219 793 l 381 933 z m 893 919 l 839 1014 l 601 875 l 636 811 z "},"Ồ":{"ha":931,"x_min":0,"x_max":0,"o":"m 464 133 b 211 449 304 133 211 231 b 464 782 211 667 301 782 b 714 449 625 782 714 667 b 464 133 714 231 603 133 z m 464 -32 b 904 449 747 -32 904 132 b 464 953 904 765 747 953 b 21 453 181 953 21 765 b 464 -32 21 142 181 -32 z m 636 1032 l 690 1093 l 538 1253 l 411 1253 l 258 1093 l 314 1032 l 475 1172 z m 919 1050 l 954 1114 l 717 1253 l 663 1158 z "},"ồ":{"ha":749,"x_min":0,"x_max":0,"o":"m 372 133 b 207 342 263 133 207 203 b 372 549 207 481 263 549 b 538 342 482 549 538 481 b 372 133 538 203 482 133 z m 372 -18 b 719 342 585 -18 719 125 b 372 701 719 560 586 701 b 21 342 156 701 21 558 b 372 -18 21 129 151 -18 z m 547 793 l 601 854 l 449 1014 l 322 1014 l 169 854 l 225 793 l 386 933 z m 831 811 l 865 875 l 628 1014 l 574 919 z "},"Ổ":{"ha":931,"x_min":0,"x_max":0,"o":"m 464 133 b 211 449 304 133 211 231 b 464 782 211 667 301 782 b 714 449 625 782 714 667 b 464 133 714 231 603 133 z m 464 -32 b 904 449 747 -32 904 132 b 464 953 904 765 747 953 b 21 453 181 953 21 765 b 464 -32 21 142 181 -32 z m 782 1046 b 864 1190 782 1111 864 1113 b 761 1275 864 1242 825 1275 b 664 1240 735 1275 692 1264 l 689 1164 b 746 1185 713 1181 731 1185 b 779 1161 769 1185 779 1175 b 747 1119 779 1139 767 1131 b 713 1046 719 1103 713 1078 z m 629 1032 l 683 1093 l 531 1253 l 404 1253 l 251 1093 l 307 1032 l 468 1172 z "},"ổ":{"ha":749,"x_min":0,"x_max":0,"o":"m 372 133 b 207 342 263 133 207 203 b 372 549 207 481 263 549 b 538 342 482 549 538 481 b 372 133 538 203 482 133 z m 372 -18 b 719 342 585 -18 719 125 b 372 701 719 560 586 701 b 21 342 156 701 21 558 b 372 -18 21 129 151 -18 z m 692 807 b 774 951 692 872 774 874 b 671 1036 774 1003 735 1036 b 574 1001 644 1036 601 1025 l 599 925 b 656 946 622 942 640 946 b 689 922 679 946 689 936 b 657 881 689 900 676 892 b 622 807 629 864 622 839 z m 539 793 l 593 854 l 440 1014 l 314 1014 l 161 854 l 217 793 l 378 933 z "},"Ỗ":{"ha":931,"x_min":0,"x_max":0,"o":"m 464 133 b 211 449 304 133 211 231 b 464 782 211 667 301 782 b 714 449 625 782 714 667 b 464 133 714 231 603 133 z m 464 -32 b 904 449 747 -32 904 132 b 464 953 904 765 747 953 b 21 453 181 953 21 765 b 464 -32 21 142 181 -32 z m 575 1275 b 536 1238 569 1246 556 1238 b 389 1269 490 1238 454 1269 b 292 1182 346 1269 308 1244 l 360 1154 b 399 1199 371 1183 385 1199 b 538 1171 432 1199 492 1171 b 646 1256 582 1171 629 1189 z m 656 1050 l 522 1161 l 411 1161 l 278 1050 l 326 1008 l 467 1106 l 608 1008 z "},"ỗ":{"ha":749,"x_min":0,"x_max":0,"o":"m 372 133 b 207 342 263 133 207 203 b 372 549 207 481 263 549 b 538 342 482 549 538 481 b 372 133 538 203 482 133 z m 372 -18 b 719 342 585 -18 719 125 b 372 701 719 560 586 701 b 21 342 156 701 21 558 b 372 -18 21 129 151 -18 z m 483 1036 b 444 999 478 1007 464 999 b 297 1031 399 999 363 1031 b 200 943 254 1031 217 1006 l 268 915 b 307 960 279 944 293 960 b 446 932 340 960 400 932 b 554 1017 490 932 538 950 z m 564 811 l 431 922 l 319 922 l 186 811 l 235 769 l 375 867 l 517 769 z "},"Ộ":{"ha":931,"x_min":0,"x_max":0,"o":"m 464 133 b 211 449 304 133 211 231 b 464 782 211 667 301 782 b 714 449 625 782 714 667 b 464 133 714 231 603 133 z m 464 -32 b 904 449 747 -32 904 132 b 464 953 904 765 747 953 b 21 453 181 953 21 765 b 464 -32 21 142 181 -32 z m 654 1018 l 718 1089 l 540 1275 l 393 1275 l 215 1089 l 279 1018 l 467 1182 z m 563 -286 l 563 -114 l 382 -114 l 382 -286 z "},"ộ":{"ha":749,"x_min":0,"x_max":0,"o":"m 372 133 b 207 342 263 133 207 203 b 372 549 207 481 263 549 b 538 342 482 549 538 481 b 372 133 538 203 482 133 z m 372 -18 b 719 342 585 -18 719 125 b 372 701 719 560 586 701 b 21 342 156 701 21 558 b 372 -18 21 129 151 -18 z m 563 779 l 626 850 l 449 1036 l 301 1036 l 124 850 l 188 779 l 375 943 z m 471 -286 l 471 -114 l 290 -114 l 290 -286 z "},"Ớ":{"ha":1068,"x_min":0,"x_max":0,"o":"m 947 975 b 960 897 954 958 960 928 b 893 810 960 853 947 810 b 750 858 843 810 794 821 b 464 953 678 919 582 953 b 21 453 181 953 21 765 b 464 -32 21 142 181 -32 b 904 449 747 -32 904 132 b 843 739 904 563 883 661 b 946 718 879 725 914 718 b 1074 867 1021 718 1074 761 b 1044 975 1074 911 1063 954 z m 464 133 b 211 449 304 133 211 231 b 464 782 211 667 301 782 b 714 449 625 782 714 667 b 464 133 714 231 603 133 z m 686 1139 l 621 1253 l 333 1085 l 376 1008 z "},"ớ":{"ha":904,"x_min":0,"x_max":0,"o":"m 592 900 l 526 1014 l 239 846 l 282 769 z m 783 754 b 796 676 790 738 796 707 b 729 589 796 632 783 589 b 586 638 685 589 642 597 b 372 701 529 679 457 701 b 21 342 156 701 21 558 b 372 -18 21 129 151 -18 b 719 342 585 -18 719 125 b 683 517 719 407 707 467 b 799 497 714 504 751 497 b 910 646 881 497 910 574 b 881 754 910 690 899 733 z m 372 133 b 207 342 263 133 207 203 b 372 549 207 481 263 549 b 538 342 482 549 538 481 b 372 133 538 203 482 133 z "},"Ờ":{"ha":1068,"x_min":0,"x_max":0,"o":"m 947 975 b 960 897 954 958 960 928 b 893 810 960 853 947 810 b 750 858 843 810 794 821 b 464 953 678 919 582 953 b 21 453 181 953 21 765 b 464 -32 21 142 181 -32 b 904 449 747 -32 904 132 b 843 739 904 563 883 661 b 946 718 879 725 914 718 b 1074 867 1021 718 1074 761 b 1044 975 1074 911 1063 954 z m 464 133 b 211 449 304 133 211 231 b 464 782 211 667 301 782 b 714 449 625 782 714 667 b 464 133 714 231 603 133 z m 560 1008 l 603 1085 l 315 1253 l 250 1139 z "},"ờ":{"ha":904,"x_min":0,"x_max":0,"o":"m 468 769 l 511 846 l 224 1014 l 158 900 z m 783 754 b 796 676 790 738 796 707 b 729 589 796 632 783 589 b 586 638 685 589 642 597 b 372 701 529 679 457 701 b 21 342 156 701 21 558 b 372 -18 21 129 151 -18 b 719 342 585 -18 719 125 b 683 517 719 407 707 467 b 799 497 714 504 751 497 b 910 646 881 497 910 574 b 881 754 910 690 899 733 z m 372 133 b 207 342 263 133 207 203 b 372 549 207 481 263 549 b 538 342 482 549 538 481 b 372 133 538 203 482 133 z "},"Ở":{"ha":1068,"x_min":0,"x_max":0,"o":"m 947 975 b 960 897 954 958 960 928 b 893 810 960 853 947 810 b 750 858 843 810 794 821 b 464 953 678 919 582 953 b 21 453 181 953 21 765 b 464 -32 21 142 181 -32 b 904 449 747 -32 904 132 b 843 739 904 563 883 661 b 946 718 879 725 914 718 b 1074 867 1021 718 1074 761 b 1044 975 1074 911 1063 954 z m 464 133 b 211 449 304 133 211 231 b 464 782 211 667 301 782 b 714 449 625 782 714 667 b 464 133 714 231 603 133 z m 497 1046 b 579 1190 497 1111 579 1113 b 476 1275 579 1242 540 1275 b 379 1240 450 1275 407 1264 l 404 1164 b 461 1185 428 1181 446 1185 b 494 1161 485 1185 494 1175 b 463 1119 494 1139 482 1131 b 428 1046 435 1103 428 1078 z "},"ở":{"ha":904,"x_min":0,"x_max":0,"o":"m 783 754 b 796 676 790 738 796 707 b 729 589 796 632 783 589 b 586 638 685 589 642 597 b 372 701 529 679 457 701 b 21 342 156 701 21 558 b 372 -18 21 129 151 -18 b 719 342 585 -18 719 125 b 683 517 719 407 707 467 b 799 497 714 504 751 497 b 910 646 881 497 910 574 b 881 754 910 690 899 733 z m 372 133 b 207 342 263 133 207 203 b 372 549 207 481 263 549 b 538 342 482 549 538 481 b 372 133 538 203 482 133 z m 414 807 b 496 951 414 872 496 874 b 393 1036 496 1003 457 1036 b 296 1001 367 1036 324 1025 l 321 925 b 378 946 344 942 363 946 b 411 922 401 946 411 936 b 379 881 411 900 399 892 b 344 807 351 864 344 839 z "},"Ỡ":{"ha":1068,"x_min":0,"x_max":0,"o":"m 947 975 b 960 897 954 958 960 928 b 893 810 960 853 947 810 b 750 858 843 810 794 821 b 464 953 678 919 582 953 b 21 453 181 953 21 765 b 464 -32 21 142 181 -32 b 904 449 747 -32 904 132 b 843 739 904 563 883 661 b 946 718 879 725 914 718 b 1074 867 1021 718 1074 761 b 1044 975 1074 911 1063 954 z m 464 133 b 211 449 304 133 211 231 b 464 782 211 667 301 782 b 714 449 625 782 714 667 b 464 133 714 231 603 133 z m 604 1213 b 549 1147 596 1164 565 1147 b 364 1214 496 1147 449 1214 b 229 1092 307 1214 258 1182 l 325 1040 b 379 1101 342 1092 368 1101 b 557 1039 439 1101 486 1039 b 708 1175 617 1039 678 1075 z "},"ỡ":{"ha":904,"x_min":0,"x_max":0,"o":"m 783 754 b 796 676 790 738 796 707 b 729 589 796 632 783 589 b 586 638 685 589 642 597 b 372 701 529 679 457 701 b 21 342 156 701 21 558 b 372 -18 21 129 151 -18 b 719 342 585 -18 719 125 b 683 517 719 407 707 467 b 799 497 714 504 751 497 b 910 646 881 497 910 574 b 881 754 910 690 899 733 z m 372 133 b 207 342 263 133 207 203 b 372 549 207 481 263 549 b 538 342 482 549 538 481 b 372 133 538 203 482 133 z m 511 974 b 456 908 503 925 472 908 b 271 975 403 908 356 975 b 136 853 214 975 165 943 l 232 801 b 286 863 249 853 275 863 b 464 800 346 863 393 800 b 615 936 524 800 585 836 z "},"Ợ":{"ha":1068,"x_min":0,"x_max":0,"o":"m 947 975 b 960 897 954 958 960 928 b 893 810 960 853 947 810 b 750 858 843 810 794 821 b 464 953 678 919 582 953 b 21 453 181 953 21 765 b 464 -32 21 142 181 -32 b 904 449 747 -32 904 132 b 843 739 904 563 883 661 b 946 718 879 725 914 718 b 1074 867 1021 718 1074 761 b 1044 975 1074 911 1063 954 z m 464 133 b 211 449 304 133 211 231 b 464 782 211 667 301 782 b 714 449 625 782 714 667 b 464 133 714 231 603 133 z m 557 -286 l 557 -114 l 376 -114 l 376 -286 z "},"ợ":{"ha":904,"x_min":0,"x_max":0,"o":"m 783 754 b 796 676 790 738 796 707 b 729 589 796 632 783 589 b 586 638 685 589 642 597 b 372 701 529 679 457 701 b 21 342 156 701 21 558 b 372 -18 21 129 151 -18 b 719 342 585 -18 719 125 b 683 517 719 407 707 467 b 799 497 714 504 751 497 b 910 646 881 497 910 574 b 881 754 910 690 899 733 z m 372 133 b 207 342 263 133 207 203 b 372 549 207 481 263 549 b 538 342 482 549 538 481 b 372 133 538 203 482 133 z m 472 -286 l 472 -114 l 292 -114 l 292 -286 z "},"Ụ":{"ha":814,"x_min":0,"x_max":0,"o":"m 578 307 b 393 128 578 186 517 128 b 228 314 289 128 228 200 l 228 922 l 32 922 l 32 296 b 396 -32 32 74 172 -32 b 775 307 638 -32 775 83 l 775 922 l 578 922 z m 504 -286 l 504 -114 l 324 -114 l 324 -286 z "},"ụ":{"ha":694,"x_min":0,"x_max":0,"o":"m 651 0 l 651 683 l 472 683 l 472 289 b 332 133 472 199 424 133 b 217 261 256 133 217 175 l 217 683 l 36 683 l 36 233 b 268 -18 36 83 132 -18 b 481 96 363 -18 433 18 l 481 0 z m 456 -286 l 456 -114 l 275 -114 l 275 -286 z "},"Ủ":{"ha":814,"x_min":0,"x_max":0,"o":"m 578 307 b 393 128 578 186 517 128 b 228 314 289 128 228 200 l 228 922 l 32 922 l 32 296 b 396 -32 32 74 172 -32 b 775 307 638 -32 775 83 l 775 922 l 578 922 z m 436 1046 b 518 1190 436 1111 518 1113 b 415 1275 518 1242 479 1275 b 318 1240 389 1275 346 1264 l 343 1164 b 400 1185 367 1181 385 1185 b 433 1161 424 1185 433 1175 b 401 1119 433 1139 421 1131 b 367 1046 374 1103 367 1078 z "},"ủ":{"ha":694,"x_min":0,"x_max":0,"o":"m 651 0 l 651 683 l 472 683 l 472 289 b 332 133 472 199 424 133 b 217 261 256 133 217 175 l 217 683 l 36 683 l 36 233 b 268 -18 36 83 132 -18 b 481 96 363 -18 433 18 l 481 0 z m 379 807 b 461 951 379 872 461 874 b 358 1036 461 1003 422 1036 b 261 1001 332 1036 289 1025 l 286 925 b 343 946 310 942 328 946 b 376 922 367 946 376 936 b 344 881 376 900 364 892 b 310 807 317 864 310 839 z "},"Ứ":{"ha":1039,"x_min":0,"x_max":0,"o":"m 578 307 b 403 128 578 186 511 128 b 228 314 283 128 228 200 l 228 922 l 32 922 l 32 296 b 399 -32 32 74 171 -32 b 775 307 636 -32 775 83 l 775 753 b 901 717 818 729 863 717 b 1032 865 976 717 1032 763 b 1003 975 1032 911 1021 954 l 906 975 b 918 897 913 958 918 928 b 844 810 918 833 894 810 b 775 821 828 810 800 813 l 775 922 l 578 922 z m 632 1139 l 567 1253 l 279 1085 l 322 1008 z "},"ứ":{"ha":886,"x_min":0,"x_max":0,"o":"m 569 900 l 504 1014 l 217 846 l 260 769 z m 651 0 l 651 522 b 761 497 690 506 728 497 b 890 644 836 497 890 542 b 861 754 890 690 879 733 l 764 754 b 776 675 771 738 776 707 b 704 589 776 628 764 589 b 651 594 693 589 671 590 l 651 683 l 472 683 l 472 289 b 331 133 472 197 424 133 b 217 261 256 133 217 175 l 217 683 l 36 683 l 36 233 b 272 -18 36 83 129 -18 b 481 96 357 -18 433 17 l 481 0 z "},"Ừ":{"ha":1039,"x_min":0,"x_max":0,"o":"m 578 307 b 403 128 578 186 511 128 b 228 314 283 128 228 200 l 228 922 l 32 922 l 32 296 b 399 -32 32 74 171 -32 b 775 307 636 -32 775 83 l 775 753 b 901 717 818 729 863 717 b 1032 865 976 717 1032 763 b 1003 975 1032 911 1021 954 l 906 975 b 918 897 913 958 918 928 b 844 810 918 833 894 810 b 775 821 828 810 800 813 l 775 922 l 578 922 z m 507 1008 l 550 1085 l 263 1253 l 197 1139 z "},"ừ":{"ha":886,"x_min":0,"x_max":0,"o":"m 442 769 l 485 846 l 197 1014 l 132 900 z m 651 0 l 651 522 b 761 497 690 506 728 497 b 890 644 836 497 890 542 b 861 754 890 690 879 733 l 764 754 b 776 675 771 738 776 707 b 704 589 776 628 764 589 b 651 594 693 589 671 590 l 651 683 l 472 683 l 472 289 b 331 133 472 197 424 133 b 217 261 256 133 217 175 l 217 683 l 36 683 l 36 233 b 272 -18 36 83 129 -18 b 481 96 357 -18 433 17 l 481 0 z "},"Ử":{"ha":1039,"x_min":0,"x_max":0,"o":"m 578 307 b 403 128 578 186 511 128 b 228 314 283 128 228 200 l 228 922 l 32 922 l 32 296 b 399 -32 32 74 171 -32 b 775 307 636 -32 775 83 l 775 753 b 901 717 818 729 863 717 b 1032 865 976 717 1032 763 b 1003 975 1032 911 1021 954 l 906 975 b 918 897 913 958 918 928 b 844 810 918 833 894 810 b 775 821 828 810 800 813 l 775 922 l 578 922 z m 453 1046 b 535 1190 453 1111 535 1113 b 432 1275 535 1242 496 1275 b 335 1240 406 1275 363 1264 l 360 1164 b 417 1185 383 1181 401 1185 b 450 1161 440 1185 450 1175 b 418 1119 450 1139 438 1131 b 383 1046 390 1103 383 1078 z "},"ử":{"ha":886,"x_min":0,"x_max":0,"o":"m 651 0 l 651 522 b 761 497 690 506 728 497 b 890 644 836 497 890 542 b 861 754 890 690 879 733 l 764 754 b 776 675 771 738 776 707 b 704 589 776 628 764 589 b 651 594 693 589 671 590 l 651 683 l 472 683 l 472 289 b 331 133 472 197 424 133 b 217 261 256 133 217 175 l 217 683 l 36 683 l 36 233 b 272 -18 36 83 129 -18 b 481 96 357 -18 433 17 l 481 0 z m 381 807 b 463 951 381 872 463 874 b 360 1036 463 1003 424 1036 b 263 1001 333 1036 290 1025 l 288 925 b 344 946 311 942 329 946 b 378 922 368 946 378 936 b 346 881 378 900 365 892 b 311 807 318 864 311 839 z "},"Ữ":{"ha":1039,"x_min":0,"x_max":0,"o":"m 578 307 b 403 128 578 186 511 128 b 228 314 283 128 228 200 l 228 922 l 32 922 l 32 296 b 399 -32 32 74 171 -32 b 775 307 636 -32 775 83 l 775 753 b 901 717 818 729 863 717 b 1032 865 976 717 1032 763 b 1003 975 1032 911 1021 954 l 906 975 b 918 897 913 958 918 928 b 844 810 918 833 894 810 b 775 821 828 810 800 813 l 775 922 l 578 922 z m 544 1213 b 489 1147 536 1164 506 1147 b 304 1214 436 1147 389 1214 b 169 1092 247 1214 199 1182 l 265 1040 b 319 1101 282 1092 308 1101 b 497 1039 379 1101 426 1039 b 649 1175 557 1039 618 1075 z "},"ữ":{"ha":886,"x_min":0,"x_max":0,"o":"m 488 974 b 432 908 479 925 449 908 b 247 975 379 908 332 975 b 113 853 190 975 142 943 l 208 801 b 263 863 225 853 251 863 b 440 800 322 863 369 800 b 592 936 500 800 561 836 z m 651 0 l 651 522 b 761 497 690 506 728 497 b 890 644 836 497 890 542 b 861 754 890 690 879 733 l 764 754 b 776 675 771 738 776 707 b 704 589 776 628 764 589 b 651 594 693 589 671 590 l 651 683 l 472 683 l 472 289 b 331 133 472 197 424 133 b 217 261 256 133 217 175 l 217 683 l 36 683 l 36 233 b 272 -18 36 83 129 -18 b 481 96 357 -18 433 17 l 481 0 z "},"Ự":{"ha":1039,"x_min":0,"x_max":0,"o":"m 578 307 b 403 128 578 186 511 128 b 228 314 283 128 228 200 l 228 922 l 32 922 l 32 296 b 399 -32 32 74 171 -32 b 775 307 636 -32 775 83 l 775 753 b 901 717 818 729 863 717 b 1032 865 976 717 1032 763 b 1003 975 1032 911 1021 954 l 906 975 b 918 897 913 958 918 928 b 844 810 918 833 894 810 b 775 821 828 810 800 813 l 775 922 l 578 922 z m 507 -286 l 507 -114 l 326 -114 l 326 -286 z "},"ự":{"ha":886,"x_min":0,"x_max":0,"o":"m 651 0 l 651 522 b 761 497 690 506 728 497 b 890 644 836 497 890 542 b 861 754 890 690 879 733 l 764 754 b 776 675 771 738 776 707 b 704 589 776 628 764 589 b 651 594 693 589 671 590 l 651 683 l 472 683 l 472 289 b 331 133 472 197 424 133 b 217 261 256 133 217 175 l 217 683 l 36 683 l 36 233 b 272 -18 36 83 129 -18 b 481 96 357 -18 433 17 l 481 0 z m 442 -286 l 442 -114 l 261 -114 l 261 -286 z "},"Ỳ":{"ha":836,"x_min":0,"x_max":0,"o":"m 517 0 l 517 346 l 825 922 l 603 922 l 424 547 l 229 922 l 4 922 l 324 349 l 324 0 z m 521 1008 l 564 1085 l 276 1253 l 211 1139 z "},"ỳ":{"ha":697,"x_min":0,"x_max":0,"o":"m 471 -21 b 346 -168 471 -111 411 -168 b 204 -37 251 -168 204 -118 l 36 -37 b 338 -324 36 -214 138 -324 b 651 -18 513 -324 651 -211 l 651 683 l 471 683 l 471 267 b 332 139 471 193 414 139 b 217 267 256 139 217 182 l 217 683 l 36 683 l 36 240 b 286 -7 36 90 143 -7 b 471 90 371 -7 446 29 z m 442 769 l 485 846 l 197 1014 l 132 900 z "},"Ỷ":{"ha":836,"x_min":0,"x_max":0,"o":"m 517 0 l 517 346 l 825 922 l 603 922 l 424 547 l 229 922 l 4 922 l 324 349 l 324 0 z m 450 1046 b 532 1190 450 1111 532 1113 b 429 1275 532 1242 493 1275 b 332 1240 403 1275 360 1264 l 357 1164 b 414 1185 381 1181 399 1185 b 447 1161 438 1185 447 1175 b 415 1119 447 1139 435 1131 b 381 1046 388 1103 381 1078 z "},"ỷ":{"ha":697,"x_min":0,"x_max":0,"o":"m 471 -21 b 346 -168 471 -111 411 -168 b 204 -37 251 -168 204 -118 l 36 -37 b 338 -324 36 -214 138 -324 b 651 -18 513 -324 651 -211 l 651 683 l 471 683 l 471 267 b 332 139 471 193 414 139 b 217 267 256 139 217 182 l 217 683 l 36 683 l 36 240 b 286 -7 36 90 143 -7 b 471 90 371 -7 446 29 z m 381 807 b 463 951 381 872 463 874 b 360 1036 463 1003 424 1036 b 263 1001 333 1036 290 1025 l 288 925 b 344 946 311 942 329 946 b 378 922 368 946 378 936 b 346 881 378 900 365 892 b 311 807 318 864 311 839 z "},"–":{"ha":606,"x_min":0,"x_max":0,"o":"m 581 357 l 581 497 l 18 497 l 18 357 z "},"—":{"ha":857,"x_min":0,"x_max":0,"o":"m 833 360 l 833 496 l 22 496 l 22 360 z "},"‘":{"ha":268,"x_min":0,"x_max":0,"o":"m 224 1015 b 32 753 79 985 32 910 l 32 611 l 224 611 l 224 799 l 117 799 b 224 946 118 886 153 928 z "},"’":{"ha":268,"x_min":0,"x_max":0,"o":"m 33 556 b 225 818 178 586 225 661 l 225 960 l 33 960 l 33 772 l 140 772 b 33 625 139 685 104 643 z "},"‚":{"ha":283,"x_min":0,"x_max":0,"o":"m 56 -206 b 232 43 189 -176 232 -106 l 232 179 l 56 179 l 56 0 l 154 0 b 56 -140 153 -83 121 -124 z "},"“":{"ha":536,"x_min":0,"x_max":0,"o":"m 492 1015 b 300 753 347 985 300 910 l 300 611 l 492 611 l 492 799 l 385 799 b 492 946 386 886 421 928 z m 224 1015 b 32 753 79 985 32 910 l 32 611 l 224 611 l 224 799 l 117 799 b 224 946 118 886 153 928 z "},"”":{"ha":536,"x_min":0,"x_max":0,"o":"m 33 556 b 225 818 178 586 225 661 l 225 960 l 33 960 l 33 772 l 140 772 b 33 625 139 685 104 643 z m 304 556 b 496 818 449 586 496 661 l 496 960 l 304 960 l 304 772 l 411 772 b 304 625 410 685 375 643 z "},"„":{"ha":567,"x_min":0,"x_max":0,"o":"m 339 -206 b 515 43 472 -176 515 -106 l 515 179 l 339 179 l 339 0 l 438 0 b 339 -140 436 -83 404 -124 z m 56 -206 b 232 43 189 -176 232 -106 l 232 179 l 56 179 l 56 0 l 154 0 b 56 -140 153 -83 121 -124 z "},"†":{"ha":740,"x_min":0,"x_max":0,"o":"m 444 0 l 444 604 l 688 604 l 688 715 l 444 715 l 444 922 l 303 922 l 303 715 l 49 715 l 49 604 l 303 604 l 303 0 z "},"‡":{"ha":740,"x_min":0,"x_max":0,"o":"m 688 207 l 688 317 l 444 317 l 444 607 l 688 607 l 688 715 l 444 715 l 444 922 l 306 922 l 306 715 l 53 715 l 53 607 l 306 607 l 306 317 l 53 317 l 53 207 l 306 207 l 306 0 l 444 0 l 444 207 z "},"•":{"ha":586,"x_min":0,"x_max":0,"o":"m 515 476 b 290 675 515 592 415 675 b 63 476 161 675 63 592 b 290 279 63 364 161 279 b 515 476 415 279 515 364 z "},"…":{"ha":1300,"x_min":0,"x_max":0,"o":"m 744 0 l 744 188 l 551 188 l 551 0 z m 1265 0 l 1265 188 l 1072 188 l 1072 0 z m 225 0 l 225 188 l 32 188 l 32 0 z "},"‰":{"ha":1190,"x_min":0,"x_max":0,"o":"m 129 -28 l 771 950 l 676 950 l 36 -28 z m 625 43 b 560 217 582 43 560 89 b 625 390 560 344 582 390 b 690 215 669 390 690 343 b 625 43 690 90 669 43 z m 622 -31 b 782 219 722 -31 782 49 b 622 463 782 392 722 463 b 465 218 524 463 465 392 b 622 -31 465 44 524 -31 z m 1011 43 b 946 217 968 43 946 89 b 1011 390 946 344 968 390 b 1076 215 1056 390 1076 343 b 1011 43 1076 90 1056 43 z m 1008 -31 b 1168 219 1108 -31 1168 49 b 1008 463 1168 392 1108 463 b 851 218 910 463 851 392 b 1008 -31 851 44 910 -31 z m 186 533 b 121 707 143 533 121 579 b 186 881 121 835 143 881 b 251 706 231 881 251 833 b 186 533 251 581 231 533 z m 183 460 b 343 710 283 460 343 539 b 183 953 343 882 283 953 b 26 708 85 953 26 882 b 183 460 26 535 85 460 z "},"‹":{"ha":322,"x_min":0,"x_max":0,"o":"m 217 201 l 304 294 l 174 440 l 304 588 l 217 682 l 18 440 z "},"›":{"ha":322,"x_min":0,"x_max":0,"o":"m 106 201 l 304 440 l 106 682 l 18 588 l 149 440 l 18 294 z "},"⁄":{"ha":185,"x_min":0,"x_max":0,"o":"m -183 -28 l 458 950 l 364 950 l -276 -28 z "},"⁰":{"ha":382,"x_min":0,"x_max":0,"o":"m 192 533 b 126 707 149 533 126 579 b 192 881 126 835 149 881 b 257 706 236 881 257 833 b 192 533 257 581 236 533 z m 189 460 b 349 710 289 460 349 539 b 189 953 349 882 289 953 b 32 708 90 953 32 882 b 189 460 32 535 90 460 z "},"⁴":{"ha":372,"x_min":0,"x_max":0,"o":"m 204 647 l 110 647 l 204 810 z m 293 476 l 293 576 l 344 576 l 344 647 l 293 647 l 293 938 l 192 938 l 24 656 l 24 576 l 203 576 l 203 476 z "},"⁵":{"ha":382,"x_min":0,"x_max":0,"o":"m 133 657 b 197 697 146 683 165 697 b 261 621 240 697 261 668 b 192 533 261 568 242 533 b 129 594 156 533 132 557 l 39 594 b 192 460 42 515 108 460 b 351 625 286 460 351 525 b 218 769 351 717 293 769 b 126 738 183 769 150 763 l 131 861 l 333 861 l 333 938 l 50 938 l 40 657 z "},"⁶":{"ha":379,"x_min":0,"x_max":0,"o":"m 192 533 b 121 622 147 533 121 569 b 190 707 121 672 150 707 b 256 621 229 707 256 674 b 192 533 256 571 233 533 z m 336 838 b 203 953 326 911 276 953 b 31 692 88 953 31 876 b 193 460 31 539 85 460 b 344 625 283 460 344 531 b 214 778 344 721 288 778 b 119 735 168 778 142 760 b 199 881 125 833 149 881 b 247 838 228 881 244 865 z "},"⁷":{"ha":374,"x_min":0,"x_max":0,"o":"m 179 476 b 346 868 186 614 243 753 l 346 938 l 24 938 l 24 857 l 249 857 b 86 476 151 746 97 608 z "},"⁸":{"ha":385,"x_min":0,"x_max":0,"o":"m 190 535 b 125 611 144 535 125 563 b 190 683 125 654 144 683 b 257 611 236 683 257 653 b 190 535 257 563 238 535 z m 190 754 b 135 817 153 754 135 781 b 190 879 135 854 153 879 b 247 817 228 879 247 854 b 190 754 247 781 228 754 z m 282 728 b 329 828 317 746 329 788 b 192 953 329 899 282 953 b 51 825 111 953 51 899 b 103 724 51 786 65 743 b 31 607 56 701 31 660 b 192 460 31 525 85 460 b 350 611 299 460 350 524 b 282 728 350 663 324 710 z "},"⁹":{"ha":379,"x_min":0,"x_max":0,"o":"m 186 706 b 119 792 146 706 119 739 b 185 879 119 842 143 879 b 254 790 229 879 254 843 b 186 706 254 740 226 706 z m 39 575 b 174 460 49 501 99 460 b 344 721 288 460 344 536 b 183 953 344 874 292 953 b 31 788 92 953 31 882 b 161 635 31 692 89 635 b 256 678 207 635 235 653 b 178 532 250 579 226 532 b 129 575 147 532 131 547 z "},"₀":{"ha":382,"x_min":0,"x_max":0,"o":"m 192 43 b 126 217 149 43 126 89 b 192 390 126 344 149 390 b 257 215 236 390 257 343 b 192 43 257 90 236 43 z m 189 -31 b 349 219 289 -31 349 49 b 189 463 349 392 289 463 b 32 218 90 463 32 392 b 189 -31 32 44 90 -31 z "},"₁":{"ha":247,"x_min":0,"x_max":0,"o":"m 208 -14 l 208 447 l 135 447 b 24 367 129 393 103 367 l 24 304 l 118 304 l 118 -14 z "},"₂":{"ha":364,"x_min":0,"x_max":0,"o":"m 338 -14 l 338 64 l 139 64 b 203 147 140 88 167 121 b 336 328 301 217 336 257 b 179 463 336 418 272 463 b 29 303 85 463 29 403 l 117 303 b 183 385 117 365 143 385 b 247 325 219 385 247 371 b 163 215 247 286 228 263 b 24 -14 44 131 24 71 z "},"₃":{"ha":374,"x_min":0,"x_max":0,"o":"m 149 193 b 251 121 224 193 251 175 b 185 44 251 72 222 44 b 117 121 140 44 117 68 l 29 121 b 181 -31 29 28 85 -31 b 343 119 278 -31 343 26 b 275 233 343 178 318 215 b 329 336 311 254 329 294 b 186 463 329 411 265 463 b 38 314 99 463 38 403 l 121 314 b 182 390 121 363 147 390 b 242 319 224 390 242 365 b 149 256 242 285 226 256 z "},"₄":{"ha":372,"x_min":0,"x_max":0,"o":"m 204 157 l 110 157 l 204 319 z m 293 -14 l 293 86 l 344 86 l 344 157 l 293 157 l 293 447 l 192 447 l 24 165 l 24 86 l 203 86 l 203 -14 z "},"₅":{"ha":382,"x_min":0,"x_max":0,"o":"m 133 167 b 197 207 146 193 165 207 b 261 131 240 207 261 178 b 192 43 261 78 242 43 b 129 104 156 43 132 67 l 39 104 b 192 -31 42 25 108 -31 b 351 135 286 -31 351 35 b 218 279 351 226 293 279 b 126 247 183 279 150 272 l 131 371 l 333 371 l 333 447 l 50 447 l 40 167 z "},"₆":{"ha":379,"x_min":0,"x_max":0,"o":"m 192 43 b 121 132 147 43 121 79 b 190 217 121 182 150 217 b 256 131 229 217 256 183 b 192 43 256 81 233 43 z m 336 347 b 203 463 326 421 276 463 b 31 201 88 463 31 386 b 193 -31 31 49 85 -31 b 344 135 283 -31 344 40 b 214 288 344 231 288 288 b 119 244 168 288 142 269 b 199 390 125 343 149 390 b 247 347 228 390 244 375 z "},"₇":{"ha":374,"x_min":0,"x_max":0,"o":"m 179 -14 b 346 378 186 124 243 263 l 346 447 l 24 447 l 24 367 l 249 367 b 86 -14 151 256 97 118 z "},"₈":{"ha":385,"x_min":0,"x_max":0,"o":"m 190 44 b 125 121 144 44 125 72 b 190 193 125 164 144 193 b 257 121 236 193 257 163 b 190 44 257 72 238 44 z m 190 264 b 135 326 153 264 135 290 b 190 389 135 364 153 389 b 247 326 228 389 247 364 b 190 264 247 290 228 264 z m 282 238 b 329 338 317 256 329 297 b 192 463 329 408 282 463 b 51 335 111 463 51 408 b 103 233 51 296 65 253 b 31 117 56 211 31 169 b 192 -31 31 35 85 -31 b 350 121 299 -31 350 33 b 282 238 350 172 324 219 z "},"₉":{"ha":379,"x_min":0,"x_max":0,"o":"m 186 215 b 119 301 146 215 119 249 b 185 389 119 351 143 389 b 254 300 229 389 254 353 b 186 215 254 250 226 215 z m 39 85 b 174 -31 49 11 99 -31 b 344 231 288 -31 344 46 b 183 463 344 383 292 463 b 31 297 92 463 31 392 b 161 144 31 201 89 144 b 256 188 207 144 235 163 b 178 42 250 89 226 42 b 129 85 147 42 131 57 z "},"₩":{"ha":1006,"x_min":0,"x_max":0,"o":"m 757 0 l 871 529 l 992 529 l 992 607 l 888 607 l 911 713 l 992 713 l 992 790 l 928 790 l 957 922 l 804 922 l 778 790 l 603 790 l 579 922 l 422 922 l 400 790 l 231 790 l 206 922 l 46 922 l 75 790 l 14 790 l 14 713 l 92 713 l 115 607 l 14 607 l 14 529 l 132 529 l 249 0 l 389 0 l 488 529 l 514 529 l 613 0 z m 617 713 l 763 713 l 742 607 l 636 607 z m 246 713 l 386 713 l 369 607 l 267 607 z m 650 529 l 726 529 l 688 325 z m 282 529 l 356 529 l 322 325 z "},"₪":{"ha":867,"x_min":0,"x_max":0,"o":"m 361 765 b 486 642 436 765 486 735 l 486 238 l 622 238 l 622 639 b 276 922 622 908 511 922 l 36 922 l 36 0 l 174 0 l 174 765 z m 521 156 b 397 279 446 156 397 186 l 397 683 l 260 683 l 260 282 b 607 0 260 10 371 0 l 847 0 l 847 922 l 710 922 l 710 156 z "},"₫":{"ha":750,"x_min":0,"x_max":0,"o":"m 576 153 l 576 790 l 707 790 l 707 872 l 576 872 l 576 933 l 432 933 l 432 872 l 264 872 l 264 790 l 432 790 l 432 650 b 268 739 390 710 336 739 b 40 444 125 739 40 617 b 281 138 40 251 140 138 b 435 222 347 138 400 164 l 435 153 z m 314 260 b 189 433 240 260 189 332 b 315 610 189 551 229 610 b 438 424 396 610 438 549 b 314 260 438 328 383 260 z m 665 0 l 665 82 l 43 82 l 43 0 z "},"€":{"ha":856,"x_min":0,"x_max":0,"o":"m 675 231 b 494 136 639 167 579 136 b 300 288 406 136 339 192 l 424 288 l 481 393 l 274 393 b 269 494 271 414 269 457 l 536 494 l 593 603 l 289 603 b 506 786 324 718 401 786 b 656 721 558 786 618 765 l 744 883 b 504 953 672 928 596 953 b 89 603 281 953 147 822 l 38 603 l 13 494 l 76 494 b 75 450 75 482 75 467 b 76 393 75 431 75 411 l 38 393 l 13 288 l 93 288 b 501 -32 144 76 308 -32 b 836 140 646 -32 767 33 z "},"₭":{"ha":828,"x_min":0,"x_max":0,"o":"m 785 413 l 785 549 l 496 549 l 801 922 l 578 922 l 303 581 l 303 922 l 118 922 l 118 549 l 8 549 l 8 413 l 118 413 l 118 0 l 303 0 l 303 379 l 589 0 l 819 0 l 479 413 z "},"₮":{"ha":769,"x_min":0,"x_max":0,"o":"m 624 557 l 624 672 l 476 607 l 476 765 l 757 765 l 757 922 l 10 922 l 10 765 l 289 765 l 289 528 l 131 460 l 131 346 l 289 413 l 289 294 l 131 226 l 131 113 l 289 181 l 289 0 l 476 0 l 476 260 l 624 324 l 624 439 l 476 374 l 476 493 z "},"₱":{"ha":800,"x_min":0,"x_max":0,"o":"m 789 479 l 789 553 l 722 553 b 725 596 724 567 725 581 b 724 628 725 607 725 617 l 789 628 l 789 701 l 714 701 b 426 922 681 843 576 922 l 68 922 l 68 701 l 7 701 l 7 628 l 68 628 l 68 553 l 7 553 l 7 479 l 68 479 l 68 0 l 250 0 l 250 274 l 426 274 b 711 479 572 274 675 344 z m 565 593 b 563 553 565 579 564 565 l 250 553 l 250 628 l 563 628 b 565 593 564 617 565 604 z m 250 775 l 419 775 b 540 701 474 775 515 747 l 250 701 z m 250 408 l 250 479 l 539 479 b 419 408 514 435 472 408 z "},"₲":{"ha":914,"x_min":0,"x_max":0,"o":"m 250 -108 l 303 -7 b 439 -32 344 -24 390 -32 b 715 92 565 -32 671 14 l 719 0 l 879 0 l 879 496 l 571 496 l 850 1019 l 700 1019 l 649 922 b 475 953 596 942 538 953 b 21 463 176 953 21 735 b 190 60 21 304 82 153 l 100 -108 z m 218 454 b 475 793 218 674 321 793 b 569 774 508 793 540 786 l 281 231 b 218 454 238 293 218 376 z m 699 342 b 474 131 699 226 600 131 b 385 146 440 131 411 136 l 489 342 z "},"₴":{"ha":782,"x_min":0,"x_max":0,"o":"m 760 299 l 760 410 l 410 410 b 640 524 501 429 586 454 l 760 524 l 760 635 l 685 635 b 688 683 686 647 688 664 b 411 953 688 835 597 953 b 107 706 246 953 136 860 l 251 706 b 406 811 268 768 317 811 b 540 683 503 811 540 760 b 533 635 540 663 538 649 l 21 635 l 21 524 l 404 524 b 129 410 313 493 197 482 l 21 410 l 21 299 l 79 299 b 75 244 76 282 75 264 b 381 -32 75 72 182 -32 b 699 215 563 -32 678 56 l 546 215 b 379 117 518 147 461 117 b 219 250 269 117 219 172 b 226 299 219 268 222 285 z "},"₸":{"ha":678,"x_min":0,"x_max":0,"o":"m 428 0 l 428 496 l 661 496 l 661 640 l 17 640 l 17 496 l 251 496 l 251 0 z m 661 786 l 661 922 l 17 922 l 17 786 z "},"₹":{"ha":742,"x_min":0,"x_max":0,"o":"m 728 529 l 728 675 l 601 675 b 550 776 590 715 574 750 l 728 776 l 728 922 l 17 922 l 17 776 l 300 776 b 408 675 354 776 390 731 l 17 675 l 17 529 l 414 529 b 294 417 399 467 358 417 l 94 417 l 94 269 l 268 0 l 496 0 l 325 257 b 610 529 486 267 593 364 z "},"₺":{"ha":811,"x_min":0,"x_max":0,"o":"m 276 153 l 276 350 l 500 446 l 500 561 l 276 464 l 276 583 l 500 679 l 500 794 l 276 697 l 276 922 l 93 922 l 93 618 l 7 582 l 7 468 l 93 504 l 93 385 l 7 349 l 7 235 l 93 271 l 93 0 l 421 0 b 796 317 621 0 754 124 l 607 317 b 415 153 588 218 514 153 z "},"₼":{"ha":914,"x_min":0,"x_max":0,"o":"m 368 922 l 368 693 b 28 378 118 674 28 568 l 28 0 l 217 0 l 217 361 b 368 542 217 460 257 522 l 368 0 l 547 0 l 547 542 b 700 363 658 522 700 461 l 700 0 l 886 0 l 886 381 b 547 693 886 571 803 675 l 547 922 z "},"₽":{"ha":742,"x_min":0,"x_max":0,"o":"m 483 128 l 483 265 l 282 265 l 282 339 l 422 339 b 736 629 615 339 736 433 b 438 922 736 815 622 922 l 93 922 l 93 476 l 14 476 l 14 339 l 93 339 l 93 265 l 14 265 l 14 128 l 93 128 l 93 0 l 282 0 l 282 128 z m 282 476 l 282 768 l 425 768 b 571 622 515 768 571 707 b 425 476 571 533 515 476 z "},"₾":{"ha":906,"x_min":0,"x_max":0,"o":"m 607 1022 l 511 1022 l 511 951 b 471 953 497 953 485 953 b 411 951 450 953 431 951 l 411 1022 l 317 1022 l 317 940 b 21 593 104 904 21 785 b 294 149 21 379 125 240 l 38 149 l 38 0 l 521 0 l 521 136 b 217 569 311 242 217 363 b 317 781 217 679 243 746 l 317 539 l 411 539 l 411 804 b 481 808 432 807 456 808 b 511 807 490 808 501 808 l 511 539 l 607 539 l 607 792 b 714 619 675 768 707 717 l 888 619 b 607 943 863 807 797 913 z "},"ℓ":{"ha":503,"x_min":0,"x_max":0,"o":"m 371 88 b 329 82 357 83 339 82 b 228 181 276 82 246 124 b 493 729 431 331 493 556 b 371 926 493 868 453 926 b 103 360 181 926 103 606 b 113 219 103 310 106 263 b 3 169 79 201 43 185 l 3 68 b 136 122 51 83 96 101 b 322 -24 169 33 229 -24 b 371 -17 343 -24 357 -21 z m 206 379 b 342 797 206 572 246 797 b 385 700 378 797 385 764 b 210 285 385 572 357 410 b 206 379 207 318 206 350 z "},"№":{"ha":1357,"x_min":0,"x_max":0,"o":"m 783 0 l 783 922 l 603 922 l 603 329 l 236 922 l 32 922 l 32 0 l 211 0 l 211 619 l 606 0 z m 1085 506 b 961 661 1003 506 961 557 b 1085 817 961 767 1003 817 b 1210 661 1168 817 1210 767 b 1085 506 1210 557 1168 506 z m 1085 392 b 1347 661 1246 392 1347 500 b 1085 933 1347 826 1246 933 b 821 661 924 933 821 825 b 1085 392 821 501 919 392 z "},"℗":{"ha":935,"x_min":0,"x_max":0,"o":"m 463 -12 b 904 463 707 -12 904 201 b 463 936 904 724 707 936 b 21 463 219 936 21 724 b 463 -12 21 201 219 -12 z m 465 61 b 93 461 258 61 93 239 b 465 863 93 681 258 863 b 839 461 669 863 839 681 b 465 61 839 239 669 61 z m 404 475 l 404 606 l 493 606 b 568 543 546 606 568 579 b 493 475 568 504 546 475 z m 404 239 l 404 400 l 507 400 b 650 539 593 400 650 458 b 507 683 650 619 593 683 l 311 683 l 311 239 z "},"™":{"ha":647,"x_min":0,"x_max":0,"o":"m 188 565 l 188 851 l 276 851 l 276 922 l 21 922 l 21 851 l 113 851 l 113 565 z m 613 565 l 613 922 l 529 922 l 463 739 l 394 922 l 308 922 l 308 567 l 379 567 l 379 771 l 464 565 l 540 763 l 540 565 z "},"⅓":{"ha":872,"x_min":0,"x_max":0,"o":"m 129 -28 l 771 950 l 676 950 l 36 -28 z m 211 476 l 211 938 l 138 938 b 26 857 132 883 106 857 l 26 794 l 121 794 l 121 476 z m 654 193 b 757 121 729 193 757 175 b 690 44 757 72 728 44 b 622 121 646 44 622 68 l 535 121 b 686 -31 535 28 590 -31 b 849 119 783 -31 849 26 b 781 233 849 178 824 215 b 835 336 817 254 835 294 b 692 463 835 411 771 463 b 543 314 604 463 543 403 l 626 314 b 688 390 626 363 653 390 b 747 319 729 390 747 365 b 654 256 747 285 732 256 z "},"⅔":{"ha":896,"x_min":0,"x_max":0,"o":"m 172 -28 l 814 950 l 719 950 l 79 -28 z m 340 476 l 340 554 l 142 554 b 206 638 143 578 169 611 b 339 818 304 707 339 747 b 182 953 339 908 275 953 b 32 793 88 953 32 893 l 119 793 b 186 875 119 856 146 875 b 250 815 222 875 250 861 b 165 706 250 776 231 753 b 26 476 47 621 26 561 z m 678 193 b 781 121 753 193 781 175 b 714 44 781 72 751 44 b 646 121 669 44 646 68 l 558 121 b 710 -31 558 28 614 -31 b 872 119 807 -31 872 26 b 804 233 872 178 847 215 b 858 336 840 254 858 294 b 715 463 858 411 794 463 b 567 314 628 463 567 403 l 650 314 b 711 390 650 363 676 390 b 771 319 753 390 771 365 b 678 256 771 285 756 256 z "},"⅛":{"ha":879,"x_min":0,"x_max":0,"o":"m 126 -28 l 768 950 l 674 950 l 33 -28 z m 211 476 l 211 938 l 138 938 b 26 857 132 883 106 857 l 26 794 l 121 794 l 121 476 z m 696 44 b 631 121 650 44 631 72 b 696 193 631 164 650 193 b 763 121 742 193 763 163 b 696 44 763 72 743 44 z m 696 264 b 640 326 658 264 640 290 b 696 389 640 364 658 389 b 753 326 733 389 753 364 b 696 264 753 290 733 264 z m 788 238 b 835 338 822 256 835 297 b 697 463 835 408 788 463 b 557 335 617 463 557 408 b 608 233 557 296 571 253 b 536 117 561 211 536 169 b 697 -31 536 35 590 -31 b 856 121 804 -31 856 33 b 788 238 856 172 829 219 z "},"⅜":{"ha":894,"x_min":0,"x_max":0,"o":"m 176 -28 l 818 950 l 724 950 l 83 -28 z m 713 44 b 647 121 667 44 647 72 b 713 193 647 164 667 193 b 779 121 758 193 779 163 b 713 44 779 72 760 44 z m 713 264 b 657 326 675 264 657 290 b 713 389 657 364 675 389 b 769 326 750 389 769 364 b 713 264 769 290 750 264 z m 804 238 b 851 338 839 256 851 297 b 714 463 851 408 804 463 b 574 335 633 463 574 408 b 625 233 574 296 588 253 b 553 117 578 211 553 169 b 714 -31 553 35 607 -31 b 872 121 821 -31 872 33 b 804 238 872 172 846 219 z m 146 683 b 249 611 221 683 249 665 b 182 535 249 563 219 535 b 114 611 138 535 114 558 l 26 611 b 178 460 26 518 82 460 b 340 610 275 460 340 517 b 272 724 340 668 315 706 b 326 826 308 744 326 785 b 183 953 326 901 263 953 b 35 804 96 953 35 893 l 118 804 b 179 881 118 853 144 881 b 239 810 221 881 239 856 b 146 746 239 775 224 746 z "},"⅝":{"ha":876,"x_min":0,"x_max":0,"o":"m 161 -28 l 803 950 l 708 950 l 68 -28 z m 121 657 b 185 697 133 683 153 697 b 249 621 228 697 249 668 b 179 533 249 568 229 533 b 117 594 143 533 119 557 l 26 594 b 179 460 29 515 96 460 b 339 625 274 460 339 525 b 206 769 339 717 281 769 b 114 738 171 769 138 763 l 118 861 l 321 861 l 321 938 l 38 938 l 28 657 z m 694 44 b 629 121 649 44 629 72 b 694 193 629 164 649 193 b 761 121 740 193 761 163 b 694 44 761 72 742 44 z m 694 264 b 639 326 657 264 639 290 b 694 389 639 364 657 389 b 751 326 732 389 751 364 b 694 264 751 290 732 264 z m 786 238 b 833 338 821 256 833 297 b 696 463 833 408 786 463 b 556 335 615 463 556 408 b 607 233 556 296 569 253 b 535 117 560 211 535 169 b 696 -31 535 35 589 -31 b 854 121 803 -31 854 33 b 786 238 854 172 828 219 z "},"⅞":{"ha":885,"x_min":0,"x_max":0,"o":"m 149 -28 l 790 950 l 696 950 l 56 -28 z m 703 44 b 638 121 657 44 638 72 b 703 193 638 164 657 193 b 769 121 749 193 769 163 b 703 44 769 72 750 44 z m 703 264 b 647 326 665 264 647 290 b 703 389 647 364 665 389 b 760 326 740 389 760 364 b 703 264 760 290 740 264 z m 794 238 b 842 338 829 256 842 297 b 704 463 842 408 794 463 b 564 335 624 463 564 408 b 615 233 564 296 578 253 b 543 117 568 211 543 169 b 704 -31 543 35 597 -31 b 863 121 811 -31 863 33 b 794 238 863 172 836 219 z m 182 476 b 349 868 189 614 246 753 l 349 938 l 26 938 l 26 857 l 251 857 b 89 476 154 746 100 608 z "},"∂":{"ha":794,"x_min":0,"x_max":0,"o":"m 567 379 b 396 128 565 204 483 128 b 222 297 294 128 222 176 b 378 454 222 401 274 454 b 567 379 460 454 540 418 z m 140 742 b 356 796 196 781 256 796 b 557 546 464 796 557 715 b 364 611 513 590 428 611 b 33 301 160 611 33 501 b 369 -32 33 103 156 -32 b 754 432 671 -32 754 186 b 356 953 754 850 574 953 b 79 883 224 953 124 922 z "},"∏":{"ha":831,"x_min":0,"x_max":0,"o":"m 763 -324 l 763 922 l 60 922 l 60 -324 l 217 -324 l 217 794 l 604 794 l 604 -324 z "},"∑":{"ha":731,"x_min":0,"x_max":0,"o":"m 683 -253 l 683 -104 l 263 -104 l 471 335 l 263 772 l 683 772 l 683 922 l 40 922 l 40 813 l 282 335 l 40 -143 l 40 -253 z "},"−":{"ha":726,"x_min":0,"x_max":0,"o":"m 686 411 l 686 542 l 32 542 l 32 411 z "},"√":{"ha":811,"x_min":0,"x_max":0,"o":"m 471 0 l 778 922 l 585 922 l 383 229 l 304 508 l 25 508 l 25 399 l 146 399 l 297 0 z "},"∞":{"ha":929,"x_min":0,"x_max":0,"o":"m 461 361 b 669 243 500 289 567 243 b 868 472 779 243 868 319 b 669 704 868 628 778 704 b 461 585 565 704 507 658 b 253 704 415 658 357 704 b 54 472 144 704 54 628 b 253 243 54 319 143 243 b 461 361 356 243 422 289 z m 406 468 b 276 372 383 418 343 372 b 174 472 206 372 174 407 b 276 569 174 529 208 569 b 406 468 338 569 374 528 z m 517 468 b 646 569 549 528 585 569 b 749 472 714 569 749 529 b 646 372 749 407 717 372 b 517 468 579 372 539 418 z "}}}
